<svg width="772" height="772" viewBox="0 0 772 772" fill="none" xmlns="http://www.w3.org/2000/svg">
<g filter="url(#filter0_d_240_11)">
<circle cx="386.042" cy="381.54" r="381.54" fill="#2F69FF"/>
<path d="M334.02 62.2032H324.67V74.9032H312.62V62.2032H303.27V97.8032H312.62V83.1032H324.67V97.8032H334.02V62.2032ZM359.481 62.1532H350.081L336.731 97.8032H346.231L348.581 91.3032H360.881L363.181 97.8032H372.781L359.481 62.1532ZM358.781 84.6032H350.681L354.781 72.1532L358.781 84.6032ZM375.536 97.8032H423.736V62.2032H414.536V89.9032H404.236V62.2032H395.036V89.9032H384.736V62.2032H375.536V97.8032ZM449.178 62.1532H439.778L426.428 97.8032H435.928L438.278 91.3032H450.578L452.878 97.8032H462.478L449.178 62.1532ZM448.478 84.6032H440.378L444.478 72.1532L448.478 84.6032ZM247.601 129.903C247.601 118.953 240.251 111.353 229.651 111.353C221.951 111.353 214.801 115.953 213.751 123.903H223.001C224.001 120.753 226.301 119.153 229.851 119.153C233.751 119.153 236.551 121.653 237.651 125.803H225.601V133.003H237.951C237.101 137.803 234.101 140.753 229.851 140.753C226.051 140.753 223.701 138.803 222.901 134.903H213.501C213.651 136.953 214.001 138.003 215.101 140.203C217.901 145.903 222.751 148.653 229.801 148.653C240.901 148.653 247.601 140.653 247.601 129.903ZM285.09 112.203H273.59L261.69 125.803V112.203H252.59V147.803H261.79V136.803L265.59 132.853L275.19 147.803H286.74L271.89 126.153L285.09 112.203ZM312.13 133.903C311.48 138.453 309.08 140.753 304.98 140.753C299.93 140.753 296.63 136.553 296.63 130.103C296.63 123.453 299.88 119.153 304.98 119.153C308.83 119.153 311.23 121.053 312.03 124.753H321.18C320.53 116.303 313.13 111.353 305.18 111.353C294.58 111.353 287.23 118.953 287.23 129.903C287.23 140.653 293.98 148.653 305.03 148.653C312.08 148.653 316.93 145.903 319.73 140.203C320.98 137.703 321.28 136.653 321.38 133.903H312.13ZM356.969 112.203H326.219V147.803H335.569V120.103H347.619V147.803H356.969V112.203ZM391.83 112.203H363.33V147.803H392.28V140.003H372.58V133.053H390.18V125.853H372.58V119.703H391.83V112.203ZM397.558 147.803H406.858V135.903H414.708C422.108 135.903 427.258 132.203 427.258 124.203C427.258 115.403 421.358 112.203 413.208 112.203H397.558V147.803ZM406.858 128.703V119.803H412.858C416.108 119.803 418.258 120.853 418.258 124.303C418.258 128.453 415.308 128.703 412.108 128.703H406.858ZM460.037 112.203H429.537V120.103H440.087V147.803H449.487V120.103H460.037V112.203ZM494.909 112.203H485.009L472.859 135.903L473.209 112.203H464.159V147.803H474.359L486.509 124.103L485.859 147.803H494.909V112.203ZM529.969 136.503C529.969 131.703 526.569 128.953 523.569 128.403C526.269 127.403 528.619 124.303 528.619 121.253C528.619 115.053 523.219 111.353 514.719 111.353C505.819 111.353 500.419 115.403 500.269 122.803H509.119C509.319 119.953 511.319 118.453 514.919 118.453C517.719 118.453 519.569 120.303 519.569 122.253C519.569 124.403 518.119 126.253 514.119 126.253C513.669 126.253 512.469 126.253 511.419 126.153V132.653H514.719C518.119 132.653 520.469 134.253 520.469 137.203C520.469 139.703 518.269 141.503 515.119 141.503C511.519 141.503 508.619 140.103 508.619 135.903H499.269C499.419 143.953 505.269 148.653 515.169 148.653C523.519 148.653 529.969 143.753 529.969 136.503ZM553.719 112.153H544.319L530.969 147.803H540.469L542.819 141.303H555.119L557.419 147.803H567.019L553.719 112.153ZM553.019 134.603H544.919L549.019 122.153L553.019 134.603Z" fill="white"/>
<path d="M86.2123 285.803H89.9373V273.278L94.3623 285.803H97.3873L101.762 273.153V285.803H105.437V268.003H99.9873L95.9373 280.228L91.7873 268.003H86.2123V285.803ZM120.593 285.803V272.903H117.068V277.578H112.093V272.903H108.568V285.803H112.093V280.378H117.068V285.803H120.593ZM136.287 279.353C136.287 275.253 133.662 272.528 129.687 272.528C125.637 272.528 122.962 275.253 122.962 279.353C122.962 283.478 125.612 286.203 129.637 286.203C133.662 286.203 136.287 283.503 136.287 279.353ZM132.737 279.328C132.737 281.978 131.587 283.528 129.637 283.528C127.662 283.528 126.512 282.003 126.512 279.353C126.512 276.778 127.687 275.228 129.587 275.228C131.562 275.228 132.737 276.753 132.737 279.328ZM148.421 275.628V272.903H138.671V285.803H142.196V275.628H148.421ZM162.239 279.353C162.239 275.253 159.614 272.528 155.639 272.528C151.589 272.528 148.914 275.253 148.914 279.353C148.914 283.478 151.564 286.203 155.589 286.203C159.614 286.203 162.239 283.503 162.239 279.353ZM158.689 279.328C158.689 281.978 157.539 283.528 155.589 283.528C153.614 283.528 152.464 282.003 152.464 279.353C152.464 276.778 153.639 275.228 155.539 275.228C157.514 275.228 158.689 276.753 158.689 279.328ZM176.133 285.803V272.903H165.783L165.583 280.578C165.533 282.428 165.008 283.253 163.983 283.253C163.608 283.253 163.233 283.178 162.983 283.128V285.953C163.358 286.103 164.408 286.203 164.908 286.203C168.808 286.203 168.958 282.853 169.058 280.178L169.208 275.628H172.608V285.803H176.133ZM191.078 281.803H187.678C187.153 283.103 186.353 283.678 185.053 283.678C183.153 283.678 182.078 282.478 182.028 280.253H191.278V279.903C191.278 275.378 188.803 272.528 184.903 272.528C181.153 272.528 178.428 275.428 178.428 279.428C178.428 283.478 181.053 286.178 185.028 286.178C187.953 286.178 190.278 284.603 191.078 281.803ZM187.678 278.003H182.028C182.228 276.203 183.328 275.103 184.903 275.103C186.678 275.103 187.528 276.428 187.678 278.003ZM203.794 275.628V272.903H191.769V275.628H196.019V285.803H199.544V275.628H203.794ZM217.444 285.803V272.903H213.919V277.578H208.944V272.903H205.419V285.803H208.944V280.378H213.919V285.803H217.444ZM232.263 285.803V272.903H228.238L223.638 281.628V272.903H220.238V285.803H224.263L228.863 277.078V285.803H232.263ZM243.732 268.003C243.507 269.153 242.407 269.653 241.057 269.653C239.707 269.653 238.607 269.153 238.382 268.003H236.982C236.982 270.578 238.632 271.603 241.057 271.603C243.482 271.603 245.132 270.578 245.132 268.003H243.732ZM247.082 285.803V272.903H243.057L238.457 281.628V272.903H235.057V285.803H239.082L243.682 277.078V285.803H247.082ZM269.735 279.353C269.735 275.253 267.11 272.528 263.135 272.528C259.085 272.528 256.41 275.253 256.41 279.353C256.41 283.478 259.06 286.203 263.085 286.203C267.11 286.203 269.735 283.503 269.735 279.353ZM266.185 279.328C266.185 281.978 265.035 283.528 263.085 283.528C261.11 283.528 259.96 282.003 259.96 279.353C259.96 276.778 261.135 275.228 263.035 275.228C265.01 275.228 266.185 276.753 266.185 279.328ZM284.143 285.803V272.903H272.118V285.803H275.643V275.628H280.618V285.803H284.143ZM299.362 272.903V285.803H302.887V272.903H299.362ZM297.737 281.553C297.737 278.753 295.612 277.328 293.012 277.328H290.212V272.903H286.712V285.803H292.862C295.662 285.803 297.737 284.403 297.737 281.553ZM290.212 279.728H291.987C293.212 279.728 294.162 280.303 294.162 281.553C294.162 282.803 293.312 283.353 292.012 283.353H290.212V279.728ZM316.342 275.628V272.903H304.317V275.628H308.567V285.803H312.092V275.628H316.342ZM85.7873 297.903V310.803H93.5623C95.9873 310.803 97.9373 309.478 97.9373 306.953C97.9373 305.178 96.9123 304.178 95.5873 303.803C96.6373 303.328 97.3373 302.403 97.3373 301.153C97.3373 298.853 95.4873 297.903 93.2123 297.903H85.7873ZM89.2873 303.078V300.153H91.6373C92.7373 300.153 93.7373 300.353 93.7373 301.603C93.7373 302.878 92.6873 303.078 91.6373 303.078H89.2873ZM89.2873 308.503V305.078H91.7623C93.0373 305.078 94.2623 305.303 94.2623 306.803C94.2623 308.278 93.1373 308.503 91.9123 308.503H89.2873ZM112.268 310.803V297.903H108.743V302.578H103.768V297.903H100.243V310.803H103.768V305.378H108.743V310.803H112.268ZM127.137 306.803H123.737C123.212 308.103 122.412 308.678 121.112 308.678C119.212 308.678 118.137 307.478 118.087 305.253H127.337V304.903C127.337 300.378 124.862 297.528 120.962 297.528C117.212 297.528 114.487 300.428 114.487 304.428C114.487 308.478 117.112 311.178 121.087 311.178C124.012 311.178 126.337 309.603 127.137 306.803ZM123.737 303.003H118.087C118.287 301.203 119.387 300.103 120.962 300.103C122.737 300.103 123.587 301.428 123.737 303.003ZM142.903 314.603V308.078H141.228V297.903H130.928V300.153C130.928 303.153 130.053 306.603 129.303 308.078H127.753V314.603H131.078V310.803H139.578V314.603H142.903ZM137.703 308.078H132.778C133.378 306.728 134.228 303.578 134.228 300.853V300.528H137.703V308.078ZM147.976 297.903H144.626V315.378H148.151V309.203C149.101 310.528 150.501 311.128 152.126 311.128C155.501 311.128 157.726 308.478 157.726 304.428C157.726 300.278 155.451 297.553 151.976 297.553C150.326 297.553 148.926 298.178 147.976 299.503V297.903ZM151.101 300.403C153.001 300.403 154.176 301.903 154.176 304.428C154.176 306.878 153.026 308.353 151.126 308.353C149.176 308.353 148.026 306.878 148.026 304.378C148.026 301.878 149.176 300.403 151.101 300.403ZM172.035 306.803H168.635C168.11 308.103 167.31 308.678 166.01 308.678C164.11 308.678 163.035 307.478 162.985 305.253H172.235V304.903C172.235 300.378 169.76 297.528 165.86 297.528C162.11 297.528 159.385 300.428 159.385 304.428C159.385 308.478 162.01 311.178 165.985 311.178C168.91 311.178 171.235 309.603 172.035 306.803ZM168.635 303.003H162.985C163.185 301.203 164.285 300.103 165.86 300.103C167.635 300.103 168.485 301.428 168.635 303.003ZM186.34 310.803V297.903H182.815V302.578H177.84V297.903H174.315V310.803H177.84V305.378H182.815V310.803H186.34ZM201.159 310.803V297.903H197.134L192.534 306.628V297.903H189.134V310.803H193.159L197.759 302.078V310.803H201.159ZM215.479 310.803V297.903H207.679C205.179 297.903 203.404 299.553 203.404 301.828C203.404 303.953 204.854 305.428 206.679 305.728L202.404 310.803H206.754L210.454 306.028H211.954V310.803H215.479ZM211.954 303.478H209.129C207.479 303.478 207.004 302.953 207.004 301.953C207.004 300.978 207.504 300.453 209.129 300.453H211.954V303.478ZM228.567 297.903H225.217V315.378H228.742V309.203C229.692 310.528 231.092 311.128 232.717 311.128C236.092 311.128 238.317 308.478 238.317 304.428C238.317 300.278 236.042 297.553 232.567 297.553C230.917 297.553 229.517 298.178 228.567 299.503V297.903ZM231.692 300.403C233.592 300.403 234.767 301.903 234.767 304.428C234.767 306.878 233.617 308.353 231.717 308.353C229.767 308.353 228.617 306.878 228.617 304.378C228.617 301.878 229.767 300.403 231.692 300.403ZM252.625 306.803H249.225C248.7 308.103 247.9 308.678 246.6 308.678C244.7 308.678 243.625 307.478 243.575 305.253H252.825V304.903C252.825 300.378 250.35 297.528 246.45 297.528C242.7 297.528 239.975 300.428 239.975 304.428C239.975 308.478 242.6 311.178 246.575 311.178C249.5 311.178 251.825 309.603 252.625 306.803ZM249.225 303.003H243.575C243.775 301.203 244.875 300.103 246.45 300.103C248.225 300.103 249.075 301.428 249.225 303.003ZM273.181 310.803V297.903H269.656V308.078H265.806V297.903H262.281V308.078H258.431V297.903H254.906V310.803H273.181ZM288.05 306.803H284.65C284.125 308.103 283.325 308.678 282.025 308.678C280.125 308.678 279.05 307.478 279 305.253H288.25V304.903C288.25 300.378 285.775 297.528 281.875 297.528C278.125 297.528 275.4 300.428 275.4 304.428C275.4 308.478 278.025 311.178 282 311.178C284.925 311.178 287.25 309.603 288.05 306.803ZM284.65 303.003H279C279.2 301.203 280.3 300.103 281.875 300.103C283.65 300.103 284.5 301.428 284.65 303.003ZM302.356 310.803V297.903H298.831V302.578H293.856V297.903H290.331V310.803H293.856V305.378H298.831V310.803H302.356ZM317.175 310.803V297.903H313.15L308.55 306.628V297.903H305.15V310.803H309.175L313.775 302.078V310.803H317.175ZM328.644 293.003C328.419 294.153 327.319 294.653 325.969 294.653C324.619 294.653 323.519 294.153 323.294 293.003H321.894C321.894 295.578 323.544 296.603 325.969 296.603C328.394 296.603 330.044 295.578 330.044 293.003H328.644ZM331.994 310.803V297.903H327.969L323.369 306.628V297.903H319.969V310.803H323.994L328.594 302.078V310.803H331.994ZM99.8123 339.603V333.078H98.1373V322.903H87.8373V325.153C87.8373 328.153 86.9623 331.603 86.2123 333.078H84.6623V339.603H87.9873V335.803H96.4873V339.603H99.8123ZM94.6123 333.078H89.6873C90.2873 331.728 91.1373 328.578 91.1373 325.853V325.528H94.6123V333.078ZM113.536 335.803V322.903H103.186L102.986 330.578C102.936 332.428 102.411 333.253 101.386 333.253C101.011 333.253 100.636 333.178 100.386 333.128V335.953C100.761 336.103 101.811 336.203 102.311 336.203C106.211 336.203 106.361 332.853 106.461 330.178L106.611 325.628H110.011V335.803H113.536ZM127.93 335.803V322.903H120.13C117.63 322.903 115.855 324.553 115.855 326.828C115.855 328.953 117.305 330.428 119.13 330.728L114.855 335.803H119.205L122.905 331.028H124.405V335.803H127.93ZM124.405 328.478H121.58C119.93 328.478 119.455 327.953 119.455 326.953C119.455 325.978 119.955 325.453 121.58 325.453H124.405V328.478ZM152.968 335.803V322.903H147.818L145.393 332.278H145.293L142.868 322.903H137.718V335.803H141.068V326.003H141.143L143.668 335.803H147.018L149.543 326.003H149.618V335.803H152.968ZM168.66 329.353C168.66 325.253 166.035 322.528 162.06 322.528C158.01 322.528 155.335 325.253 155.335 329.353C155.335 333.478 157.985 336.203 162.01 336.203C166.035 336.203 168.66 333.503 168.66 329.353ZM165.11 329.328C165.11 331.978 163.96 333.528 162.01 333.528C160.035 333.528 158.885 332.003 158.885 329.353C158.885 326.778 160.06 325.228 161.96 325.228C163.935 325.228 165.11 326.753 165.11 329.328ZM183.069 335.803V322.903H179.544V327.578H174.569V322.903H171.044V335.803H174.569V330.378H179.544V335.803H183.069ZM197.888 335.803V322.903H193.863L189.263 331.628V322.903H185.863V335.803H189.888L194.488 327.078V335.803H197.888ZM211.557 325.628V322.903H199.532V325.628H203.782V335.803H207.307V325.628H211.557ZM225.643 329.353C225.643 325.253 223.018 322.528 219.043 322.528C214.993 322.528 212.318 325.253 212.318 329.353C212.318 333.478 214.968 336.203 218.993 336.203C223.018 336.203 225.643 333.503 225.643 329.353ZM222.093 329.328C222.093 331.978 220.943 333.528 218.993 333.528C217.018 333.528 215.868 332.003 215.868 329.353C215.868 326.778 217.043 325.228 218.943 325.228C220.918 325.228 222.093 326.753 222.093 329.328ZM231.326 322.903H227.976V340.378H231.501V334.203C232.451 335.528 233.851 336.128 235.476 336.128C238.851 336.128 241.076 333.478 241.076 329.428C241.076 325.278 238.801 322.553 235.326 322.553C233.676 322.553 232.276 323.178 231.326 324.503V322.903ZM234.451 325.403C236.351 325.403 237.526 326.903 237.526 329.428C237.526 331.878 236.376 333.353 234.476 333.353C232.526 333.353 231.376 331.878 231.376 329.378C231.376 326.878 232.526 325.403 234.451 325.403ZM255.334 335.803V322.903H251.309L246.709 331.628V322.903H243.309V335.803H247.334L251.934 327.078V335.803H255.334ZM270.154 335.803V322.903H266.629V327.578H261.654V322.903H258.129V335.803H261.654V330.378H266.629V335.803H270.154ZM282.698 325.628V322.903H272.948V335.803H276.473V325.628H282.698ZM295.567 335.803C295.092 334.703 295.117 333.478 295.117 332.303V326.728C295.117 323.128 292.092 322.528 289.492 322.528C285.767 322.528 283.717 324.003 283.517 326.878H286.842C287.092 325.403 287.767 324.903 289.392 324.903C290.967 324.903 291.717 325.453 291.717 326.628C291.717 327.678 290.867 327.878 288.567 328.178C286.017 328.503 282.942 328.903 282.942 332.278C282.942 334.703 284.692 336.178 287.542 336.178C289.092 336.178 290.617 335.653 291.717 334.553C291.767 335.128 291.792 335.328 291.967 335.803H295.567ZM291.692 329.528V330.978C291.692 332.828 290.392 333.853 288.542 333.853C287.317 333.853 286.592 333.203 286.592 332.128C286.592 330.553 287.967 330.403 289.192 330.203C290.092 330.053 290.867 330.003 291.692 329.528ZM320.33 318.003H315.93L309.23 330.328H309.155V318.003H305.255V335.803H309.655L316.355 323.453H316.43V335.803H320.33V318.003ZM337.011 318.003H322.386V321.328H327.736V335.803H331.661V321.328H337.011V318.003ZM89.1873 347.903H85.8373V365.378H89.3623V359.203C90.3123 360.528 91.7123 361.128 93.3373 361.128C96.7123 361.128 98.9373 358.478 98.9373 354.428C98.9373 350.278 96.6623 347.553 93.1873 347.553C91.5373 347.553 90.1373 348.178 89.1873 349.503V347.903ZM92.3123 350.403C94.2123 350.403 95.3873 351.903 95.3873 354.428C95.3873 356.878 94.2373 358.353 92.3373 358.353C90.3873 358.353 89.2373 356.878 89.2373 354.378C89.2373 351.878 90.3873 350.403 92.3123 350.403ZM113.121 360.803C112.646 359.703 112.671 358.478 112.671 357.303V351.728C112.671 348.128 109.646 347.528 107.046 347.528C103.321 347.528 101.271 349.003 101.071 351.878H104.396C104.646 350.403 105.321 349.903 106.946 349.903C108.521 349.903 109.271 350.453 109.271 351.628C109.271 352.678 108.421 352.878 106.121 353.178C103.571 353.503 100.496 353.903 100.496 357.278C100.496 359.703 102.246 361.178 105.096 361.178C106.646 361.178 108.171 360.653 109.271 359.553C109.321 360.128 109.346 360.328 109.521 360.803H113.121ZM109.246 354.528V355.978C109.246 357.828 107.946 358.853 106.096 358.853C104.871 358.853 104.146 358.203 104.146 357.128C104.146 355.553 105.521 355.403 106.746 355.203C107.646 355.053 108.421 355.003 109.246 354.528ZM126.751 356.978C126.751 354.728 125.226 354.053 124.001 353.903V353.853C125.101 353.678 126.326 352.478 126.326 351.003C126.326 348.603 124.326 347.528 120.926 347.528C117.976 347.528 115.201 348.653 115.101 351.653H118.401C118.601 350.303 119.426 349.878 120.851 349.878C122.226 349.878 122.876 350.553 122.876 351.328C122.876 352.628 121.926 353.003 120.426 353.003H119.501V355.228H120.876C122.426 355.228 123.101 355.953 123.101 357.028C123.101 358.003 122.401 358.753 120.801 358.753C119.176 358.753 118.176 358.003 118.051 356.603H114.676C114.726 359.903 117.501 361.178 120.726 361.178C124.326 361.178 126.751 359.778 126.751 356.978ZM140.904 360.803V347.903H130.554L130.354 355.578C130.304 357.428 129.779 358.253 128.754 358.253C128.379 358.253 128.004 358.178 127.754 358.128V360.953C128.129 361.103 129.179 361.203 129.679 361.203C133.579 361.203 133.729 357.853 133.829 355.178L133.979 350.628H137.379V360.803H140.904ZM155.798 360.803V347.903H151.773L147.173 356.628V347.903H143.773V360.803H147.798L152.398 352.078V360.803H155.798ZM166.642 353.253C166.092 353.403 164.542 353.628 163.692 353.628C162.117 353.628 161.717 352.978 161.717 351.103V347.903H158.192V351.828C158.192 354.578 159.667 356.303 162.517 356.303C164.142 356.303 165.942 355.903 166.642 355.728V360.803H170.167V347.903H166.642V353.253ZM184.973 360.803V347.903H181.448V352.578H176.473V347.903H172.948V360.803H176.473V355.378H181.448V360.803H184.973ZM200.192 347.903V360.803H203.717V347.903H200.192ZM198.567 356.553C198.567 353.753 196.442 352.328 193.842 352.328H191.042V347.903H187.542V360.803H193.692C196.492 360.803 198.567 359.403 198.567 356.553ZM191.042 354.728H192.817C194.042 354.728 194.992 355.303 194.992 356.553C194.992 357.803 194.142 358.353 192.842 358.353H191.042V354.728ZM217.822 347.903H213.897L211.622 351.353L209.322 347.903H205.272L209.547 354.003L204.847 360.803H208.872L211.572 356.628L214.297 360.803H218.347L213.572 353.928L217.822 347.903ZM239.808 360.803L234.108 352.903L239.108 347.903H234.933L230.208 353.003V347.903H226.733V360.803H230.208V356.853L231.783 355.253L235.508 360.803H239.808ZM252.989 360.803V347.903H242.639L242.439 355.578C242.389 357.428 241.864 358.253 240.839 358.253C240.464 358.253 240.089 358.178 239.839 358.128V360.953C240.214 361.103 241.264 361.203 241.764 361.203C245.664 361.203 245.814 357.853 245.914 355.178L246.064 350.628H249.464V360.803H252.989ZM267.808 360.803C267.333 359.703 267.358 358.478 267.358 357.303V351.728C267.358 348.128 264.333 347.528 261.733 347.528C258.008 347.528 255.958 349.003 255.758 351.878H259.083C259.333 350.403 260.008 349.903 261.633 349.903C263.208 349.903 263.958 350.453 263.958 351.628C263.958 352.678 263.108 352.878 260.808 353.178C258.258 353.503 255.183 353.903 255.183 357.278C255.183 359.703 256.933 361.178 259.783 361.178C261.333 361.178 262.858 360.653 263.958 359.553C264.008 360.128 264.033 360.328 264.208 360.803H267.808ZM263.933 354.528V355.978C263.933 357.828 262.633 358.853 260.783 358.853C259.558 358.853 258.833 358.203 258.833 357.128C258.833 355.553 260.208 355.403 261.433 355.203C262.333 355.053 263.108 355.003 263.933 354.528ZM282.463 355.828H279.038C278.763 357.528 277.813 358.428 276.288 358.428C274.388 358.428 273.288 356.953 273.288 354.378C273.288 351.728 274.438 350.178 276.363 350.178C277.738 350.178 278.663 350.978 278.913 352.403H282.388C282.088 349.403 279.788 347.528 276.338 347.528C272.338 347.528 269.713 350.278 269.713 354.453C269.713 358.478 272.313 361.128 276.288 361.128C279.713 361.128 282.013 359.178 282.463 355.828ZM296.819 355.828H293.394C293.119 357.528 292.169 358.428 290.644 358.428C288.744 358.428 287.644 356.953 287.644 354.378C287.644 351.728 288.794 350.178 290.719 350.178C292.094 350.178 293.019 350.978 293.269 352.403H296.744C296.444 349.403 294.144 347.528 290.694 347.528C286.694 347.528 284.069 350.278 284.069 354.453C284.069 358.478 286.669 361.128 290.644 361.128C294.069 361.128 296.369 359.178 296.819 355.828ZM311.824 354.353C311.824 350.253 309.199 347.528 305.224 347.528C301.174 347.528 298.499 350.253 298.499 354.353C298.499 358.478 301.149 361.203 305.174 361.203C309.199 361.203 311.824 358.503 311.824 354.353ZM308.274 354.328C308.274 356.978 307.124 358.528 305.174 358.528C303.199 358.528 302.049 357.003 302.049 354.353C302.049 351.778 303.224 350.228 305.124 350.228C307.099 350.228 308.274 351.753 308.274 354.328ZM314.108 347.903V360.803H321.883C324.308 360.803 326.258 359.478 326.258 356.953C326.258 355.178 325.233 354.178 323.908 353.803C324.958 353.328 325.658 352.403 325.658 351.153C325.658 348.853 323.808 347.903 321.533 347.903H314.108ZM317.608 353.078V350.153H319.958C321.058 350.153 322.058 350.353 322.058 351.603C322.058 352.878 321.008 353.078 319.958 353.078H317.608ZM317.608 358.503V355.078H320.083C321.358 355.078 322.583 355.303 322.583 356.803C322.583 358.278 321.458 358.503 320.233 358.503H317.608Z" fill="white"/>
<path d="M102.112 500.764H98.2373C97.9123 503.364 96.5123 504.764 94.1623 504.764C91.2873 504.764 89.4623 502.414 89.4623 498.739C89.4623 495.764 90.7873 492.689 94.2123 492.689C96.3123 492.689 97.7623 493.839 98.1623 495.789H101.987C101.687 492.114 98.5623 489.414 94.2873 489.414C88.8373 489.414 85.5373 493.539 85.5373 498.714C85.5373 504.339 88.9623 508.064 94.1373 508.064C99.0123 508.064 101.712 505.114 102.112 500.764ZM117.318 501.189C117.318 497.089 114.693 494.364 110.718 494.364C106.668 494.364 103.993 497.089 103.993 501.189C103.993 505.314 106.643 508.039 110.668 508.039C114.693 508.039 117.318 505.339 117.318 501.189ZM113.768 501.164C113.768 503.814 112.618 505.364 110.668 505.364C108.693 505.364 107.543 503.839 107.543 501.189C107.543 498.614 108.718 497.064 110.618 497.064C112.593 497.064 113.768 498.589 113.768 501.164ZM132.551 501.339C132.551 497.339 129.926 494.739 126.626 494.739C123.676 494.739 122.151 496.664 121.526 498.389H121.451C121.726 495.864 122.751 493.539 125.976 493.239C128.976 492.964 131.526 492.539 131.976 489.289H128.601C128.251 490.039 126.276 489.889 124.776 490.289C120.051 491.539 119.576 496.264 119.576 500.089C119.576 503.864 121.176 508.014 125.826 508.014C129.976 508.014 132.551 505.389 132.551 501.339ZM129.001 501.314C129.001 503.914 127.876 505.339 126.076 505.339C124.251 505.339 123.126 503.939 123.126 501.339C123.126 498.814 124.276 497.364 126.026 497.364C127.876 497.364 129.001 498.789 129.001 501.314ZM147.234 502.664H143.809C143.534 504.364 142.584 505.264 141.059 505.264C139.159 505.264 138.059 503.789 138.059 501.214C138.059 498.564 139.209 497.014 141.134 497.014C142.509 497.014 143.434 497.814 143.684 499.239H147.159C146.859 496.239 144.559 494.364 141.109 494.364C137.109 494.364 134.484 497.114 134.484 501.289C134.484 505.314 137.084 507.964 141.059 507.964C144.484 507.964 146.784 506.014 147.234 502.664ZM159.775 497.464V494.739H147.75V497.464H152V507.639H155.525V497.464H159.775ZM161.3 494.739V507.639H169.075C171.5 507.639 173.45 506.314 173.45 503.789C173.45 502.014 172.425 501.014 171.1 500.639C172.15 500.164 172.85 499.239 172.85 497.989C172.85 495.689 171 494.739 168.725 494.739H161.3ZM164.8 499.914V496.989H167.15C168.25 496.989 169.25 497.189 169.25 498.439C169.25 499.714 168.2 499.914 167.15 499.914H164.8ZM164.8 505.339V501.914H167.275C168.55 501.914 169.775 502.139 169.775 503.639C169.775 505.114 168.65 505.339 167.425 505.339H164.8ZM187.83 503.639H184.43C183.905 504.939 183.105 505.514 181.805 505.514C179.905 505.514 178.83 504.314 178.78 502.089H188.03V501.739C188.03 497.214 185.555 494.364 181.655 494.364C177.905 494.364 175.18 497.264 175.18 501.264C175.18 505.314 177.805 508.014 181.78 508.014C184.705 508.014 187.03 506.439 187.83 503.639ZM184.43 499.839H178.78C178.98 498.039 180.08 496.939 181.655 496.939C183.43 496.939 184.28 498.264 184.43 499.839ZM202.136 507.639V494.739H198.611V499.414H193.636V494.739H190.111V507.639H193.636V502.214H198.611V507.639H202.136ZM216.955 507.639V494.739H213.43V499.414H208.455V494.739H204.93V507.639H208.455V502.214H213.43V507.639H216.955ZM231.7 507.639C231.225 506.539 231.25 505.314 231.25 504.139V498.564C231.25 494.964 228.225 494.364 225.625 494.364C221.9 494.364 219.85 495.839 219.65 498.714H222.975C223.225 497.239 223.9 496.739 225.525 496.739C227.1 496.739 227.85 497.289 227.85 498.464C227.85 499.514 227 499.714 224.7 500.014C222.15 500.339 219.075 500.739 219.075 504.114C219.075 506.539 220.825 508.014 223.675 508.014C225.225 508.014 226.75 507.489 227.85 506.389C227.9 506.964 227.925 507.164 228.1 507.639H231.7ZM227.825 501.364V502.814C227.825 504.664 226.525 505.689 224.675 505.689C223.45 505.689 222.725 505.039 222.725 503.964C222.725 502.389 224.1 502.239 225.325 502.039C226.225 501.889 227 501.839 227.825 501.364ZM245.63 507.639V494.739H237.83C235.33 494.739 233.555 496.389 233.555 498.664C233.555 500.789 235.005 502.264 236.83 502.564L232.555 507.639H236.905L240.605 502.864H242.105V507.639H245.63ZM242.105 500.314H239.28C237.63 500.314 237.155 499.789 237.155 498.789C237.155 497.814 237.655 497.289 239.28 497.289H242.105V500.314ZM96.7623 522.464V519.739H84.7373V522.464H88.9873V532.639H92.5123V522.464H96.7623ZM110.023 528.639H106.623C106.098 529.939 105.298 530.514 103.998 530.514C102.098 530.514 101.023 529.314 100.973 527.089H110.223V526.739C110.223 522.214 107.748 519.364 103.848 519.364C100.098 519.364 97.3729 522.264 97.3729 526.264C97.3729 530.314 99.9979 533.014 103.973 533.014C106.898 533.014 109.223 531.439 110.023 528.639ZM106.623 524.839H100.973C101.173 523.039 102.273 521.939 103.848 521.939C105.623 521.939 106.473 523.264 106.623 524.839ZM124.553 527.664H121.128C120.853 529.364 119.903 530.264 118.378 530.264C116.478 530.264 115.378 528.789 115.378 526.214C115.378 523.564 116.528 522.014 118.453 522.014C119.828 522.014 120.753 522.814 121.003 524.239H124.478C124.178 521.239 121.878 519.364 118.428 519.364C114.428 519.364 111.803 522.114 111.803 526.289C111.803 530.314 114.403 532.964 118.378 532.964C121.803 532.964 124.103 531.014 124.553 527.664ZM137.094 522.464V519.739H125.069V522.464H129.319V532.639H132.844V522.464H137.094ZM151.18 526.189C151.18 522.089 148.555 519.364 144.58 519.364C140.53 519.364 137.855 522.089 137.855 526.189C137.855 530.314 140.505 533.039 144.53 533.039C148.555 533.039 151.18 530.339 151.18 526.189ZM147.63 526.164C147.63 528.814 146.48 530.364 144.53 530.364C142.555 530.364 141.405 528.839 141.405 526.189C141.405 523.614 142.58 522.064 144.48 522.064C146.455 522.064 147.63 523.589 147.63 526.164ZM153.463 519.739V532.639H161.238C163.663 532.639 165.613 531.314 165.613 528.789C165.613 527.014 164.588 526.014 163.263 525.639C164.313 525.164 165.013 524.239 165.013 522.989C165.013 520.689 163.163 519.739 160.888 519.739H153.463ZM156.963 524.914V521.989H159.313C160.413 521.989 161.413 522.189 161.413 523.439C161.413 524.714 160.363 524.914 159.313 524.914H156.963ZM156.963 530.339V526.914H159.438C160.713 526.914 161.938 527.139 161.938 528.639C161.938 530.114 160.813 530.339 159.588 530.339H156.963ZM179.869 532.639C179.394 531.539 179.419 530.314 179.419 529.139V523.564C179.419 519.964 176.394 519.364 173.794 519.364C170.069 519.364 168.019 520.839 167.819 523.714H171.144C171.394 522.239 172.069 521.739 173.694 521.739C175.269 521.739 176.019 522.289 176.019 523.464C176.019 524.514 175.169 524.714 172.869 525.014C170.319 525.339 167.244 525.739 167.244 529.114C167.244 531.539 168.994 533.014 171.844 533.014C173.394 533.014 174.919 532.489 176.019 531.389C176.069 531.964 176.094 532.164 176.269 532.639H179.869ZM175.994 526.364V527.814C175.994 529.664 174.694 530.689 172.844 530.689C171.619 530.689 170.894 530.039 170.894 528.964C170.894 527.389 172.269 527.239 173.494 527.039C174.394 526.889 175.169 526.839 175.994 526.364ZM193.799 532.639V519.739H185.999C183.499 519.739 181.724 521.389 181.724 523.664C181.724 525.789 183.174 527.264 184.999 527.564L180.724 532.639H185.074L188.774 527.864H190.274V532.639H193.799ZM190.274 525.314H187.449C185.799 525.314 185.324 524.789 185.324 523.789C185.324 522.814 185.824 522.289 187.449 522.289H190.274V525.314ZM97.8373 557.639V544.739H87.4873L87.2873 552.414C87.2373 554.264 86.7123 555.089 85.6873 555.089C85.3123 555.089 84.9373 555.014 84.6873 554.964V557.789C85.0623 557.939 86.1123 558.039 86.6123 558.039C90.5123 558.039 90.6623 554.689 90.7623 552.014L90.9123 547.464H94.3123V557.639H97.8373ZM112.657 557.639C112.182 556.539 112.207 555.314 112.207 554.139V548.564C112.207 544.964 109.182 544.364 106.582 544.364C102.857 544.364 100.807 545.839 100.607 548.714H103.932C104.182 547.239 104.857 546.739 106.482 546.739C108.057 546.739 108.807 547.289 108.807 548.464C108.807 549.514 107.957 549.714 105.657 550.014C103.107 550.339 100.032 550.739 100.032 554.114C100.032 556.539 101.782 558.014 104.632 558.014C106.182 558.014 107.707 557.489 108.807 556.389C108.857 556.964 108.882 557.164 109.057 557.639H112.657ZM108.782 551.364V552.814C108.782 554.664 107.482 555.689 105.632 555.689C104.407 555.689 103.682 555.039 103.682 553.964C103.682 552.389 105.057 552.239 106.282 552.039C107.182 551.889 107.957 551.839 108.782 551.364ZM127.912 551.339C127.912 547.339 125.287 544.739 121.987 544.739C119.037 544.739 117.512 546.664 116.887 548.389H116.812C117.087 545.864 118.112 543.539 121.337 543.239C124.337 542.964 126.887 542.539 127.337 539.289H123.962C123.612 540.039 121.637 539.889 120.137 540.289C115.412 541.539 114.937 546.264 114.937 550.089C114.937 553.864 116.537 558.014 121.187 558.014C125.337 558.014 127.912 555.389 127.912 551.339ZM124.362 551.314C124.362 553.914 123.237 555.339 121.437 555.339C119.612 555.339 118.487 553.939 118.487 551.339C118.487 548.814 119.637 547.364 121.387 547.364C123.237 547.364 124.362 548.789 124.362 551.314ZM143.245 551.189C143.245 547.089 140.62 544.364 136.645 544.364C132.595 544.364 129.92 547.089 129.92 551.189C129.92 555.314 132.57 558.039 136.595 558.039C140.62 558.039 143.245 555.339 143.245 551.189ZM139.695 551.164C139.695 553.814 138.545 555.364 136.595 555.364C134.62 555.364 133.47 553.839 133.47 551.189C133.47 548.614 134.645 547.064 136.545 547.064C138.52 547.064 139.695 548.589 139.695 551.164ZM148.929 544.739H145.579V562.214H149.104V556.039C150.054 557.364 151.454 557.964 153.079 557.964C156.454 557.964 158.679 555.314 158.679 551.264C158.679 547.114 156.404 544.389 152.929 544.389C151.279 544.389 149.879 545.014 148.929 546.339V544.739ZM152.054 547.239C153.954 547.239 155.129 548.739 155.129 551.264C155.129 553.714 153.979 555.189 152.079 555.189C150.129 555.189 148.979 553.714 148.979 551.214C148.979 548.714 150.129 547.239 152.054 547.239ZM172.862 557.639C172.387 556.539 172.412 555.314 172.412 554.139V548.564C172.412 544.964 169.387 544.364 166.787 544.364C163.062 544.364 161.012 545.839 160.812 548.714H164.137C164.387 547.239 165.062 546.739 166.687 546.739C168.262 546.739 169.012 547.289 169.012 548.464C169.012 549.514 168.162 549.714 165.862 550.014C163.312 550.339 160.237 550.739 160.237 554.114C160.237 556.539 161.987 558.014 164.837 558.014C166.387 558.014 167.912 557.489 169.012 556.389C169.062 556.964 169.087 557.164 169.262 557.639H172.862ZM168.987 551.364V552.814C168.987 554.664 167.687 555.689 165.837 555.689C164.612 555.689 163.887 555.039 163.887 553.964C163.887 552.389 165.262 552.239 166.487 552.039C167.387 551.889 168.162 551.839 168.987 551.364ZM186.142 547.464V544.739H174.117V547.464H178.367V557.639H181.892V547.464H186.142ZM200.228 551.189C200.228 547.089 197.603 544.364 193.628 544.364C189.578 544.364 186.903 547.089 186.903 551.189C186.903 555.314 189.553 558.039 193.578 558.039C197.603 558.039 200.228 555.339 200.228 551.189ZM196.678 551.164C196.678 553.814 195.528 555.364 193.578 555.364C191.603 555.364 190.453 553.839 190.453 551.189C190.453 548.614 191.628 547.064 193.528 547.064C195.503 547.064 196.678 548.589 196.678 551.164ZM205.911 544.739H202.561V562.214H206.086V556.039C207.036 557.364 208.436 557.964 210.061 557.964C213.436 557.964 215.661 555.314 215.661 551.264C215.661 547.114 213.386 544.389 209.911 544.389C208.261 544.389 206.861 545.014 205.911 546.339V544.739ZM209.036 547.239C210.936 547.239 212.111 548.739 212.111 551.264C212.111 553.714 210.961 555.189 209.061 555.189C207.111 555.189 205.961 553.714 205.961 551.214C205.961 548.714 207.111 547.239 209.036 547.239ZM229.919 557.639V544.739H225.894L221.294 553.464V544.739H217.894V557.639H221.919L226.519 548.914V557.639H229.919ZM244.238 557.639V544.739H236.438C233.938 544.739 232.163 546.389 232.163 548.664C232.163 550.789 233.613 552.264 235.438 552.564L231.163 557.639H235.513L239.213 552.864H240.713V557.639H244.238ZM240.713 550.314H237.888C236.238 550.314 235.763 549.789 235.763 548.789C235.763 547.814 236.263 547.289 237.888 547.289H240.713V550.314Z" fill="white"/>
<path d="M448.112 276.928H444.237C443.912 279.528 442.512 280.928 440.162 280.928C437.287 280.928 435.462 278.578 435.462 274.903C435.462 271.928 436.787 268.853 440.212 268.853C442.312 268.853 443.762 270.003 444.162 271.953H447.987C447.687 268.278 444.562 265.578 440.287 265.578C434.837 265.578 431.537 269.703 431.537 274.878C431.537 280.503 434.962 284.228 440.137 284.228C445.012 284.228 447.712 281.278 448.112 276.928ZM463.318 277.353C463.318 273.253 460.693 270.528 456.718 270.528C452.668 270.528 449.993 273.253 449.993 277.353C449.993 281.478 452.643 284.203 456.668 284.203C460.693 284.203 463.318 281.503 463.318 277.353ZM459.768 277.328C459.768 279.978 458.618 281.528 456.668 281.528C454.693 281.528 453.543 280.003 453.543 277.353C453.543 274.778 454.718 273.228 456.618 273.228C458.593 273.228 459.768 274.753 459.768 277.328ZM478.551 277.503C478.551 273.503 475.926 270.903 472.626 270.903C469.676 270.903 468.151 272.828 467.526 274.553H467.451C467.726 272.028 468.751 269.703 471.976 269.403C474.976 269.128 477.526 268.703 477.976 265.453H474.601C474.251 266.203 472.276 266.053 470.776 266.453C466.051 267.703 465.576 272.428 465.576 276.253C465.576 280.028 467.176 284.178 471.826 284.178C475.976 284.178 478.551 281.553 478.551 277.503ZM475.001 277.478C475.001 280.078 473.876 281.503 472.076 281.503C470.251 281.503 469.126 280.103 469.126 277.503C469.126 274.978 470.276 273.528 472.026 273.528C473.876 273.528 475.001 274.953 475.001 277.478ZM493.234 278.828H489.809C489.534 280.528 488.584 281.428 487.059 281.428C485.159 281.428 484.059 279.953 484.059 277.378C484.059 274.728 485.209 273.178 487.134 273.178C488.509 273.178 489.434 273.978 489.684 275.403H493.159C492.859 272.403 490.559 270.528 487.109 270.528C483.109 270.528 480.484 273.278 480.484 277.453C480.484 281.478 483.084 284.128 487.059 284.128C490.484 284.128 492.784 282.178 493.234 278.828ZM505.775 273.628V270.903H493.75V273.628H498V283.803H501.525V273.628H505.775ZM507.3 270.903V283.803H515.075C517.5 283.803 519.45 282.478 519.45 279.953C519.45 278.178 518.425 277.178 517.1 276.803C518.15 276.328 518.85 275.403 518.85 274.153C518.85 271.853 517 270.903 514.725 270.903H507.3ZM510.8 276.078V273.153H513.15C514.25 273.153 515.25 273.353 515.25 274.603C515.25 275.878 514.2 276.078 513.15 276.078H510.8ZM510.8 281.503V278.078H513.275C514.55 278.078 515.775 278.303 515.775 279.803C515.775 281.278 514.65 281.503 513.425 281.503H510.8ZM533.83 279.803H530.43C529.905 281.103 529.105 281.678 527.805 281.678C525.905 281.678 524.83 280.478 524.78 278.253H534.03V277.903C534.03 273.378 531.555 270.528 527.655 270.528C523.905 270.528 521.18 273.428 521.18 277.428C521.18 281.478 523.805 284.178 527.78 284.178C530.705 284.178 533.03 282.603 533.83 279.803ZM530.43 276.003H524.78C524.98 274.203 526.08 273.103 527.655 273.103C529.43 273.103 530.28 274.428 530.43 276.003ZM548.136 283.803V270.903H544.611V275.578H539.636V270.903H536.111V283.803H539.636V278.378H544.611V283.803H548.136ZM562.955 283.803V270.903H559.43V275.578H554.455V270.903H550.93V283.803H554.455V278.378H559.43V283.803H562.955ZM578.175 270.903V283.803H581.7V270.903H578.175ZM576.55 279.553C576.55 276.753 574.425 275.328 571.825 275.328H569.025V270.903H565.525V283.803H571.675C574.475 283.803 576.55 282.403 576.55 279.553ZM569.025 277.728H570.8C572.025 277.728 572.975 278.303 572.975 279.553C572.975 280.803 572.125 281.353 570.825 281.353H569.025V277.728ZM596.355 279.803H592.955C592.43 281.103 591.63 281.678 590.33 281.678C588.43 281.678 587.355 280.478 587.305 278.253H596.555V277.903C596.555 273.378 594.08 270.528 590.18 270.528C586.43 270.528 583.705 273.428 583.705 277.428C583.705 281.478 586.33 284.178 590.305 284.178C593.23 284.178 595.555 282.603 596.355 279.803ZM592.955 276.003H587.305C587.505 274.203 588.605 273.103 590.18 273.103C591.955 273.103 592.805 274.428 592.955 276.003ZM445.012 308.803L439.312 300.903L444.312 295.903H440.137L435.412 301.003V295.903H431.937V308.803H435.412V304.853L436.987 303.253L440.712 308.803H445.012ZM458.703 302.353C458.703 298.253 456.078 295.528 452.103 295.528C448.053 295.528 445.378 298.253 445.378 302.353C445.378 306.478 448.028 309.203 452.053 309.203C456.078 309.203 458.703 306.503 458.703 302.353ZM455.153 302.328C455.153 304.978 454.003 306.528 452.053 306.528C450.078 306.528 448.928 305.003 448.928 302.353C448.928 299.778 450.103 298.228 452.003 298.228C453.978 298.228 455.153 299.753 455.153 302.328ZM476.337 308.803V295.903H471.187L468.762 305.278H468.662L466.237 295.903H461.087V308.803H464.437V299.003H464.512L467.037 308.803H470.387L472.912 299.003H472.987V308.803H476.337ZM491.154 308.803V295.903H479.129V308.803H482.654V298.628H487.629V308.803H491.154ZM506.023 304.803H502.623C502.098 306.103 501.298 306.678 499.998 306.678C498.098 306.678 497.023 305.478 496.973 303.253H506.223V302.903C506.223 298.378 503.748 295.528 499.848 295.528C496.098 295.528 493.373 298.428 493.373 302.428C493.373 306.478 495.998 309.178 499.973 309.178C502.898 309.178 505.223 307.603 506.023 304.803ZM502.623 301.003H496.973C497.173 299.203 498.273 298.103 499.848 298.103C501.623 298.103 502.473 299.428 502.623 301.003ZM518.739 298.628V295.903H506.714V298.628H510.964V308.803H514.489V298.628H518.739ZM531.999 304.803H528.599C528.074 306.103 527.274 306.678 525.974 306.678C524.074 306.678 522.999 305.478 522.949 303.253H532.199V302.903C532.199 298.378 529.724 295.528 525.824 295.528C522.074 295.528 519.349 298.428 519.349 302.428C519.349 306.478 521.974 309.178 525.949 309.178C528.874 309.178 531.199 307.603 531.999 304.803ZM528.599 301.003H522.949C523.149 299.203 524.249 298.103 525.824 298.103C527.599 298.103 528.449 299.428 528.599 301.003ZM546.305 308.803V295.903H542.78V300.578H537.805V295.903H534.28V308.803H537.805V303.378H542.78V308.803H546.305ZM562.474 312.603V306.078H560.849V295.903H557.324V306.078H552.549V295.903H549.024V308.803H559.149V312.603H562.474ZM576.188 308.803V295.903H572.163L567.563 304.628V295.903H564.163V308.803H568.188L572.788 300.078V308.803H576.188ZM591.007 308.803V295.903H586.982L582.382 304.628V295.903H578.982V308.803H583.007L587.607 300.078V308.803H591.007ZM443.912 333.803V320.903H431.887V333.803H435.412V323.628H440.387V333.803H443.912ZM459.607 327.353C459.607 323.253 456.982 320.528 453.007 320.528C448.957 320.528 446.282 323.253 446.282 327.353C446.282 331.478 448.932 334.203 452.957 334.203C456.982 334.203 459.607 331.503 459.607 327.353ZM456.057 327.328C456.057 329.978 454.907 331.528 452.957 331.528C450.982 331.528 449.832 330.003 449.832 327.353C449.832 324.778 451.007 323.228 452.907 323.228C454.882 323.228 456.057 324.753 456.057 327.328ZM481.198 328.828H477.773C477.498 330.528 476.548 331.428 475.023 331.428C473.123 331.428 472.023 329.953 472.023 327.378C472.023 324.728 473.173 323.178 475.098 323.178C476.473 323.178 477.398 323.978 477.648 325.403H481.123C480.823 322.403 478.523 320.528 475.073 320.528C471.073 320.528 468.448 323.278 468.448 327.453C468.448 331.478 471.048 334.128 475.023 334.128C478.448 334.128 480.748 332.178 481.198 328.828ZM498.553 333.803V320.903H493.403L490.978 330.278H490.878L488.453 320.903H483.303V333.803H486.653V324.003H486.728L489.253 333.803H492.603L495.128 324.003H495.203V333.803H498.553ZM513.42 329.803H510.02C509.495 331.103 508.695 331.678 507.395 331.678C505.495 331.678 504.42 330.478 504.37 328.253H513.62V327.903C513.62 323.378 511.145 320.528 507.245 320.528C503.495 320.528 500.77 323.428 500.77 327.428C500.77 331.478 503.395 334.178 507.37 334.178C510.295 334.178 512.62 332.603 513.42 329.803ZM510.02 326.003H504.37C504.57 324.203 505.67 323.103 507.245 323.103C509.02 323.103 509.87 324.428 510.02 326.003ZM521.086 328.378L522.461 329.928V333.803H525.811V329.928L527.186 328.378L530.311 333.803H534.486L529.436 325.878L533.911 320.903H529.861L525.811 326.028V320.903H522.461V326.028L518.411 320.903H514.361L518.761 325.803L513.786 333.803H517.961L521.086 328.378ZM547.843 333.803V320.903H544.318V325.578H539.343V320.903H535.818V333.803H539.343V328.378H544.318V333.803H547.843ZM563.062 320.903V333.803H566.587V320.903H563.062ZM561.437 329.553C561.437 326.753 559.312 325.328 556.712 325.328H553.912V320.903H550.412V333.803H556.562C559.362 333.803 561.437 332.403 561.437 329.553ZM553.912 327.728H555.687C556.912 327.728 557.862 328.303 557.862 329.553C557.862 330.803 557.012 331.353 555.712 331.353H553.912V327.728ZM584.418 333.803V320.903H579.268L576.843 330.278H576.743L574.318 320.903H569.168V333.803H572.518V324.003H572.593L575.118 333.803H578.468L580.993 324.003H581.068V333.803H584.418ZM444.137 353.828H440.712C440.437 355.528 439.487 356.428 437.962 356.428C436.062 356.428 434.962 354.953 434.962 352.378C434.962 349.728 436.112 348.178 438.037 348.178C439.412 348.178 440.337 348.978 440.587 350.403H444.062C443.762 347.403 441.462 345.528 438.012 345.528C434.012 345.528 431.387 348.278 431.387 352.453C431.387 356.478 433.987 359.128 437.962 359.128C441.387 359.128 443.687 357.178 444.137 353.828ZM458.268 358.803V345.903H454.243L449.643 354.628V345.903H446.243V358.803H450.268L454.868 350.078V358.803H458.268ZM473.312 353.828H469.887C469.612 355.528 468.662 356.428 467.137 356.428C465.237 356.428 464.137 354.953 464.137 352.378C464.137 349.728 465.287 348.178 467.212 348.178C468.587 348.178 469.512 348.978 469.762 350.403H473.237C472.937 347.403 470.637 345.528 467.187 345.528C463.187 345.528 460.562 348.278 460.562 352.453C460.562 356.478 463.162 359.128 467.137 359.128C470.562 359.128 472.862 357.178 473.312 353.828ZM485.853 348.628V345.903H473.828V348.628H478.078V358.803H481.603V348.628H485.853ZM499.114 354.803H495.714C495.189 356.103 494.389 356.678 493.089 356.678C491.189 356.678 490.114 355.478 490.064 353.253H499.314V352.903C499.314 348.378 496.839 345.528 492.939 345.528C489.189 345.528 486.464 348.428 486.464 352.428C486.464 356.478 489.089 359.178 493.064 359.178C495.989 359.178 498.314 357.603 499.114 354.803ZM495.714 351.003H490.064C490.264 349.203 491.364 348.103 492.939 348.103C494.714 348.103 495.564 349.428 495.714 351.003ZM516.644 358.803V345.903H511.494L509.069 355.278H508.969L506.544 345.903H501.394V358.803H504.744V349.003H504.819L507.344 358.803H510.694L513.219 349.003H513.294V358.803H516.644ZM531.386 358.803C530.911 357.703 530.936 356.478 530.936 355.303V349.728C530.936 346.128 527.911 345.528 525.311 345.528C521.586 345.528 519.536 347.003 519.336 349.878H522.661C522.911 348.403 523.586 347.903 525.211 347.903C526.786 347.903 527.536 348.453 527.536 349.628C527.536 350.678 526.686 350.878 524.386 351.178C521.836 351.503 518.761 351.903 518.761 355.278C518.761 357.703 520.511 359.178 523.361 359.178C524.911 359.178 526.436 358.653 527.536 357.553C527.586 358.128 527.611 358.328 527.786 358.803H531.386ZM527.511 352.528V353.978C527.511 355.828 526.211 356.853 524.361 356.853C523.136 356.853 522.411 356.203 522.411 355.128C522.411 353.553 523.786 353.403 525.011 353.203C525.911 353.053 526.686 353.003 527.511 352.528ZM549.042 358.803V345.903H543.892L541.467 355.278H541.367L538.942 345.903H533.792V358.803H537.142V349.003H537.217L539.742 358.803H543.092L545.617 349.003H545.692V358.803H549.042ZM438.037 365.728H435.087C432.887 368.928 431.812 373.353 431.812 377.178C431.812 380.978 432.987 385.103 435.087 388.253H438.087C436.312 384.703 435.262 381.078 435.262 377.103C435.262 372.803 436.137 369.528 438.037 365.728ZM451.535 378.828H448.11C447.835 380.528 446.885 381.428 445.36 381.428C443.46 381.428 442.36 379.953 442.36 377.378C442.36 374.728 443.51 373.178 445.435 373.178C446.81 373.178 447.735 373.978 447.985 375.403H451.46C451.16 372.403 448.86 370.528 445.41 370.528C441.41 370.528 438.785 373.278 438.785 377.453C438.785 381.478 441.385 384.128 445.36 384.128C448.785 384.128 451.085 382.178 451.535 378.828ZM465.715 379.803H462.315C461.79 381.103 460.99 381.678 459.69 381.678C457.79 381.678 456.715 380.478 456.665 378.253H465.915V377.903C465.915 373.378 463.44 370.528 459.54 370.528C455.79 370.528 453.065 373.428 453.065 377.428C453.065 381.478 455.69 384.178 459.665 384.178C462.59 384.178 464.915 382.603 465.715 379.803ZM462.315 376.003H456.665C456.865 374.203 457.965 373.103 459.54 373.103C461.315 373.103 462.165 374.428 462.315 376.003ZM478.431 373.628V370.903H466.406V373.628H470.656V383.803H474.181V373.628H478.431ZM492.081 383.803V370.903H488.056L483.456 379.628V370.903H480.056V383.803H484.081L488.681 375.078V383.803H492.081ZM498.926 379.903H494.976V383.803H496.751C496.676 385.128 496.151 385.853 494.976 386.203V387.953C497.676 387.528 498.926 385.978 498.926 383.078V379.903ZM525.017 376.928H521.142C520.817 379.528 519.417 380.928 517.067 380.928C514.192 380.928 512.367 378.578 512.367 374.903C512.367 371.928 513.692 368.853 517.117 368.853C519.217 368.853 520.667 370.003 521.067 371.953H524.892C524.592 368.278 521.467 365.578 517.192 365.578C511.742 365.578 508.442 369.703 508.442 374.878C508.442 380.503 511.867 384.228 517.042 384.228C521.917 384.228 524.617 381.278 525.017 376.928ZM541.757 366.003H537.457L533.882 371.728L530.332 366.003H525.782L531.582 374.503L525.307 383.803H529.757L533.707 377.628L537.607 383.803H542.282L536.032 374.503L541.757 366.003ZM561.207 388.378V380.478H559.232V366.003H546.557V368.703C546.557 373.953 545.807 377.678 543.707 380.478H542.357V388.378H546.132V383.803H557.432V388.378H561.207ZM555.332 380.478H548.057C549.632 377.603 550.432 374.353 550.432 369.478V369.178H555.332V380.478ZM581.998 383.803V370.903H577.973L573.373 379.628V370.903H569.973V383.803H573.998L578.598 375.078V383.803H581.998ZM602.626 373.628V370.903H590.601V373.628H594.851V383.803H598.376V373.628H602.626ZM605.908 379.903H601.958V383.803H605.908V379.903ZM622.741 387.603V381.078H621.066V370.903H610.766V373.153C610.766 376.153 609.891 379.603 609.141 381.078H607.591V387.603H610.916V383.803H619.416V387.603H622.741ZM617.541 381.078H612.616C613.216 379.728 614.066 376.578 614.066 373.853V373.528H617.541V381.078ZM628.564 379.903H624.614V383.803H628.564V379.903ZM629.972 365.728C631.822 369.053 632.772 373.003 632.772 376.803C632.772 381.203 631.947 384.278 629.997 388.253H632.972C635.122 385.403 636.247 380.353 636.247 376.853C636.247 372.928 635.072 369.028 632.922 365.728H629.972Z" fill="white"/>
<path d="M448.112 500.928H444.237C443.912 503.528 442.512 504.928 440.162 504.928C437.287 504.928 435.462 502.578 435.462 498.903C435.462 495.928 436.787 492.853 440.212 492.853C442.312 492.853 443.762 494.003 444.162 495.953H447.987C447.687 492.278 444.562 489.578 440.287 489.578C434.837 489.578 431.537 493.703 431.537 498.878C431.537 504.503 434.962 508.228 440.137 508.228C445.012 508.228 447.712 505.278 448.112 500.928ZM462.443 507.803V494.903H450.418V507.803H453.943V497.628H458.918V507.803H462.443ZM477.312 503.803H473.912C473.387 505.103 472.587 505.678 471.287 505.678C469.387 505.678 468.312 504.478 468.262 502.253H477.512V501.903C477.512 497.378 475.037 494.528 471.137 494.528C467.387 494.528 464.662 497.428 464.662 501.428C464.662 505.478 467.287 508.178 471.262 508.178C474.187 508.178 476.512 506.603 477.312 503.803ZM473.912 500.003H468.262C468.462 498.203 469.562 497.103 471.137 497.103C472.912 497.103 473.762 498.428 473.912 500.003ZM492.967 511.603V505.078H491.342V494.903H487.817V505.078H483.042V494.903H479.517V507.803H489.642V511.603H492.967ZM506.681 507.803V494.903H502.656L498.056 503.628V494.903H494.656V507.803H498.681L503.281 499.078V507.803H506.681ZM521.425 507.803C520.95 506.703 520.975 505.478 520.975 504.303V498.728C520.975 495.128 517.95 494.528 515.35 494.528C511.625 494.528 509.575 496.003 509.375 498.878H512.7C512.95 497.403 513.625 496.903 515.25 496.903C516.825 496.903 517.575 497.453 517.575 498.628C517.575 499.678 516.725 499.878 514.425 500.178C511.875 500.503 508.8 500.903 508.8 504.278C508.8 506.703 510.55 508.178 513.4 508.178C514.95 508.178 516.475 507.653 517.575 506.553C517.625 507.128 517.65 507.328 517.825 507.803H521.425ZM517.55 501.528V502.978C517.55 504.828 516.25 505.853 514.4 505.853C513.175 505.853 512.45 505.203 512.45 504.128C512.45 502.553 513.825 502.403 515.05 502.203C515.95 502.053 516.725 502.003 517.55 501.528ZM535.781 507.803V494.903H525.431L525.231 502.578C525.181 504.428 524.656 505.253 523.631 505.253C523.256 505.253 522.881 505.178 522.631 505.128V507.953C523.006 508.103 524.056 508.203 524.556 508.203C528.456 508.203 528.606 504.853 528.706 502.178L528.856 497.628H532.256V507.803H535.781ZM550.675 507.803V494.903H546.65L542.05 503.628V494.903H538.65V507.803H542.675L547.275 499.078V507.803H550.675ZM565.719 502.828H562.294C562.019 504.528 561.069 505.428 559.544 505.428C557.644 505.428 556.544 503.953 556.544 501.378C556.544 498.728 557.694 497.178 559.619 497.178C560.994 497.178 561.919 497.978 562.169 499.403H565.644C565.344 496.403 563.044 494.528 559.594 494.528C555.594 494.528 552.969 497.278 552.969 501.453C552.969 505.478 555.569 508.128 559.544 508.128C562.969 508.128 565.269 506.178 565.719 502.828ZM578.26 497.628V494.903H566.235V497.628H570.485V507.803H574.01V497.628H578.26ZM592.31 494.903V507.803H595.835V494.903H592.31ZM590.685 503.553C590.685 500.753 588.56 499.328 585.96 499.328H583.16V494.903H579.66V507.803H585.81C588.61 507.803 590.685 506.403 590.685 503.553ZM583.16 501.728H584.935C586.16 501.728 587.11 502.303 587.11 503.553C587.11 504.803 586.26 505.353 584.96 505.353H583.16V501.728ZM602.466 503.903H598.516V507.803H600.291C600.216 509.128 599.691 509.853 598.516 510.203V511.953C601.216 511.528 602.466 509.978 602.466 507.078V503.903ZM444.137 527.828H440.712C440.437 529.528 439.487 530.428 437.962 530.428C436.062 530.428 434.962 528.953 434.962 526.378C434.962 523.728 436.112 522.178 438.037 522.178C439.412 522.178 440.337 522.978 440.587 524.403H444.062C443.762 521.403 441.462 519.528 438.012 519.528C434.012 519.528 431.387 522.278 431.387 526.453C431.387 530.478 433.987 533.128 437.962 533.128C441.387 533.128 443.687 531.178 444.137 527.828ZM458.318 528.803H454.918C454.393 530.103 453.593 530.678 452.293 530.678C450.393 530.678 449.318 529.478 449.268 527.253H458.518V526.903C458.518 522.378 456.043 519.528 452.143 519.528C448.393 519.528 445.668 522.428 445.668 526.428C445.668 530.478 448.293 533.178 452.268 533.178C455.193 533.178 457.518 531.603 458.318 528.803ZM454.918 525.003H449.268C449.468 523.203 450.568 522.103 452.143 522.103C453.918 522.103 454.768 523.428 454.918 525.003ZM463.898 519.903H460.548V537.378H464.073V531.203C465.023 532.528 466.423 533.128 468.048 533.128C471.423 533.128 473.648 530.478 473.648 526.428C473.648 522.278 471.373 519.553 467.898 519.553C466.248 519.553 464.848 520.178 463.898 521.503V519.903ZM467.023 522.403C468.923 522.403 470.098 523.903 470.098 526.428C470.098 528.878 468.948 530.353 467.048 530.353C465.098 530.353 463.948 528.878 463.948 526.378C463.948 523.878 465.098 522.403 467.023 522.403ZM486.317 522.628V519.903H474.292V522.628H478.542V532.803H482.067V522.628H486.317ZM499.967 532.803V519.903H495.942L491.342 528.628V519.903H487.942V532.803H491.967L496.567 524.078V532.803H499.967ZM521.611 526.153C521.611 522.078 519.686 519.528 516.611 519.528C515.111 519.528 514.136 520.153 513.761 520.853H513.686V515.003H510.186V520.853H510.111C509.736 520.153 508.761 519.528 507.261 519.528C504.186 519.528 502.261 522.078 502.261 526.153C502.261 529.753 503.586 533.153 507.436 533.153C508.511 533.153 509.611 532.578 510.111 531.953H510.186V537.378H513.686V531.953H513.761C514.261 532.578 515.361 533.153 516.436 533.153C520.286 533.153 521.611 529.753 521.611 526.153ZM518.111 526.228C518.111 528.353 517.586 530.428 515.611 530.428C514.561 530.428 513.811 529.828 513.686 529.178V523.628C514.011 522.603 514.961 522.253 515.711 522.253C517.386 522.253 518.111 523.728 518.111 526.228ZM510.186 529.178C510.061 529.828 509.311 530.428 508.261 530.428C506.286 530.428 505.761 528.353 505.761 526.228C505.761 523.728 506.486 522.253 508.161 522.253C508.911 522.253 509.861 522.603 510.186 523.628V529.178ZM535.929 532.803V519.903H531.904L527.304 528.628V519.903H523.904V532.803H527.929L532.529 524.078V532.803H535.929ZM552.098 536.603V530.078H550.473V519.903H546.948V530.078H542.173V519.903H538.648V532.803H548.773V536.603H552.098ZM565.812 532.803V519.903H561.787L557.187 528.628V519.903H553.787V532.803H557.812L562.412 524.078V532.803H565.812ZM571.906 519.903H568.556V537.378H572.081V531.203C573.031 532.528 574.431 533.128 576.056 533.128C579.431 533.128 581.656 530.478 581.656 526.428C581.656 522.278 579.381 519.553 575.906 519.553C574.256 519.553 572.856 520.178 571.906 521.503V519.903ZM575.031 522.403C576.931 522.403 578.106 523.903 578.106 526.428C578.106 528.878 576.956 530.353 575.056 530.353C573.106 530.353 571.956 528.878 571.956 526.378C571.956 523.878 573.106 522.403 575.031 522.403ZM596.789 526.353C596.789 522.253 594.164 519.528 590.189 519.528C586.139 519.528 583.464 522.253 583.464 526.353C583.464 530.478 586.114 533.203 590.139 533.203C594.164 533.203 596.789 530.503 596.789 526.353ZM593.239 526.328C593.239 528.978 592.089 530.528 590.139 530.528C588.164 530.528 587.014 529.003 587.014 526.353C587.014 523.778 588.189 522.228 590.089 522.228C592.064 522.228 593.239 523.753 593.239 526.328ZM599.072 519.903V532.803H606.847C609.272 532.803 611.222 531.478 611.222 528.953C611.222 527.178 610.197 526.178 608.872 525.803C609.922 525.328 610.622 524.403 610.622 523.153C610.622 520.853 608.772 519.903 606.497 519.903H599.072ZM602.572 525.078V522.153H604.922C606.022 522.153 607.022 522.353 607.022 523.603C607.022 524.878 605.972 525.078 604.922 525.078H602.572ZM602.572 530.503V527.078H605.047C606.322 527.078 607.547 527.303 607.547 528.803C607.547 530.278 606.422 530.503 605.197 530.503H602.572ZM625.478 532.803C625.003 531.703 625.028 530.478 625.028 529.303V523.728C625.028 520.128 622.003 519.528 619.403 519.528C615.678 519.528 613.628 521.003 613.428 523.878H616.753C617.003 522.403 617.678 521.903 619.303 521.903C620.878 521.903 621.628 522.453 621.628 523.628C621.628 524.678 620.778 524.878 618.478 525.178C615.928 525.503 612.853 525.903 612.853 529.278C612.853 531.703 614.603 533.178 617.453 533.178C619.003 533.178 620.528 532.653 621.628 531.553C621.678 532.128 621.703 532.328 621.878 532.803H625.478ZM621.603 526.528V527.978C621.603 529.828 620.303 530.853 618.453 530.853C617.228 530.853 616.503 530.203 616.503 529.128C616.503 527.553 617.878 527.403 619.103 527.203C620.003 527.053 620.778 527.003 621.603 526.528ZM639.908 532.803V519.903H636.383V524.578H631.408V519.903H627.883V532.803H631.408V527.378H636.383V532.803H639.908ZM654.728 532.803V519.903H651.203V524.578H646.228V519.903H642.703V532.803H646.228V527.378H651.203V532.803H654.728ZM669.947 519.903V532.803H673.472V519.903H669.947ZM668.322 528.553C668.322 525.753 666.197 524.328 663.597 524.328H660.797V519.903H657.297V532.803H663.447C666.247 532.803 668.322 531.403 668.322 528.553ZM660.797 526.728H662.572C663.797 526.728 664.747 527.303 664.747 528.553C664.747 529.803 663.897 530.353 662.597 530.353H660.797V526.728ZM688.127 528.803H684.727C684.202 530.103 683.402 530.678 682.102 530.678C680.202 530.678 679.127 529.478 679.077 527.253H688.327V526.903C688.327 522.378 685.852 519.528 681.952 519.528C678.202 519.528 675.477 522.428 675.477 526.428C675.477 530.478 678.102 533.178 682.077 533.178C685.002 533.178 687.327 531.603 688.127 528.803ZM684.727 525.003H679.077C679.277 523.203 680.377 522.103 681.952 522.103C683.727 522.103 684.577 523.428 684.727 525.003ZM443.912 557.803V544.903H431.887V557.803H435.412V547.628H440.387V557.803H443.912ZM459.607 551.353C459.607 547.253 456.982 544.528 453.007 544.528C448.957 544.528 446.282 547.253 446.282 551.353C446.282 555.478 448.932 558.203 452.957 558.203C456.982 558.203 459.607 555.503 459.607 551.353ZM456.057 551.328C456.057 553.978 454.907 555.528 452.957 555.528C450.982 555.528 449.832 554.003 449.832 551.353C449.832 548.778 451.007 547.228 452.907 547.228C454.882 547.228 456.057 548.753 456.057 551.328ZM482.073 557.803L476.373 549.903L481.373 544.903H477.198L472.473 550.003V544.903H468.998V557.803H472.473V553.853L474.048 552.253L477.773 557.803H482.073ZM495.253 557.803V544.903H484.903L484.703 552.578C484.653 554.428 484.128 555.253 483.103 555.253C482.728 555.253 482.353 555.178 482.103 555.128V557.953C482.478 558.103 483.528 558.203 484.028 558.203C487.928 558.203 488.078 554.853 488.178 552.178L488.328 547.628H491.728V557.803H495.253ZM504.123 552.303C504.448 555.903 506.723 558.203 510.373 558.203C514.273 558.203 516.648 555.503 516.648 551.353C516.648 547.253 514.273 544.528 510.423 544.528C506.973 544.528 504.723 546.578 504.198 549.803H501.648V544.903H498.123V557.803H501.648V552.303H504.123ZM513.098 551.328C513.098 553.978 512.123 555.528 510.373 555.528C508.598 555.528 507.623 554.003 507.623 551.353C507.623 548.778 508.598 547.228 510.323 547.228C512.098 547.228 513.098 548.753 513.098 551.328ZM527.071 550.253C526.521 550.403 524.971 550.628 524.121 550.628C522.546 550.628 522.146 549.978 522.146 548.103V544.903H518.621V548.828C518.621 551.578 520.096 553.303 522.946 553.303C524.571 553.303 526.371 552.903 527.071 552.728V557.803H530.596V544.903H527.071V550.253ZM545.452 553.803H542.052C541.527 555.103 540.727 555.678 539.427 555.678C537.527 555.678 536.452 554.478 536.402 552.253H545.652V551.903C545.652 547.378 543.177 544.528 539.277 544.528C535.527 544.528 532.802 547.428 532.802 551.428C532.802 555.478 535.427 558.178 539.402 558.178C542.327 558.178 544.652 556.603 545.452 553.803ZM542.052 550.003H536.402C536.602 548.203 537.702 547.103 539.277 547.103C541.052 547.103 541.902 548.428 542.052 550.003ZM547.632 544.903V557.803H555.407C557.832 557.803 559.782 556.478 559.782 553.953C559.782 552.178 558.757 551.178 557.432 550.803C558.482 550.328 559.182 549.403 559.182 548.153C559.182 545.853 557.332 544.903 555.057 544.903H547.632ZM551.132 550.078V547.153H553.482C554.582 547.153 555.582 547.353 555.582 548.603C555.582 549.878 554.532 550.078 553.482 550.078H551.132ZM551.132 555.503V552.078H553.607C554.882 552.078 556.107 552.303 556.107 553.803C556.107 555.278 554.982 555.503 553.757 555.503H551.132ZM574.513 544.903V557.803H578.038V544.903H574.513ZM572.888 553.553C572.888 550.753 570.763 549.328 568.163 549.328H565.363V544.903H561.863V557.803H568.013C570.813 557.803 572.888 556.403 572.888 553.553ZM565.363 551.728H567.138C568.363 551.728 569.313 552.303 569.313 553.553C569.313 554.803 568.463 555.353 567.163 555.353H565.363V551.728ZM595.868 557.803V544.903H590.718L588.293 554.278H588.193L585.768 544.903H580.618V557.803H583.968V548.003H584.043L586.568 557.803H589.918L592.443 548.003H592.518V557.803H595.868ZM442.762 572.628V569.903H430.737V572.628H434.987V582.803H438.512V572.628H442.762ZM456.023 578.803H452.623C452.098 580.103 451.298 580.678 449.998 580.678C448.098 580.678 447.023 579.478 446.973 577.253H456.223V576.903C456.223 572.378 453.748 569.528 449.848 569.528C446.098 569.528 443.373 572.428 443.373 576.428C443.373 580.478 445.998 583.178 449.973 583.178C452.898 583.178 455.223 581.603 456.023 578.803ZM452.623 575.003H446.973C447.173 573.203 448.273 572.103 449.848 572.103C451.623 572.103 452.473 573.428 452.623 575.003ZM469.389 569.903H465.464L463.189 573.353L460.889 569.903H456.839L461.114 576.003L456.414 582.803H460.439L463.139 578.628L465.864 582.803H469.914L465.139 575.928L469.389 569.903ZM483.317 582.803V569.903H479.792V574.578H474.817V569.903H471.292V582.803H474.817V577.378H479.792V582.803H483.317ZM499.011 576.353C499.011 572.253 496.386 569.528 492.411 569.528C488.361 569.528 485.686 572.253 485.686 576.353C485.686 580.478 488.336 583.203 492.361 583.203C496.386 583.203 499.011 580.503 499.011 576.353ZM495.461 576.328C495.461 578.978 494.311 580.528 492.361 580.528C490.386 580.528 489.236 579.003 489.236 576.353C489.236 573.778 490.411 572.228 492.311 572.228C494.286 572.228 495.461 573.753 495.461 576.328ZM512.905 582.803V569.903H502.555L502.355 577.578C502.305 579.428 501.78 580.253 500.755 580.253C500.38 580.253 500.005 580.178 499.755 580.128V582.953C500.13 583.103 501.18 583.203 501.68 583.203C505.58 583.203 505.73 579.853 505.83 577.178L505.98 572.628H509.38V582.803H512.905ZM528.674 576.353C528.674 572.253 526.049 569.528 522.074 569.528C518.024 569.528 515.349 572.253 515.349 576.353C515.349 580.478 517.999 583.203 522.024 583.203C526.049 583.203 528.674 580.503 528.674 576.353ZM525.124 576.328C525.124 578.978 523.974 580.528 522.024 580.528C520.049 580.528 518.899 579.003 518.899 576.353C518.899 573.778 520.074 572.228 521.974 572.228C523.949 572.228 525.124 573.753 525.124 576.328ZM540.807 572.628V569.903H531.057V582.803H534.582V572.628H540.807ZM554.41 582.803V569.903H550.385L545.785 578.628V569.903H542.385V582.803H546.41L551.01 574.078V582.803H554.41ZM568.73 582.803V569.903H560.93C558.43 569.903 556.655 571.553 556.655 573.828C556.655 575.953 558.105 577.428 559.93 577.728L555.655 582.803H560.005L563.705 578.028H565.205V582.803H568.73ZM565.205 575.478H562.38C560.73 575.478 560.255 574.953 560.255 573.953C560.255 572.978 560.755 572.453 562.38 572.453H565.205V575.478ZM586.81 582.803V569.903H581.66L579.235 579.278H579.135L576.71 569.903H571.56V582.803H574.91V573.003H574.985L577.51 582.803H580.86L583.385 573.003H583.46V582.803H586.81Z" fill="white"/>
<path fill-rule="evenodd" clip-rule="evenodd" d="M8.23047 435.09H379.348V260.384C379.348 257.057 382.045 254.36 385.372 254.36C388.7 254.36 391.397 257.057 391.397 260.384V435.09H763.854C763.224 439.578 762.515 444.04 761.73 448.477H391.397L391.397 763.043C389.615 763.068 387.83 763.08 386.042 763.08C383.806 763.08 381.575 763.061 379.348 763.023L379.348 448.477H10.3544C9.56926 444.04 8.86082 439.578 8.23047 435.09Z" fill="white"/>
</g>
<defs>
<filter id="filter0_d_240_11" x="0.501953" y="0" width="771.08" height="771.08" filterUnits="userSpaceOnUse" color-interpolation-filters="sRGB">
<feFlood flood-opacity="0" result="BackgroundImageFix"/>
<feColorMatrix in="SourceAlpha" type="matrix" values="0 0 0 0 0 0 0 0 0 0 0 0 0 0 0 0 0 0 127 0" result="hardAlpha"/>
<feOffset dy="4"/>
<feGaussianBlur stdDeviation="2"/>
<feComposite in2="hardAlpha" operator="out"/>
<feColorMatrix type="matrix" values="0 0 0 0 0 0 0 0 0 0 0 0 0 0 0 0 0 0 0.25 0"/>
<feBlend mode="normal" in2="BackgroundImageFix" result="effect1_dropShadow_240_11"/>
<feBlend mode="normal" in="SourceGraphic" in2="effect1_dropShadow_240_11" result="shape"/>
</filter>
</defs>
</svg>
