<svg width="34" height="34" viewBox="0 0 34 34" fill="none" xmlns="http://www.w3.org/2000/svg">
<path d="M17.0239 20.3991C16.6882 20.3991 16.36 20.4988 16.0808 20.6856C15.8016 20.8724 15.584 21.1379 15.4555 21.4485C15.3271 21.7591 15.2934 22.1009 15.3589 22.4307C15.4244 22.7604 15.5861 23.0633 15.8235 23.3011C16.061 23.5388 16.3634 23.7007 16.6927 23.7663C17.022 23.8319 17.3634 23.7982 17.6736 23.6695C17.9838 23.5409 18.2489 23.323 18.4354 23.0435C18.622 22.7639 18.7215 22.4352 18.7215 22.099C18.7215 21.6482 18.5427 21.2158 18.2243 20.897C17.906 20.5782 17.4742 20.3991 17.0239 20.3991ZM17.0239 0C14.7946 0 12.5871 0.439699 10.5275 1.29399C8.46783 2.14828 6.5964 3.40044 5.02003 4.97896C1.83639 8.16694 0.0478494 12.4908 0.0478494 16.9992C0.0330086 20.9246 1.3903 24.7314 3.88444 27.7598L0.489227 31.1596C0.253671 31.3987 0.0941026 31.7022 0.030656 32.032C-0.0327906 32.3618 0.00272788 32.703 0.13273 33.0125C0.273729 33.3184 0.502306 33.5754 0.789444 33.751C1.07658 33.9265 1.40933 34.0127 1.74546 33.9985H17.0239C21.5263 33.9985 25.8442 32.2075 29.0278 29.0195C32.2115 25.8316 34 21.5077 34 16.9992C34 12.4908 32.2115 8.16694 29.0278 4.97896C25.8442 1.79099 21.5263 0 17.0239 0ZM17.0239 30.5986H5.83669L7.41547 29.0177C7.57587 28.8603 7.70348 28.6725 7.7909 28.4654C7.87832 28.2582 7.92382 28.0357 7.92475 27.8108C7.91837 27.3624 7.73532 26.9347 7.41547 26.6208C5.19259 24.3974 3.80835 21.471 3.49856 18.3401C3.18878 15.2093 3.97262 12.0678 5.71655 9.45077C7.46047 6.83376 10.0566 4.90319 13.0626 3.98798C16.0686 3.07276 19.2985 3.22953 22.202 4.43156C25.1055 5.63359 27.503 7.80652 28.986 10.5801C30.469 13.3538 30.9458 16.5565 30.3351 19.6426C29.7244 22.7288 28.064 25.5075 25.6368 27.5052C23.2096 29.5029 20.1658 30.5962 17.0239 30.5986ZM17.0239 10.1995C16.5737 10.1995 16.1419 10.3786 15.8235 10.6974C15.5052 11.0162 15.3263 11.4486 15.3263 11.8995V16.9992C15.3263 17.4501 15.5052 17.8825 15.8235 18.2013C16.1419 18.5201 16.5737 18.6992 17.0239 18.6992C17.4742 18.6992 17.906 18.5201 18.2243 18.2013C18.5427 17.8825 18.7215 17.4501 18.7215 16.9992V11.8995C18.7215 11.4486 18.5427 11.0162 18.2243 10.6974C17.906 10.3786 17.4742 10.1995 17.0239 10.1995Z" fill="#2F69FF"/>
</svg>
