<svg width="21" height="22" viewBox="0 0 21 22" fill="none" xmlns="http://www.w3.org/2000/svg">
<path d="M19.2506 0.00749897C18.7866 0.00749897 18.3417 0.200588 18.0136 0.544287C17.6855 0.887987 17.5012 1.35414 17.5012 1.84021V15.7505L2.99864 0.538984C2.66922 0.193879 2.22243 -3.63628e-09 1.75656 0C1.29069 3.63628e-09 0.843904 0.193879 0.514485 0.538984C0.185066 0.88409 3.471e-09 1.35215 0 1.84021C-3.47099e-09 2.32826 0.185066 2.79632 0.514485 3.14143L15.0345 18.3346H1.75656C1.29259 18.3346 0.847624 18.5277 0.519547 18.8714C0.19147 19.2151 0.0071581 19.6812 0.0071581 20.1673C0.0071581 20.6534 0.19147 21.1195 0.519547 21.4632C0.847624 21.8069 1.29259 22 1.75656 22H19.2506C19.4792 21.9971 19.7051 21.9473 19.9154 21.8534C20.3428 21.6674 20.6825 21.3115 20.86 20.8637C20.9497 20.6434 20.9972 20.4068 21 20.1673V1.84021C21 1.35414 20.8157 0.887987 20.4876 0.544287C20.1595 0.200588 19.7146 0.00749897 19.2506 0.00749897Z" fill="#2F69FF"/>
</svg>
