<svg width="32" height="32" viewBox="0 0 32 32" fill="none" xmlns="http://www.w3.org/2000/svg">
<path d="M27.1931 6.48134H22.3955V4.92348C22.3955 4.09714 22.0585 3.30465 21.4587 2.72034C20.8589 2.13602 20.0453 1.80776 19.1971 1.80776H12.8002C12.4684 1.80632 12.1387 1.85898 11.8247 1.96355C11.6235 2.02699 11.4371 2.1287 11.2765 2.26278C11.1159 2.39686 10.9842 2.56064 10.889 2.74465C10.7938 2.92866 10.737 3.12924 10.7219 3.33478C10.7069 3.54031 10.7338 3.74671 10.8012 3.94203C10.9363 4.32789 11.2213 4.64679 11.595 4.83028C11.9688 5.01377 12.4014 5.04723 12.8002 4.92348H19.1971V6.48134H17.0541C16.63 6.48134 16.2232 6.64547 15.9233 6.93763C15.6234 7.22978 15.4549 7.62603 15.4549 8.0392C15.4549 8.45237 15.6234 8.84861 15.9233 9.14077C16.2232 9.43293 16.63 9.59706 17.0541 9.59706H27.1931C27.6172 9.59706 28.024 9.76119 28.3239 10.0533C28.6238 10.3455 28.7923 10.7417 28.7923 11.1549V13.149L24.6823 14.4887C24.4825 14.5538 24.2979 14.6566 24.139 14.7914C23.9801 14.9261 23.8501 15.0902 23.7565 15.274C23.6629 15.4578 23.6075 15.6579 23.5935 15.8627C23.5794 16.0674 23.6071 16.2729 23.6748 16.4672C23.7821 16.7766 23.9865 17.0454 24.2591 17.2355C24.5318 17.4256 24.8588 17.5274 25.1941 17.5266C25.3675 17.5234 25.5397 17.4972 25.7058 17.4487L28.7923 16.4361V21.0317C28.7923 21.4449 28.9608 21.8412 29.2607 22.1333C29.5606 22.4255 29.9674 22.5896 30.3915 22.5896C30.8157 22.5896 31.2224 22.4255 31.5223 22.1333C31.8222 21.8412 31.9907 21.4449 31.9907 21.0317V11.1549C31.9907 9.91541 31.4853 8.72666 30.5855 7.8502C29.6858 6.97373 28.4655 6.48134 27.1931 6.48134ZM2.74119 0.701683C2.59208 0.556431 2.41507 0.44121 2.22025 0.3626C2.02543 0.28399 1.81662 0.24353 1.60575 0.24353C1.39488 0.24353 1.18608 0.28399 0.991258 0.3626C0.796439 0.44121 0.619422 0.556431 0.470314 0.701683C0.169177 0.995034 0 1.3929 0 1.80776C0 2.22262 0.169177 2.62049 0.470314 2.91384L4.19647 6.48134C3.03208 6.62614 1.96259 7.18177 1.19045 8.04304C0.418306 8.90432 -0.00290666 10.0115 0.00654336 11.1549V25.1756C0.00654336 26.4151 0.512006 27.6039 1.41174 28.4804C2.31147 29.3568 3.53176 29.8492 4.80417 29.8492H27.1931C27.4779 29.8421 27.7615 29.8108 28.0407 29.7557L29.2561 30.9553C29.4047 31.1013 29.5816 31.2172 29.7765 31.2963C29.9714 31.3754 30.1804 31.4161 30.3915 31.4161C30.6026 31.4161 30.8117 31.3754 31.0065 31.2963C31.2014 31.2172 31.3783 31.1013 31.527 30.9553C31.6768 30.8105 31.7958 30.6382 31.877 30.4483C31.9582 30.2585 32 30.0549 32 29.8492C32 29.6436 31.9582 29.4399 31.877 29.2501C31.7958 29.0603 31.6768 28.888 31.527 28.7431L2.74119 0.701683ZM3.20496 11.1549C3.20496 10.7417 3.37345 10.3455 3.67336 10.0533C3.97327 9.76119 4.38003 9.59706 4.80417 9.59706H7.34691L13.7437 15.8285H11.4569L3.20496 13.149V11.1549ZM4.80417 26.7335C4.38003 26.7335 3.97327 26.5694 3.67336 26.2772C3.37345 25.9851 3.20496 25.5888 3.20496 25.1756V16.4361L10.6893 18.9442C10.8591 18.9667 11.0312 18.9667 11.201 18.9442H16.9422L24.9382 26.7335H4.80417Z" fill="white"/>
</svg>
