<svg width="32" height="32" viewBox="0 0 32 32" fill="none" xmlns="http://www.w3.org/2000/svg">
<path d="M27.1931 6.41139H22.3955V4.85353C22.3955 4.02719 22.0585 3.2347 21.4587 2.65039C20.8589 2.06608 20.0453 1.73782 19.1971 1.73782H12.8002C12.4684 1.73638 12.1387 1.78903 11.8247 1.8936C11.6235 1.95705 11.4371 2.05875 11.2765 2.19283C11.1159 2.32691 10.9842 2.4907 10.889 2.67471C10.7938 2.85872 10.737 3.0593 10.7219 3.26483C10.7069 3.47036 10.7338 3.67676 10.8012 3.87208C10.9363 4.25795 11.2213 4.57685 11.595 4.76034C11.9688 4.94383 12.4014 4.97728 12.8002 4.85353H19.1971V6.41139H17.0541C16.63 6.41139 16.2232 6.57552 15.9233 6.86768C15.6234 7.15983 15.4549 7.55608 15.4549 7.96925C15.4549 8.38242 15.6234 8.77867 15.9233 9.07082C16.2232 9.36298 16.63 9.52711 17.0541 9.52711H27.1931C27.6172 9.52711 28.024 9.69124 28.3239 9.9834C28.6238 10.2756 28.7923 10.6718 28.7923 11.085V13.079L24.6823 14.4188C24.4825 14.4838 24.2979 14.5867 24.139 14.7214C23.9801 14.8562 23.8501 15.0202 23.7565 15.2041C23.6629 15.3879 23.6075 15.588 23.5935 15.7927C23.5794 15.9975 23.6071 16.2029 23.6748 16.3973C23.7821 16.7067 23.9865 16.9754 24.2591 17.1655C24.5318 17.3556 24.8588 17.4575 25.1941 17.4566C25.3675 17.4535 25.5397 17.4273 25.7058 17.3787L28.7923 16.3661V20.9618C28.7923 21.375 28.9608 21.7712 29.2607 22.0634C29.5606 22.3555 29.9674 22.5196 30.3915 22.5196C30.8157 22.5196 31.2224 22.3555 31.5223 22.0634C31.8222 21.7712 31.9907 21.375 31.9907 20.9618V11.085C31.9907 9.84546 31.4853 8.65672 30.5855 7.78025C29.6858 6.90379 28.4655 6.41139 27.1931 6.41139ZM2.74119 0.631737C2.59208 0.486485 2.41507 0.371264 2.22025 0.292654C2.02543 0.214044 1.81662 0.173584 1.60575 0.173584C1.39488 0.173584 1.18608 0.214044 0.991258 0.292654C0.796439 0.371264 0.619422 0.486485 0.470314 0.631737C0.169177 0.925088 0 1.32296 0 1.73782C0 2.15268 0.169177 2.55055 0.470314 2.8439L4.19647 6.41139C3.03208 6.5562 1.96259 7.11182 1.19045 7.9731C0.418306 8.83437 -0.00290666 9.94152 0.00654336 11.085V25.1057C0.00654336 26.3452 0.512006 27.5339 1.41174 28.4104C2.31147 29.2869 3.53176 29.7793 4.80417 29.7793H27.1931C27.4779 29.7721 27.7615 29.7409 28.0407 29.6858L29.2561 30.8853C29.4047 31.0314 29.5816 31.1473 29.7765 31.2264C29.9714 31.3054 30.1804 31.3462 30.3915 31.3462C30.6026 31.3462 30.8117 31.3054 31.0065 31.2264C31.2014 31.1473 31.3783 31.0314 31.527 30.8853C31.6768 30.7405 31.7958 30.5682 31.877 30.3784C31.9582 30.1885 32 29.9849 32 29.7793C32 29.5736 31.9582 29.37 31.877 29.1802C31.7958 28.9903 31.6768 28.818 31.527 28.6732L2.74119 0.631737ZM3.20496 11.085C3.20496 10.6718 3.37345 10.2756 3.67336 9.9834C3.97327 9.69124 4.38003 9.52711 4.80417 9.52711H7.34691L13.7437 15.7585H11.4569L3.20496 13.079V11.085ZM4.80417 26.6636C4.38003 26.6636 3.97327 26.4994 3.67336 26.2073C3.37345 25.9151 3.20496 25.5189 3.20496 25.1057V16.3661L10.6893 18.8743C10.8591 18.8967 11.0312 18.8967 11.201 18.8743H16.9422L24.9382 26.6636H4.80417Z" fill="#2F69FF"/>
</svg>
