<svg width="36" height="36" viewBox="0 0 36 36" fill="none" xmlns="http://www.w3.org/2000/svg">
<path d="M17.5059 0C14.0447 0 10.6612 1.05568 7.78339 3.03355C4.90553 5.01141 2.66251 7.82263 1.33798 11.1117C0.0134418 14.4008 -0.333116 18.02 0.342125 21.5116C1.01737 25.0033 2.68408 28.2106 5.1315 30.7279C7.57892 33.2453 10.6971 34.9596 14.0918 35.6541C17.4865 36.3487 21.0051 35.9922 24.2028 34.6298C27.4005 33.2674 30.1337 30.9603 32.0566 28.0003C33.9795 25.0402 35.0059 21.5601 35.0059 18C35.0059 15.6362 34.5532 13.2956 33.6738 11.1117C32.7943 8.92783 31.5053 6.94353 29.8802 5.27208C28.2552 3.60062 26.326 2.27475 24.2028 1.37017C22.0796 0.465584 19.804 0 17.5059 0ZM17.5059 32.4C13.7928 32.4 10.2319 30.8829 7.60637 28.1823C4.98086 25.4818 3.50587 21.8191 3.50587 18C3.502 14.802 4.54364 11.6956 6.46337 9.18L26.0809 29.358C23.6352 31.3326 20.615 32.404 17.5059 32.4ZM28.5484 26.82L8.93087 6.642C11.3766 4.66743 14.3967 3.59602 17.5059 3.6C21.2189 3.6 24.7798 5.11714 27.4054 7.81766C30.0309 10.5182 31.5059 14.1809 31.5059 18C31.5097 21.198 30.4681 24.3044 28.5484 26.82Z" fill="white"/>
</svg>
