<svg width="240" height="33" viewBox="0 0 240 33" fill="none" xmlns="http://www.w3.org/2000/svg">
<g clip-path="url(#clip0_22_4239)">
<path d="M237.32 9.09002C236.26 9.09002 235.39 8.23002 235.39 7.17002C235.39 6.11002 236.26 5.24002 237.32 5.24002C238.38 5.24002 239.25 6.11002 239.25 7.17002C239.25 8.23002 238.38 9.09002 237.32 9.09002ZM237.32 4.77002C236 4.77002 234.92 5.85002 234.92 7.17002C234.92 8.49002 236 9.57002 237.32 9.57002C238.64 9.57002 239.72 8.49002 239.72 7.17002C239.72 5.85002 238.64 4.77002 237.32 4.77002Z" fill="white"/>
<path d="M237.48 7.07003L236.97 7.08003L236.96 6.46003H237.47C237.66 6.45003 237.81 6.57003 237.81 6.76003C237.82 6.95003 237.67 7.07003 237.48 7.07003ZM238.31 6.75003C238.3 6.33003 238.01 6.03003 237.54 6.03003L236.47 6.05003L236.5 8.31003H236.99L236.98 7.50003H237.33L237.79 8.30003L238.34 8.29003L237.82 7.43003C238.06 7.37003 238.31 7.15003 238.31 6.75003Z" fill="white"/>
<path d="M51.8337 23.1805H45.8347V9.34653H51.6697C53.2437 9.34653 54.2267 10.3625 54.2267 11.7395C54.2267 13.1165 53.2437 14.0995 51.6697 14.0995H44.9996V18.0995H51.8337C53.6697 18.0995 54.6527 19.2795 54.6527 20.6555C54.6527 22.2295 53.6037 23.1805 51.8337 23.1805ZM55.2097 15.9355C57.2757 15.5095 58.9807 13.6735 58.9807 10.9205C58.9807 8.00253 56.8497 5.34753 52.6857 5.34753H41.1797V27.2125H53.0467C57.2097 27.2125 59.4057 24.5895 59.4057 21.3115C59.4057 18.5575 57.5377 16.2965 55.2097 15.9355Z" fill="white"/>
<path d="M73.0322 15.3453H67.9996V19.4433H71.5572L75.8512 27.2123H81.1942L76.2772 18.8853C78.6382 18.3283 81.0632 16.2633 81.0632 12.3953M81.0632 12.3953C81.0632 8.33029 78.2772 5.34729 73.7202 5.34729H63.4922V27.2123H68.1472V9.44529H73.0322C74.9012 9.44529 76.3102 10.5593 76.3102 12.3953C76.3102 14.2313 74.9012 15.3453 73.0322 15.3453" fill="white"/>
<path d="M116.453 19.4105L119.862 10.0025L123.272 19.4105H116.453ZM116.945 5.34753L108.487 27.2125H113.797L115.174 23.5085H124.55L125.894 27.2125H131.205L122.78 5.34753H116.945Z" fill="white"/>
<path d="M143.85 23.1147H139.883V9.44466H143.85C148.341 9.44466 150.701 12.4277 150.701 16.2967C150.701 20.0007 148.177 23.1147 143.85 23.1147ZM143.85 5.34766H135.228V27.2127H143.85C150.701 27.2127 155.454 22.8857 155.454 16.2967C155.454 9.70766 150.701 5.34766 143.85 5.34766Z" fill="white"/>
<path d="M225.976 5.34314L220.242 14.6131L214.508 5.34314H209.362V27.2121H214.018V12.9191L219.03 20.5411C219.604 21.4121 220.881 21.4121 221.454 20.5411L226.467 12.9191V27.2121H231.123V5.34314H225.976Z" fill="white"/>
<path d="M95.8249 23.3441C91.9539 23.3441 88.8169 20.2061 88.8169 16.3361C88.8169 12.4651 91.9539 9.32711 95.8249 9.32711C99.6949 9.32711 102.833 12.4651 102.833 16.3361C102.833 20.2061 99.6949 23.3441 95.8249 23.3441ZM95.8249 4.80811C89.4579 4.80811 84.2969 9.96911 84.2969 16.3361C84.2969 22.7021 89.4579 27.8631 95.8249 27.8631C102.191 27.8631 107.353 22.7021 107.353 16.3361C107.353 9.96911 102.191 4.80811 95.8249 4.80811Z" fill="white"/>
<path d="M176.403 19.7269C175.208 21.8829 172.911 23.3439 170.271 23.3439C166.401 23.3439 163.263 20.2059 163.263 16.3359C163.263 12.4649 166.401 9.32786 170.271 9.32786C172.889 9.32786 175.168 10.7659 176.371 12.8929L179.641 9.62386C177.549 6.70886 174.133 4.80786 170.271 4.80786C163.904 4.80786 158.744 9.96886 158.744 16.3359C158.744 22.7019 163.904 27.8639 170.271 27.8639C174.154 27.8639 177.587 25.9419 179.675 22.9989L176.403 19.7269Z" fill="white"/>
<path d="M194.544 23.3441C190.673 23.3441 187.536 20.2061 187.536 16.3361C187.536 12.4651 190.673 9.32711 194.544 9.32711C198.414 9.32711 201.552 12.4651 201.552 16.3361C201.552 20.2061 198.414 23.3441 194.544 23.3441ZM194.544 4.80811C188.177 4.80811 183.016 9.96911 183.016 16.3361C183.016 22.7021 188.177 27.8631 194.544 27.8631C200.91 27.8631 206.072 22.7021 206.072 16.3361C206.072 9.96911 200.91 4.80811 194.544 4.80811Z" fill="white"/>
<path d="M16.5195 32.7324C25.4866 32.7324 32.7559 25.4636 32.7559 16.4971C32.7559 7.53053 25.4866 0.261719 16.5195 0.261719C7.55245 0.261719 0.283203 7.53053 0.283203 16.4971C0.283203 25.4636 7.55245 32.7324 16.5195 32.7324Z" fill="#C7C7C7"/>
<path d="M30.825 20.8832C28.968 20.1432 27.268 20.3912 25.564 21.4242C25.564 21.4242 24.943 21.8032 24.757 21.9202C23.963 22.4182 23.214 22.8902 22.494 22.8902C21.807 22.8902 21.131 22.7062 20.845 21.3772C20.399 19.3042 19.311 14.2102 18.836 11.6872C18.557 10.2042 18.404 9.40516 18.245 8.86216C17.965 7.90816 17.453 7.38916 16.726 7.30616C16.726 7.30616 16.612 7.29016 16.519 7.29016C16.427 7.29016 16.301 7.30816 16.301 7.30816C15.581 7.39416 15.072 7.91316 14.794 8.86216C14.635 9.40516 14.482 10.2042 14.203 11.6872C13.728 14.2102 12.64 19.3042 12.194 21.3772C11.908 22.7062 11.232 22.8902 10.545 22.8902C9.82495 22.8902 9.07596 22.4182 8.28196 21.9202C8.09596 21.8032 7.47396 21.4242 7.47396 21.4242C5.77096 20.3912 4.06996 20.1432 2.21396 20.8832C1.81296 21.0432 1.41799 21.2223 1.04199 21.4033C1.29899 22.2093 1.61892 23.0026 1.99192 23.7476C2.40292 23.5456 2.83396 23.3452 3.27396 23.2152C3.90796 23.0282 4.55796 23.0182 5.18796 23.2292C5.79996 23.4342 6.34496 23.7972 6.88796 24.1382C7.91096 24.7812 9.06995 25.5102 10.545 25.5102C12.731 25.5102 14.265 24.2052 14.755 21.9292C15.135 20.1652 15.977 16.2272 16.518 13.5112C16.518 13.5112 17.904 20.1652 18.283 21.9292C18.773 24.2052 20.308 25.5102 22.494 25.5102C23.969 25.5102 25.128 24.7812 26.151 24.1382C26.694 23.7972 27.239 23.4342 27.851 23.2292C28.48 23.0182 29.131 23.0282 29.765 23.2152C30.205 23.3452 30.6353 23.5458 31.0463 23.7478C31.4203 23.0028 31.7394 22.2092 31.9964 21.4032C31.6204 21.2222 31.226 21.0432 30.825 20.8832Z" fill="white"/>
</g>
<defs>
<clipPath id="clip0_22_4239">
<rect width="240" height="33" fill="white"/>
</clipPath>
</defs>
</svg>
