<svg width="36" height="35" viewBox="0 0 36 35" fill="none" xmlns="http://www.w3.org/2000/svg">
<path d="M29.7535 6.99999H22.7504C22.286 6.99999 21.8407 7.18437 21.5124 7.51255C21.1841 7.84074 20.9996 8.28586 20.9996 8.74999C20.9996 9.21412 21.1841 9.65924 21.5124 9.98743C21.8407 10.3156 22.286 10.5 22.7504 10.5H29.7535C30.2178 10.5 30.6632 10.6844 30.9915 11.0126C31.3198 11.3407 31.5043 11.7859 31.5043 12.25V29.26L28.7556 26.7225C28.4327 26.4203 28.0073 26.2515 27.565 26.25H12.2457C11.7814 26.25 11.336 26.0656 11.0077 25.7374C10.6794 25.4092 10.4949 24.9641 10.4949 24.5V22.75C10.4949 22.2859 10.3105 21.8407 9.98213 21.5126C9.65379 21.1844 9.20848 21 8.74414 21C8.27981 21 7.83449 21.1844 7.50615 21.5126C7.17782 21.8407 6.99336 22.2859 6.99336 22.75V24.5C6.99336 25.8924 7.54673 27.2277 8.53174 28.2123C9.51674 29.1969 10.8527 29.75 12.2457 29.75H26.8822L32.1346 34.5275C32.4396 34.8138 32.8371 34.9814 33.2551 35C33.4952 34.9974 33.7327 34.9499 33.9554 34.86C34.2686 34.7234 34.5349 34.4981 34.7215 34.2121C34.9082 33.926 35.007 33.5915 35.0058 33.25V12.25C35.0058 10.8576 34.4525 9.52225 33.4675 8.53768C32.4825 7.55311 31.1465 6.99999 29.7535 6.99999ZM14.9419 14.945C16.3756 13.5155 17.2692 11.6334 17.4704 9.61921C17.6715 7.60506 17.1679 5.5835 16.0451 3.8989C14.9224 2.21431 13.2501 0.970895 11.3131 0.380487C9.37611 -0.20992 7.29423 -0.1108 5.42213 0.660963C3.55004 1.43273 2.00354 2.82939 1.04609 4.61302C0.0886453 6.39666 -0.22052 8.45692 0.171263 10.4428C0.563046 12.4288 1.63154 14.2175 3.19473 15.5043C4.75791 16.7911 6.71908 17.4964 8.74414 17.5C9.89449 17.502 11.034 17.2775 12.0974 16.839C13.1609 16.4006 14.1275 15.757 14.9419 14.945ZM3.4918 8.74999C3.4918 7.3576 4.04517 6.02225 5.03018 5.03768C6.01518 4.05311 7.35113 3.49999 8.74414 3.49999C9.52079 3.50722 10.2862 3.68652 10.9851 4.02499L3.98202 11.025C3.6504 10.3129 3.48288 9.53543 3.4918 8.74999ZM13.4712 6.49249C13.8124 7.19648 13.9918 7.96778 13.9965 8.74999C13.9926 9.63277 13.7661 10.5003 13.3378 11.2724C12.9096 12.0445 12.2935 12.6962 11.5466 13.1672C10.7996 13.6382 9.94586 13.9133 9.06432 13.9671C8.18278 14.0209 7.3019 13.8517 6.50314 13.475L13.4712 6.49249Z" fill="white"/>
</svg>
