<svg width="35" height="35" viewBox="0 0 35 35" fill="none" xmlns="http://www.w3.org/2000/svg">
<path d="M29.7476 6.99999H22.7445C22.2802 6.99999 21.8349 7.18437 21.5065 7.51255C21.1782 7.84074 20.9937 8.28586 20.9937 8.74999C20.9937 9.21412 21.1782 9.65924 21.5065 9.98743C21.8349 10.3156 22.2802 10.5 22.7445 10.5H29.7476C30.212 10.5 30.6573 10.6844 30.9856 11.0126C31.314 11.3407 31.4984 11.7859 31.4984 12.25V29.26L28.7497 26.7225C28.4268 26.4203 28.0015 26.2515 27.5592 26.25H12.2398C11.7755 26.25 11.3302 26.0656 11.0019 25.7374C10.6735 25.4092 10.4891 24.9641 10.4891 24.5V22.75C10.4891 22.2859 10.3046 21.8407 9.97627 21.5126C9.64793 21.1844 9.20262 21 8.73828 21C8.27395 21 7.82863 21.1844 7.50029 21.5126C7.17196 21.8407 6.9875 22.2859 6.9875 22.75V24.5C6.9875 25.8924 7.54087 27.2277 8.52588 28.2123C9.51088 29.1969 10.8468 29.75 12.2398 29.75H26.8764L32.1287 34.5275C32.4337 34.8138 32.8312 34.9814 33.2492 35C33.4893 34.9974 33.7269 34.9499 33.9495 34.86C34.2627 34.7234 34.529 34.4981 34.7157 34.2121C34.9024 33.926 35.0012 33.5915 35 33.25V12.25C35 10.8576 34.4466 9.52225 33.4616 8.53768C32.4766 7.55311 31.1407 6.99999 29.7476 6.99999ZM14.936 14.945C16.3698 13.5155 17.2634 11.6334 17.4645 9.61921C17.6657 7.60506 17.162 5.5835 16.0393 3.8989C14.9166 2.21431 13.2443 0.970895 11.3073 0.380487C9.37025 -0.20992 7.28837 -0.1108 5.41627 0.660963C3.54418 1.43273 1.99768 2.82939 1.04023 4.61302C0.0827859 6.39666 -0.22638 8.45692 0.165403 10.4428C0.557186 12.4288 1.62568 14.2175 3.18887 15.5043C4.75205 16.7911 6.71322 17.4964 8.73828 17.5C9.88863 17.502 11.0281 17.2775 12.0916 16.839C13.155 16.4006 14.1216 15.757 14.936 14.945ZM3.48594 8.74999C3.48594 7.3576 4.03931 6.02225 5.02432 5.03768C6.00932 4.05311 7.34527 3.49999 8.73828 3.49999C9.51493 3.50722 10.2803 3.68652 10.9793 4.02499L3.97616 11.025C3.64455 10.3129 3.47702 9.53543 3.48594 8.74999ZM13.4654 6.49249C13.8065 7.19648 13.986 7.96778 13.9906 8.74999C13.9867 9.63277 13.7602 10.5003 13.332 11.2724C12.9038 12.0445 12.2877 12.6962 11.5407 13.1672C10.7937 13.6382 9.94 13.9133 9.05846 13.9671C8.17692 14.0209 7.29604 13.8517 6.49728 13.475L13.4654 6.49249Z" fill="#2F69FF"/>
</svg>
