<svg width="48" height="45" viewBox="0 0 48 45" fill="none" xmlns="http://www.w3.org/2000/svg">
<path d="M21.8723 16.3182H30.3916C30.9564 16.3182 31.4981 16.1064 31.8976 15.7296C32.297 15.3527 32.5214 14.8415 32.5214 14.3086C32.5214 13.7756 32.297 13.2644 31.8976 12.8875C31.4981 12.5107 30.9564 12.2989 30.3916 12.2989H26.1319V10.2893C26.1319 9.75635 25.9075 9.2452 25.5081 8.86832C25.1087 8.49145 24.567 8.27972 24.0021 8.27972C23.4373 8.27972 22.8955 8.49145 22.4961 8.86832C22.0967 9.2452 21.8723 9.75635 21.8723 10.2893V12.2989C20.1777 12.2989 18.5526 12.9341 17.3543 14.0648C16.1561 15.1954 15.4829 16.7288 15.4829 18.3278C15.4829 19.9267 16.1561 21.4602 17.3543 22.5908C18.5526 23.7214 20.1777 24.3566 21.8723 24.3566H26.1319C26.6968 24.3566 27.2385 24.5683 27.6379 24.9452C28.0373 25.3221 28.2617 25.8333 28.2617 26.3662C28.2617 26.8992 28.0373 27.4104 27.6379 27.7872C27.2385 28.1641 26.6968 28.3758 26.1319 28.3758H17.6127C17.0478 28.3758 16.5061 28.5876 16.1067 28.9644C15.7073 29.3413 15.4829 29.8525 15.4829 30.3855C15.4829 30.9184 15.7073 31.4296 16.1067 31.8065C16.5061 32.1833 17.0478 32.3951 17.6127 32.3951H21.8723V34.4047C21.8723 34.9377 22.0967 35.4488 22.4961 35.8257C22.8955 36.2026 23.4373 36.4143 24.0021 36.4143C24.567 36.4143 25.1087 36.2026 25.5081 35.8257C25.9075 35.4488 26.1319 34.9377 26.1319 34.4047V32.3951C27.8265 32.3951 29.4517 31.7599 30.6499 30.6293C31.8482 29.4986 32.5214 27.9652 32.5214 26.3662C32.5214 24.7673 31.8482 23.2338 30.6499 22.1032C29.4517 20.9726 27.8265 20.3374 26.1319 20.3374H21.8723C21.3075 20.3374 20.7657 20.1257 20.3663 19.7488C19.9669 19.3719 19.7425 18.8608 19.7425 18.3278C19.7425 17.7948 19.9669 17.2836 20.3663 16.9068C20.7657 16.5299 21.3075 16.3182 21.8723 16.3182ZM24.0021 0.241272C19.3685 0.241272 14.839 1.53775 10.9863 3.96676C7.13359 6.39577 4.13077 9.84821 2.35757 13.8875C0.58437 17.9268 0.120419 22.3715 1.02439 26.6596C1.92836 30.9477 4.15965 34.8866 7.4361 37.9781C10.7126 41.0697 14.887 43.175 19.4316 44.028C23.9761 44.8809 28.6867 44.4432 32.9676 42.77C37.2485 41.0969 40.9074 38.2636 43.4817 34.6283C46.056 30.993 47.43 26.7191 47.43 22.347C47.43 16.4842 44.9617 10.8615 40.5681 6.71589C36.1746 2.57026 30.2156 0.241272 24.0021 0.241272ZM24.0021 40.4335C20.211 40.4335 16.505 39.3728 13.3528 37.3854C10.2006 35.398 7.74375 32.5733 6.29294 29.2684C4.84214 25.9635 4.46255 22.3269 5.20216 18.8185C5.94177 15.3101 7.76737 12.0874 10.4481 9.55791C13.1288 7.02847 16.5443 5.3059 20.2626 4.60802C23.9809 3.91015 27.835 4.26832 31.3375 5.63725C34.84 7.00618 37.8337 9.32437 39.94 12.2987C42.0462 15.273 43.1704 18.7698 43.1704 22.347C43.1704 27.1438 41.1509 31.7442 37.5561 35.1361C33.9614 38.528 29.0859 40.4335 24.0021 40.4335Z" fill="white"/>
</svg>
