<svg width="196" height="67" viewBox="0 0 196 67" fill="none" xmlns="http://www.w3.org/2000/svg">
<g clip-path="url(#clip0_22_4252)">
<path d="M67.4436 34.9762C67.4499 32.2567 66.6102 29.6017 65.0387 27.3751C63.4675 25.1485 61.2418 23.459 58.6667 22.5383C58.9011 21.3514 59.0191 20.1447 59.0195 18.9351C59.0219 14.9315 57.7463 11.0302 55.3767 7.79222C53.007 4.55425 49.6652 2.14635 45.8315 0.914749C41.9981 -0.316858 37.87 -0.308741 34.0413 0.937931C30.2126 2.18461 26.8803 4.60563 24.5236 7.85287C22.7848 6.514 20.6544 5.77463 18.4549 5.74685C16.2554 5.71908 14.1067 6.40435 12.3343 7.69885C10.5619 8.99339 9.26229 10.8267 8.63239 12.921C8.00252 15.0153 8.07665 17.2565 8.84356 19.3052C6.26236 20.2401 4.03121 21.9381 2.45016 24.1708C0.869139 26.4035 0.0140939 29.0637 4.51941e-05 31.7937C-0.00711715 34.5226 0.837198 37.1866 2.41675 39.4188C3.99628 41.6513 6.23339 43.3422 8.82004 44.2588C8.59107 45.4453 8.47426 46.6502 8.47116 47.8581C8.46732 51.8571 9.74163 55.754 12.1103 58.9871C14.4791 62.2199 17.8198 64.6217 21.6508 65.8464C25.4819 67.0707 29.6053 67.0548 33.4265 65.8001C37.2477 64.5458 40.5693 62.1178 42.9122 58.8664C44.6461 60.2087 46.7727 60.9523 48.9702 60.985C51.1678 61.0178 53.3159 60.3372 55.0889 59.0471C56.8623 57.7566 58.1638 55.9269 58.7957 53.8355C59.428 51.7437 59.3566 49.5047 58.5922 47.4569C61.1747 46.5236 63.4076 44.826 64.9893 42.5932C66.5714 40.3603 67.4263 37.6992 67.4397 34.9684" fill="white"/>
<path d="M26.515 28.7515L41.2738 35.4476L56.1698 22.4839C56.3842 21.4142 56.4908 20.3259 56.4873 19.2352C56.4865 15.7041 55.3486 12.2659 53.2396 9.4237C51.131 6.58154 48.1624 4.48463 44.7677 3.43982C41.3734 2.395 37.7317 2.45712 34.3754 3.61708C31.0191 4.77706 28.1245 6.97396 26.1151 9.88635L23.6338 22.6397L26.515 28.7515Z" fill="#C9C9C9"/>
<path d="M11.2385 44.2823C11.0209 45.3687 10.9118 46.4738 10.9131 47.5817C10.9132 51.1276 12.057 54.5801 14.1768 57.4322C16.2966 60.2848 19.2806 62.3867 22.691 63.4299C26.1013 64.4731 29.7584 64.4026 33.1255 63.2285C36.4925 62.0548 39.3922 59.8392 41.3989 56.9071L43.8567 44.181L40.5757 37.9485L25.7621 31.2407L11.2385 44.2823Z" fill="#DDDDDD"/>
<path d="M11.1487 18.9041L21.2623 21.2764L23.4771 9.84744C22.1015 8.81092 20.425 8.24508 18.6988 8.23465C16.9724 8.22417 15.2891 8.76971 13.9009 9.78951C12.5128 10.8093 11.4943 12.2485 10.9982 13.8916C10.502 15.5347 10.5548 17.2933 11.1487 18.9041Z" fill="#EFEFEF"/>
<path d="M10.2701 21.2959C8.05103 22.04 6.12051 23.4528 4.74702 25.3378C3.37351 27.2227 2.6253 29.4862 2.60645 31.8133C2.60485 34.0625 3.29219 36.2588 4.57709 38.1103C5.86195 39.962 7.68353 41.3811 9.79967 42.1789L23.9901 29.4333L21.3833 23.9019L10.2701 21.2959Z" fill="#D3D3D3"/>
<path d="M43.9941 56.9071C45.3677 57.9382 47.04 58.5007 48.7613 58.5097C50.4825 58.5186 52.1607 57.9745 53.5448 56.9578C54.9294 55.9411 55.9454 54.5064 56.4421 52.8684C56.9384 51.2308 56.8882 49.4771 56.299 47.8699L46.1933 45.5327L43.9941 56.9071Z" fill="#C1C1C1"/>
<path d="M46.0484 42.8878L57.1734 45.4704C59.3937 44.7283 61.3255 43.3163 62.6994 41.4305C64.0734 39.5452 64.8205 37.2807 64.837 34.953C64.835 32.7086 64.1463 30.5179 62.8625 28.6715C61.5783 26.8251 59.7598 25.4103 57.6477 24.6147L43.0967 37.2746L46.0484 42.8878Z" fill="#C5C5C5"/>
<path d="M94.2992 46.8999L95.6477 46.7635L95.7418 49.4903C92.741 49.9406 89.7132 50.1879 86.6788 50.2304C83.3338 50.2304 80.9634 49.2682 79.5679 47.3439C78.1724 45.4196 77.4758 42.4253 77.4785 38.3613C77.4785 30.2667 80.7164 26.2182 87.1923 26.2156C90.3283 26.2156 92.6674 27.0856 94.2091 28.8255C95.7512 30.5654 96.5246 33.2921 96.5297 37.0057L96.3455 39.6389H81.0104C81.0104 42.1943 81.4758 44.0874 82.406 45.3184C83.3366 46.5493 84.954 47.1648 87.2589 47.1648C89.5694 47.1726 91.9159 47.0841 94.2992 46.8999ZM93.0448 36.881C93.0448 34.0478 92.5889 32.0469 91.6768 30.8783C90.7646 29.7097 89.2777 29.1241 87.2158 29.1215C85.1539 29.1215 83.6043 29.737 82.5667 30.9679C81.5295 32.1988 80.9948 34.1699 80.9634 36.881H93.0448Z" fill="white"/>
<path d="M101.391 50.0474V19.6637H104.876V50.0474H101.391Z" fill="white"/>
<path d="M126.824 33.6479V45.295C126.824 46.4636 129.716 46.4013 129.716 46.4013L129.54 49.463C127.09 49.463 125.063 49.6656 123.848 48.4931C121.217 49.6547 118.366 50.2456 115.487 50.2265C113.352 50.2265 111.725 49.6254 110.606 48.4229C109.488 47.2205 108.93 45.4925 108.933 43.2382C108.933 40.9895 109.506 39.3339 110.654 38.2717C111.801 37.2096 113.597 36.5603 116.044 36.324L123.339 35.6345V33.6479C123.339 32.0897 122.999 30.9653 122.319 30.2745C121.947 29.9272 121.508 29.6585 121.028 29.4844C120.548 29.3104 120.038 29.2346 119.528 29.2617H110.371V26.2117H119.297C121.931 26.2117 123.844 26.8129 125.036 28.0152C126.228 29.2176 126.824 31.0951 126.824 33.6479ZM112.504 43.0668C112.504 45.8999 113.68 47.3167 116.032 47.3167C118.154 47.3143 120.26 46.9548 122.261 46.2532L123.327 45.8832V38.2639L116.463 38.9105C115.067 39.0352 114.06 39.4352 113.441 40.1103C112.821 40.7853 112.509 41.7709 112.504 43.0668Z" fill="white"/>
<path d="M140.43 29.3087C137.051 29.3087 135.362 30.4773 135.362 32.8145C135.362 33.8949 135.754 34.657 136.538 35.1011C137.322 35.5452 139.087 36.0074 141.834 36.4878C144.593 36.9683 146.546 37.6383 147.69 38.4978C148.835 39.3575 149.409 40.9725 149.411 43.3436C149.411 45.7171 148.644 47.4571 147.11 48.5634C145.576 49.6697 143.338 50.224 140.395 50.2267C138.474 50.2267 132.061 49.5178 132.061 49.5178L132.249 46.5184C135.934 46.8689 138.596 47.1299 140.395 47.1299C142.194 47.1299 143.562 46.8456 144.507 46.2768C145.452 45.7081 145.922 44.7538 145.922 43.4138C145.922 42.0738 145.53 41.1661 144.715 40.687C143.9 40.2079 142.143 39.756 139.419 39.3236C136.695 38.8913 134.754 38.2602 133.61 37.4305C132.465 36.6008 131.889 35.0582 131.889 32.8106C131.889 30.563 132.673 28.9153 134.284 27.8246C135.895 26.7339 137.871 26.208 140.254 26.208C142.143 26.208 148.702 26.6871 148.702 26.6871V29.706C145.24 29.5541 142.41 29.3087 140.43 29.3087Z" fill="white"/>
<path d="M166.208 29.6748H158.819V40.7142C158.819 43.3603 159.012 45.0992 159.399 45.9301C159.791 46.7637 160.708 47.1766 162.162 47.1766L166.298 46.9L166.533 49.7631C164.967 50.051 163.381 50.2212 161.79 50.2734C159.375 50.2734 157.702 49.6879 156.772 48.5166C155.842 47.3453 155.378 45.1132 155.381 41.8205V29.6748H152.096V26.6754H155.396V19.6093H158.834V26.6754H166.208V29.6748Z" fill="white"/>
<path d="M171.053 23.7265V19.7065H174.538V23.7265H171.053ZM171.053 50.0474V26.6753H174.538V50.0474H171.053Z" fill="white"/>
<path d="M189.633 26.2117C191.374 26.2855 193.107 26.4716 194.824 26.7687L195.937 26.905L195.8 29.7214C193.978 29.4921 192.147 29.3543 190.312 29.3085C187.677 29.3085 185.889 29.9317 184.945 31.1782C184.002 32.4248 183.529 34.7334 183.526 38.1042C183.526 41.4803 183.968 43.8276 184.851 45.147C185.734 46.4663 187.577 47.1285 190.378 47.1336L195.866 46.7207L196.007 49.5838C193.871 49.9433 191.713 50.1595 189.547 50.2304C185.925 50.2304 183.424 49.306 182.044 47.4569C180.665 45.6078 179.975 42.4915 179.975 38.1081C179.975 33.7219 180.718 30.6433 182.205 28.8722C183.692 27.1011 186.168 26.2143 189.633 26.2117Z" fill="white"/>
</g>
<defs>
<clipPath id="clip0_22_4252">
<rect width="196" height="67" fill="white"/>
</clipPath>
</defs>
</svg>
