<svg id="ae3ddcb4-6dc7-48e8-bd8a-a3945f1cb4a4" data-name="Слой 1" xmlns="http://www.w3.org/2000/svg" viewBox="0 0 573.59 134.88"><title>logo3</title><path d="M210.84,101.7h-.26L192.1,128.47h-3V96.76h3v26.83h.26l18.48-26.83h3v31.71h-3Z" transform="translate(0 0.15)" style="fill:#fff"/><path d="M254.22,128.47V113.59H235.68v14.88h-3V96.76h3v14.11h18.54V96.76h3v31.71Z" transform="translate(0 0.15)" style="fill:#fff"/><path d="M284.6,128.47v-29H274V96.76h24.24v2.72H287.61v29Z" transform="translate(0 0.15)" style="fill:#fff"/><path d="M334.11,128.47H315V96.76h19.14v2.72H318v11.41H333.3v2.68H318v12.17h16.15Z" transform="translate(0 0.15)" style="fill:#fff"/><path d="M352,128.47V96.76h18.5v2.75H355v29Z" transform="translate(0 0.15)" style="fill:#fff"/><path d="M398.83,96.76a10.2,10.2,0,0,1,7.36,2.72,10.43,10.43,0,0,1,0,14.29,10.13,10.13,0,0,1-7.36,2.74h-8.24v12h-3V96.76Zm-8.26,17.07h7.56a8.18,8.18,0,0,0,5.73-1.91,7.78,7.78,0,0,0,0-10.57,8.11,8.11,0,0,0-5.73-1.91h-7.56Z" transform="translate(0 0.15)" style="fill:#fff"/><path d="M441.27,118.75H428l-3.51,9.72h-3.19l11.87-31.71h3L448,128.47h-3.16Zm-12.41-2.59h11.51l-5.69-15.69h-.13Z" transform="translate(0 0.15)" style="fill:#fff"/><path d="M489.71,134.73v-6.26H464.39V96.76h3v29h18.11v-29h3v29h4v9Z" transform="translate(0 0.15)" style="fill:#fff"/><path d="M530.91,101.7h-.26l-18.48,26.77h-3V96.76h3v26.83h.26l18.48-26.83h3v31.71h-3Z" transform="translate(0 0.15)" style="fill:#fff"/><path d="M554.17,128.47h-3.56l9.18-13.1a9.44,9.44,0,0,1-5.58-3.1,8.82,8.82,0,0,1-2.15-6,8.92,8.92,0,0,1,2.81-6.86,10.32,10.32,0,0,1,7.34-2.61h11.23v31.71h-3V115.74h-7.36Zm16.28-29h-7.52a8.51,8.51,0,0,0-5.75,1.78,6.18,6.18,0,0,0-2.07,5,6.29,6.29,0,0,0,2.07,5,8.49,8.49,0,0,0,5.75,1.78h7.52Z" transform="translate(0 0.15)" style="fill:#fff"/><path d="M244.26,81.52V10.31H218.35v8.41A291.36,291.36,0,0,1,217,50c-.86,10.81-2.41,23.85-12.19,29.86-4.46,2.57-8.93,3.08-13.73,3.43L188.67,73c1.72-.34,6-1,8.57-2.41,3.61-1.88,6.35-7,7.74-16,.67-4.45,1.71-12.68,1.71-36.54V-.15h49.76V81.52H244.26" transform="translate(0 0.15)" style="fill:#fff"/><polygon points="404.23 81.67 404.23 43.24 368.87 43.24 368.87 81.67 357.22 81.67 357.22 0 368.87 0 368.87 33.28 404.23 33.28 404.23 0 415.89 0 415.89 81.67 404.23 81.67" style="fill:#fff"/><polygon points="491.56 81.67 491.56 17.16 491.39 17.16 458.45 81.67 444.56 81.67 444.56 0 456.21 0 456.21 64.69 456.56 64.69 489.5 0 503.41 0 503.41 81.67 491.56 81.67" style="fill:#fff"/><polygon points="551.28 9.95 551.28 81.67 539.6 81.67 539.6 9.95 517.3 9.95 517.3 0 573.59 0 573.59 9.95 551.28 9.95" style="fill:#fff"/><path d="M146.1,73a36.38,36.38,0,0,0-29.49,15,108.17,108.17,0,0,0-2.73-10.81A45.42,45.42,0,0,1,146.1,63.84l9.17-.07,0-9.05H146.1a54.47,54.47,0,0,0-35.57,13.17c-1.19-2.92-2.52-5.76-4-8.55A63.55,63.55,0,0,1,146.1,45.6h9.1l.09-9.11H146.1A72.59,72.59,0,0,0,102,51.33c-1.63-2.58-3.33-5.11-5.16-7.54A81.7,81.7,0,0,1,146.1,27.36h9.19V18.26l-9.19,0a90.78,90.78,0,0,0-55,18.5q-3-3.42-6.38-6.58a99.86,99.86,0,0,1,61.42-21l9.19,0V0L146.1,0A109,109,0,0,0,77.7,24.05,108.9,108.9,0,0,0,9.31,0L.11,0V9.14l9.2,0a99.83,99.83,0,0,1,61.41,21c-2.21,2.11-4.35,4.3-6.38,6.58a90.73,90.73,0,0,0-55-18.5l-9.2,0v9.11h9.2A81.7,81.7,0,0,1,58.56,43.79c-1.83,2.43-3.54,5-5.16,7.54A72.61,72.61,0,0,0,9.31,36.48H.11L.2,45.6H9.31A63.52,63.52,0,0,1,48.83,59.34c-1.43,2.79-2.76,5.63-4,8.55A54.44,54.44,0,0,0,9.31,54.72H.11l0,9.05,9.18.07A45.38,45.38,0,0,1,41.52,77.19,108.13,108.13,0,0,0,38.8,88,36.41,36.41,0,0,0,9.31,73L0,73v9.1l9.31,0a27.36,27.36,0,0,1,27.33,27.36l0,18.19,9.13.07V122.8l0-13.37a100.76,100.76,0,0,1,2.72-23.2,45.36,45.36,0,0,1,6.35,23.2l-.09,18.19h9.26l0-11.78,0-6.41A81.82,81.82,0,0,1,68,84.31a63.69,63.69,0,0,1,5.14,25.12v18.19h9.18V109.43a63.52,63.52,0,0,1,5.15-25.12,82.13,82.13,0,0,1,3.93,25.12l0,6.33,0,11.86h9.26l-.09-18.19a45.36,45.36,0,0,1,6.35-23.2,100.22,100.22,0,0,1,2.73,23.2l0,13.43v4.83l9.12-.07,0-18.19A27.37,27.37,0,0,1,146.1,82.07l9.3,0V73ZM95,57.36a71.28,71.28,0,0,0-6.39,7.17,92,92,0,0,0-5.18-8.1,84.84,84.84,0,0,1,6.4-6.74Q92.63,53.41,95,57.36ZM77.7,36.1q3.35,3.12,6.39,6.51-3.36,3.12-6.39,6.56-3-3.44-6.38-6.56Q74.36,39.22,77.7,36.1ZM65.53,49.69a83.07,83.07,0,0,1,6.4,6.74,90.9,90.9,0,0,0-5.17,8.09,73.67,73.67,0,0,0-6.4-7.16Q62.78,53.4,65.53,49.69ZM58.26,85a55,55,0,0,0-6.41-10c1.16-3.18,2.49-6.29,3.95-9.32a63.74,63.74,0,0,1,6.39,8A90.6,90.6,0,0,0,58.26,85Zm19.44-1a73,73,0,0,0-5.17-11,84,84,0,0,1,5.17-9,80.68,80.68,0,0,1,5.17,9A73,73,0,0,0,77.7,84.07Zm19.45,1a90.64,90.64,0,0,0-3.94-11.32,63.74,63.74,0,0,1,6.39-8,98.43,98.43,0,0,1,4,9.33A55.07,55.07,0,0,0,97.15,85Z" transform="translate(0 0.15)" style="fill:#fff"/><path d="M287.71,64.16h34L327,81.52h12.5L313.34,0H296.16L270.91,81.52h11.36ZM304.3,7.47h.24l14.14,46.94H290.53Z" transform="translate(0 0.15)" style="fill:#fff"/></svg>