<svg width="100" height="25" viewBox="0 0 100 25" fill="none" xmlns="http://www.w3.org/2000/svg">
<path fill-rule="evenodd" clip-rule="evenodd" d="M24.3127 6.96191V24.9841H20.771L14.0281 12.8119C14.037 13.1179 14.0455 13.3205 14.0544 13.4197C14.0893 13.726 14.1067 13.9872 14.1067 14.1986V24.9841H10.9141V6.96191H15.3366L21.2246 17.5897C21.1723 17.0627 21.1464 16.6621 21.1464 16.3871V6.96191H24.3127Z" fill="#F9AB03"/>
<path fill-rule="evenodd" clip-rule="evenodd" d="M4.08247 6.96191V24.9966H0V6.96191H4.08247Z" fill="#F9AB03"/>
<path fill-rule="evenodd" clip-rule="evenodd" d="M90.5312 0.417969V4.2804H99.9999V0.417969H90.5312Z" fill="#999B9D"/>
<path fill-rule="evenodd" clip-rule="evenodd" d="M88.6916 14.3039V10.7393V14.3039V21.1817V24.9985V21.1817V14.3039V10.7393V4.07681V0.419434H84.2954V24.9985H88.6916V21.1817V24.9985V21.1817V14.3039V10.7393V14.3039V21.1817V14.3039V10.7393V14.3039Z" fill="#999B9D"/>
<path fill-rule="evenodd" clip-rule="evenodd" d="M64.5347 19.7912H67.6929L73.6732 3.46377V24.9985H78.0643V0.400391H71.2431L66.2119 14.6169L61.095 0.400391H54.2134V24.9985H58.597L58.5926 3.71857L64.5347 19.7912Z" fill="#999B9D"/>
<path fill-rule="evenodd" clip-rule="evenodd" d="M48.0984 24.9986H43.7021V6.96313H48.0984V24.9986Z" fill="#999B9D"/>
<path fill-rule="evenodd" clip-rule="evenodd" d="M37.2476 0.413086V4.27134H48.0992V0.413086H37.2476Z" fill="#999B9D"/>
<path fill-rule="evenodd" clip-rule="evenodd" d="M36.3792 6.96362H31.6592V24.9983H36.3792V6.96362Z" fill="#999B9D"/>
<path fill-rule="evenodd" clip-rule="evenodd" d="M30.7948 4.27134V0.413086H21.1455V4.27134H30.7948Z" fill="#999B9D"/>
<path fill-rule="evenodd" clip-rule="evenodd" d="M18.6215 4.00469H18.0333V1.23635H17.2236V0.730469H19.4305V1.23635H18.6215V4.00469Z" fill="#999B9D"/>
<path fill-rule="evenodd" clip-rule="evenodd" d="M16.2497 2.86749L16.7579 2.92837C16.7254 3.25554 16.6071 3.52581 16.4041 3.73673C16.2019 3.94882 15.9354 4.05487 15.605 4.05524C15.3272 4.05487 15.1016 3.98025 14.9285 3.8298C14.7551 3.67976 14.6218 3.47512 14.528 3.21783C14.4349 2.96058 14.3882 2.67659 14.3882 2.3667C14.3882 1.86748 14.4981 1.46174 14.7178 1.14906C14.9376 0.836007 15.2406 0.679688 15.6247 0.679688C15.927 0.679688 16.1782 0.779445 16.379 0.98017C16.5794 1.1801 16.7057 1.46565 16.7579 1.83839L16.2497 1.89653C16.1559 1.40202 15.9493 1.15534 15.6294 1.15534C15.4246 1.15534 15.2651 1.25747 15.1515 1.46328C15.038 1.66871 14.9811 1.96683 14.9811 2.3565C14.9811 2.75358 15.042 3.05248 15.1636 3.25437C15.2852 3.45706 15.4465 3.5584 15.6477 3.5584C15.8083 3.5584 15.9445 3.49044 16.058 3.35493C16.1705 3.21863 16.2344 3.05644 16.2497 2.86749Z" fill="#999B9D"/>
<path fill-rule="evenodd" clip-rule="evenodd" d="M13.7111 4.00469H11.7339V0.730469H13.691V1.21791H12.2815V2.10522H13.4143V2.58008H12.2815V3.49644H13.7111V4.00469Z" fill="#999B9D"/>
<path fill-rule="evenodd" clip-rule="evenodd" d="M10.7283 0.730469V2.99053C10.7283 3.36601 10.6531 3.63703 10.5023 3.80438C10.3516 3.97131 10.1114 4.05496 9.78098 4.05534C9.59039 4.05496 9.44289 4.03807 9.3374 4.00469V3.52982C9.50389 3.54198 9.62105 3.54905 9.6897 3.54905C9.87223 3.54905 9.99708 3.51175 10.0639 3.43909C10.1311 3.36526 10.1643 3.2156 10.1643 2.99053V0.730469H10.7283Z" fill="#999B9D"/>
<path fill-rule="evenodd" clip-rule="evenodd" d="M7.48945 4.05524C7.08566 4.05487 6.77025 3.89185 6.54499 3.56585C6.32082 3.23906 6.20801 2.83645 6.20801 2.3565C6.20801 1.88005 6.32778 1.48134 6.56652 1.16125C6.80603 0.840333 7.12181 0.679688 7.51426 0.679688C7.90965 0.679688 8.22248 0.840333 8.45176 1.16125C8.68104 1.48134 8.79639 1.88238 8.79639 2.36395C8.79639 2.86945 8.67665 3.27793 8.43862 3.58865C8.19951 3.89971 7.8837 4.05487 7.48945 4.05524ZM7.49419 3.57999C7.69167 3.57999 7.85889 3.49202 7.99541 3.31643C8.13271 3.14009 8.20095 2.82154 8.20095 2.35924C8.20095 1.98334 8.14401 1.68835 8.03119 1.47585C7.91874 1.2618 7.74316 1.15534 7.50549 1.15534C7.03527 1.15534 6.80091 1.56229 6.80091 2.3761C6.80091 2.77085 6.8604 3.07018 6.98054 3.2744C7.09991 3.47829 7.2711 3.57999 7.49419 3.57999Z" fill="#999B9D"/>
<path fill-rule="evenodd" clip-rule="evenodd" d="M5.48224 4.00469H4.90251L4.43011 2.65862H3.65832V4.00469H3.11035V0.730469H4.43011C4.79661 0.730469 5.06678 0.819996 5.23908 0.998331C5.41142 1.17587 5.49722 1.40682 5.49722 1.6904C5.49722 2.10992 5.31502 2.40017 4.94885 2.55807L5.48224 4.00469ZM3.65832 2.1865H4.34066C4.53777 2.1865 4.68527 2.14213 4.78204 2.05178C4.87877 1.963 4.92658 1.83928 4.92658 1.68296C4.92658 1.53842 4.8795 1.42255 4.78457 1.33378C4.68928 1.24463 4.55603 1.20064 4.3852 1.20064H3.65832V2.1865Z" fill="#999B9D"/>
<path fill-rule="evenodd" clip-rule="evenodd" d="M0.557238 4.00469H0.00927734V0.730469H1.2549C1.6105 0.730469 1.87335 0.827483 2.04565 1.01955C2.21688 1.21241 2.30268 1.43982 2.30268 1.70143C2.30268 2.0015 2.20993 2.24385 2.02449 2.42885C1.83868 2.61463 1.60318 2.70694 1.31733 2.70694H0.557238V4.00469ZM0.557238 2.20102H1.20635C1.37538 2.20102 1.50461 2.15587 1.59369 2.06672C1.6835 1.97674 1.72767 1.85775 1.72767 1.70888C1.72767 1.57495 1.68681 1.46025 1.60429 1.36362C1.52143 1.26777 1.3721 1.22024 1.15707 1.22024H0.557238V2.20102Z" fill="#999B9D"/>
<path fill-rule="evenodd" clip-rule="evenodd" d="M34.0178 0C34.6211 0 35.1998 0.245056 35.6265 0.681256C36.0531 1.11746 36.2928 1.70907 36.2928 2.32595C36.2928 2.78598 36.1594 3.23568 35.9094 3.61818C35.6594 4.00068 35.3041 4.29881 34.8884 4.47485C34.4727 4.6509 34.0152 4.69695 33.5739 4.60721C33.1326 4.51746 32.7272 4.29593 32.409 3.97064C32.0909 3.64535 31.8742 3.23091 31.7864 2.77972C31.6986 2.32853 31.7437 1.86086 31.9159 1.43585C32.0881 1.01084 32.3797 0.647572 32.7538 0.391994C33.1279 0.136415 33.5678 0 34.0178 0Z" fill="#F9AB03"/>
<path fill-rule="evenodd" clip-rule="evenodd" d="M90.5312 10.7927V14.6552H99.9999V10.7927H90.5312Z" fill="#999B9D"/>
<path fill-rule="evenodd" clip-rule="evenodd" d="M90.5312 21.1375V24.9999H99.9999V21.1375H90.5312Z" fill="#999B9D"/>
</svg>
