<svg width="124" height="31" viewBox="0 0 124 31" fill="none" xmlns="http://www.w3.org/2000/svg">
<path fill-rule="evenodd" clip-rule="evenodd" d="M30.1481 8.63281V30.9804H25.7563L17.3951 15.8869C17.4062 16.2663 17.4167 16.5175 17.4278 16.6405C17.471 17.0203 17.4926 17.3442 17.4926 17.6063V30.9804H13.5337V8.63281H19.0177L26.3188 21.8113C26.254 21.1579 26.2218 20.6611 26.2218 20.3201V8.63281H30.1481Z" fill="#F9AB03"/>
<path fill-rule="evenodd" clip-rule="evenodd" d="M5.06229 8.63281V30.9959H0V8.63281H5.06229Z" fill="#F9AB03"/>
<path fill-rule="evenodd" clip-rule="evenodd" d="M112.26 0.518311V5.30775H124.001V0.518311H112.26Z" fill="white"/>
<path fill-rule="evenodd" clip-rule="evenodd" d="M109.978 17.737V13.3169V17.737V26.2655V30.9984V26.2655V17.737V13.3169V5.05531V0.520142H104.526V30.9984H109.978V26.2655V30.9984V26.2655V17.737V13.3169V17.737V26.2655V17.737V13.3169V17.737Z" fill="white"/>
<path fill-rule="evenodd" clip-rule="evenodd" d="M80.0241 24.5413H83.9402L91.3559 4.29519V30.9983H96.8008V0.496582H88.3425L82.1038 18.1251L75.7588 0.496582H67.2256V30.9983H72.6613L72.6558 4.61114L80.0241 24.5413Z" fill="white"/>
<path fill-rule="evenodd" clip-rule="evenodd" d="M59.6423 30.9983H54.1909V8.63428H59.6423V30.9983Z" fill="white"/>
<path fill-rule="evenodd" clip-rule="evenodd" d="M46.1875 0.512207V5.29646H59.6436V0.512207H46.1875Z" fill="white"/>
<path fill-rule="evenodd" clip-rule="evenodd" d="M45.1102 8.63489H39.2573V30.998H45.1102V8.63489Z" fill="white"/>
<path fill-rule="evenodd" clip-rule="evenodd" d="M38.1859 5.29646V0.512207H26.2207V5.29646H38.1859Z" fill="white"/>
<path fill-rule="evenodd" clip-rule="evenodd" d="M23.0908 4.96582H22.3615V1.53306H21.3574V0.905762H24.094V1.53306H23.0908V4.96582Z" fill="white"/>
<path fill-rule="evenodd" clip-rule="evenodd" d="M20.1501 3.55566L20.7803 3.63116C20.74 4.03684 20.5933 4.37198 20.3416 4.63352C20.0908 4.89652 19.7603 5.02802 19.3506 5.02848C19.0061 5.02802 18.7264 4.93549 18.5118 4.74893C18.2968 4.56288 18.1315 4.30912 18.0152 3.99009C17.8998 3.6711 17.8418 3.31894 17.8418 2.93467C17.8418 2.31564 17.9781 1.81252 18.2506 1.4248C18.5231 1.03661 18.8988 0.842773 19.3751 0.842773C19.7499 0.842773 20.0614 0.966473 20.3104 1.21537C20.5589 1.46329 20.7155 1.81738 20.7803 2.27957L20.1501 2.35166C20.0338 1.73847 19.7775 1.43259 19.381 1.43259C19.127 1.43259 18.9292 1.55923 18.7884 1.81443C18.6476 2.06916 18.577 2.43883 18.577 2.92203C18.577 3.41442 18.6526 3.78505 18.8033 4.0354C18.9541 4.28673 19.1542 4.4124 19.4036 4.4124C19.6028 4.4124 19.7716 4.32812 19.9124 4.16009C20.0518 3.99108 20.1311 3.78996 20.1501 3.55566Z" fill="white"/>
<path fill-rule="evenodd" clip-rule="evenodd" d="M17.0021 4.96582H14.5503V0.905762H16.9771V1.51019H15.2293V2.61046H16.634V3.19929H15.2293V4.33558H17.0021V4.96582Z" fill="white"/>
<path fill-rule="evenodd" clip-rule="evenodd" d="M13.3034 0.905762V3.70825C13.3034 4.17385 13.2101 4.50992 13.0231 4.71743C12.8362 4.92442 12.5383 5.02815 12.1287 5.02862C11.8923 5.02815 11.7094 5.00721 11.5786 4.96582V4.37698C11.7851 4.39205 11.9303 4.40082 12.0155 4.40082C12.2418 4.40082 12.3966 4.35457 12.4795 4.26447C12.5628 4.17291 12.604 3.98734 12.604 3.70825V0.905762H13.3034Z" fill="white"/>
<path fill-rule="evenodd" clip-rule="evenodd" d="M9.28724 5.02848C8.78654 5.02802 8.39543 4.82587 8.1161 4.42163C7.83813 4.01641 7.69824 3.51717 7.69824 2.92203C7.69824 2.33123 7.84676 1.83683 8.1428 1.43992C8.43979 1.04197 8.83136 0.842773 9.318 0.842773C9.80829 0.842773 10.1962 1.04197 10.4805 1.43992C10.7648 1.83683 10.9079 2.33412 10.9079 2.93126C10.9079 3.55809 10.7594 4.06461 10.4642 4.44991C10.1677 4.83562 9.77611 5.02802 9.28724 5.02848ZM9.29312 4.43917C9.53799 4.43917 9.74535 4.33008 9.91464 4.11235C10.0849 3.89369 10.1695 3.49869 10.1695 2.92543C10.1695 2.45932 10.0989 2.09352 9.959 1.83002C9.81956 1.5646 9.60185 1.43259 9.30713 1.43259C8.72405 1.43259 8.43345 1.9372 8.43345 2.94634C8.43345 3.43583 8.50721 3.807 8.65618 4.06023C8.8042 4.31305 9.01648 4.43917 9.29312 4.43917Z" fill="white"/>
<path fill-rule="evenodd" clip-rule="evenodd" d="M6.7976 4.96582H6.07873L5.49296 3.29668H4.53593V4.96582H3.85645V0.905762H5.49296C5.94742 0.905762 6.28243 1.01678 6.49608 1.23791C6.70978 1.45807 6.81617 1.74444 6.81617 2.09609C6.81617 2.61629 6.59025 2.9762 6.1362 3.172L6.7976 4.96582ZM4.53593 2.71125H5.38204C5.62646 2.71125 5.80935 2.65623 5.92934 2.54419C6.04929 2.43411 6.10858 2.28069 6.10858 2.08685C6.10858 1.90762 6.0502 1.76394 5.93249 1.65387C5.81432 1.54332 5.6491 1.48877 5.43727 1.48877H4.53593V2.71125Z" fill="white"/>
<path fill-rule="evenodd" clip-rule="evenodd" d="M0.691194 4.96582H0.0117188V0.905762H1.5563C1.99725 0.905762 2.32318 1.02606 2.53683 1.26423C2.74916 1.50338 2.85556 1.78536 2.85556 2.10976C2.85556 2.48185 2.74054 2.78237 2.51059 3.01176C2.28019 3.24214 1.98817 3.3566 1.63371 3.3566H0.691194V4.96582ZM0.691194 2.72926H1.4961C1.70569 2.72926 1.86594 2.67326 1.9764 2.56272C2.08776 2.45115 2.14253 2.3036 2.14253 2.119C2.14253 1.95293 2.09187 1.8107 1.98954 1.69087C1.8868 1.57202 1.70163 1.51309 1.43499 1.51309H0.691194V2.72926Z" fill="white"/>
<path fill-rule="evenodd" clip-rule="evenodd" d="M42.1824 0C42.9306 0 43.6482 0.303871 44.1773 0.844762C44.7063 1.38565 45.0036 2.11926 45.0036 2.88419C45.0036 3.45463 44.8381 4.01226 44.5281 4.48657C44.2181 4.96087 43.7775 5.33055 43.262 5.54884C42.7465 5.76714 42.1793 5.82425 41.6321 5.71296C41.0848 5.60168 40.5821 5.32698 40.1876 4.92362C39.7931 4.52026 39.5244 4.00635 39.4155 3.44687C39.3067 2.88739 39.3626 2.30748 39.5761 1.78046C39.7896 1.25345 40.1512 0.802994 40.6151 0.486075C41.079 0.169156 41.6245 0 42.1824 0Z" fill="#F9AB03"/>
<path fill-rule="evenodd" clip-rule="evenodd" d="M112.26 13.3831V18.1725H124.001V13.3831H112.26Z" fill="white"/>
<path fill-rule="evenodd" clip-rule="evenodd" d="M112.26 26.2104V30.9999H124.001V26.2104H112.26Z" fill="white"/>
</svg>
