<svg width="214" height="36" viewBox="0 0 214 36" fill="none" xmlns="http://www.w3.org/2000/svg">
<g clip-path="url(#clip0_3_3911)">
<path d="M38.5739 21.7915C41.4972 21.7915 43.8696 24.1795 43.8696 27.1285C43.8696 30.0776 41.5001 32.4656 38.5739 32.4656C35.6478 32.4656 33.2783 30.0776 33.2783 27.1285C33.2783 24.1795 35.6507 21.7915 38.5739 21.7915ZM24.0772 30.1774L34.925 11.0441C36.0646 9.03205 35.3534 6.46488 33.3337 5.34578C31.3401 4.23843 28.8249 5.0638 27.6941 7.05233L16.9862 25.9419C15.8962 27.8629 16.3946 30.3654 18.2278 31.5814C18.9331 32.0485 19.72 32.2688 20.4953 32.2688C21.9263 32.2688 23.3165 31.5168 24.0772 30.1774ZM7.66561 30.1774L18.5134 11.0441C19.653 9.03205 18.9418 6.46488 16.9221 5.34578C14.9286 4.23843 12.4133 5.0638 11.2825 7.05233L0.571701 25.9419C-0.518324 27.8629 -0.0199435 30.3654 1.81328 31.5814C2.51859 32.0485 3.30551 32.2688 4.08077 32.2688C5.51179 32.2688 6.90492 31.5168 7.66561 30.1774Z" fill="#B1B1B1"/>
<path fill-rule="evenodd" clip-rule="evenodd" d="M160.43 0V28.4768H162.365V0H160.43ZM78.4476 8C80.6393 8 82.4084 8.71669 83.752 10.1442C85.0926 11.5747 85.7659 13.4986 85.7659 15.9189V28.0116H81.5865V16.192C81.5865 14.8409 81.2513 13.7923 80.581 13.0521C79.9106 12.3119 78.9926 11.9389 77.8326 11.9389C76.5415 11.9389 75.5156 12.3677 74.7549 13.2254C73.9942 14.0831 73.6124 15.3696 73.6124 17.0879V28.0116H69.433V16.192C69.433 14.8409 69.1182 13.7923 68.4858 13.0521C67.8533 12.3119 66.9557 11.9389 65.7957 11.9389C64.5308 11.9389 63.4991 12.3736 62.7005 13.246C61.899 14.1183 61.4997 15.399 61.4997 17.0879V28.0116H57.3203V8.50815H61.4997V10.8491C62.7384 8.95167 64.5833 8 67.0344 8C69.5117 8 71.3449 9.02804 72.5311 11.0812C73.8135 9.02804 75.7895 8 78.4476 8ZM99.3883 28.9851C96.5496 28.9851 94.1364 27.9981 92.1516 26.0214C90.1639 24.0446 89.17 21.6125 89.17 18.7281C89.17 15.8437 90.1639 13.4087 92.1516 11.432C94.1393 9.45518 96.5496 8.46826 99.3883 8.46826C102.253 8.46826 104.672 9.45812 106.645 11.432C108.619 13.4087 109.607 15.8408 109.607 18.7281C109.607 21.6155 108.619 24.0475 106.645 26.0214C104.672 27.9952 102.253 28.9851 99.3883 28.9851ZM95.0894 23.134C96.2494 24.3031 97.6833 24.8905 99.3854 24.8905C101.087 24.8905 102.521 24.306 103.681 23.134C104.841 21.965 105.424 20.4934 105.424 18.7252C105.424 16.957 104.844 15.4883 103.681 14.3164C102.518 13.1444 101.087 12.5599 99.3854 12.5599C97.6833 12.5599 96.2494 13.1444 95.0894 14.3164C93.9294 15.4854 93.3465 16.957 93.3465 18.7252C93.3494 20.4934 93.9294 21.9621 95.0894 23.134ZM128.959 10.6095C127.592 9.18202 125.796 8.46533 123.578 8.46533C120.845 8.46533 118.842 9.46694 117.58 11.4702V8.97348H113.401V28.4769H117.58V18.0232C117.58 16.1257 118.032 14.7129 118.936 13.7906C119.839 12.8683 121.025 12.4071 122.497 12.4071C123.838 12.4071 124.899 12.7978 125.671 13.5762C126.443 14.3546 126.831 15.4736 126.831 16.9305V28.474H131.01V16.4988C131.01 14.0021 130.326 12.04 128.959 10.6095ZM150.829 8.50814H155.008V35.8159H150.829V25.2417C149.255 27.4271 146.996 28.5197 144.056 28.5197C141.397 28.5197 139.127 27.5328 137.244 25.556C135.362 23.5793 134.417 21.1472 134.417 18.2628C134.417 15.4019 135.359 12.9757 137.244 10.9872C139.127 8.99866 141.397 8.00293 144.056 8.00293C146.996 8.00293 149.255 9.10734 150.829 11.3191V8.50814ZM140.34 22.7274C141.499 23.9112 142.96 24.5016 144.714 24.5016C146.469 24.5016 147.926 23.9112 149.089 22.7274C150.249 21.5437 150.832 20.0545 150.832 18.2599C150.832 16.4652 150.252 14.976 149.089 13.7923C147.929 12.6086 146.469 12.0182 144.714 12.0182C142.96 12.0182 141.502 12.6115 140.34 13.7923C139.18 14.976 138.597 16.4652 138.597 18.2599C138.597 20.0545 139.177 21.5437 140.34 22.7274ZM185.355 8.97329H187.328V28.4767H185.355V24.0679C184.53 25.5776 183.393 26.7584 181.948 27.619C180.502 28.4767 178.864 28.9056 177.031 28.9056C174.271 28.9056 171.907 27.9245 169.949 25.9595C167.987 23.9974 167.008 21.583 167.008 18.7221C167.008 15.8612 167.987 13.4497 169.949 11.4846C171.91 9.52256 174.271 8.53857 177.031 8.53857C178.864 8.53857 180.502 8.96741 181.948 9.8251C183.393 10.6828 184.527 11.8665 185.355 13.3762V8.97329ZM171.362 24.6142C172.948 26.2268 174.892 27.0316 177.188 27.0316C179.485 27.0316 181.42 26.2268 182.994 24.6142C184.568 23.0017 185.355 21.0396 185.355 18.725C185.355 16.4104 184.568 14.4484 182.994 12.8358C181.42 11.2232 179.485 10.4184 177.188 10.4184C174.892 10.4184 172.95 11.2262 171.362 12.8358C169.774 14.4484 168.981 16.4104 168.981 18.725C168.984 21.0396 169.777 23.0017 171.362 24.6142ZM210.649 11.4905C208.7 9.52547 206.333 8.54442 203.547 8.54442C201.716 8.54442 200.07 8.98501 198.612 9.86913C197.155 10.7532 196.024 11.9634 195.226 13.4966V1.16895H193.291V28.4826H195.226V23.9562C196.024 25.4895 197.155 26.6997 198.612 27.5838C200.07 28.4708 201.713 28.9114 203.547 28.9114C206.333 28.9114 208.7 27.9304 210.649 25.9653C212.599 24.0003 213.573 21.5888 213.573 18.7279C213.573 15.867 212.596 13.4555 210.649 11.4905ZM203.433 27.0316C201.136 27.0316 199.195 26.2268 197.607 24.6142C196.019 23.0016 195.226 21.0395 195.226 18.725C195.226 16.4104 196.021 14.4483 197.607 12.8358C199.195 11.2261 201.136 10.4184 203.433 10.4184C205.73 10.4184 207.671 11.2232 209.259 12.8358C210.848 14.4483 211.64 16.4104 211.64 18.725C211.64 21.0395 210.845 23.0016 209.259 24.6142C207.671 26.2268 205.73 27.0316 203.433 27.0316Z" fill="#B1B1B1"/>
</g>
<defs>
<clipPath id="clip0_3_3911">
<rect width="214" height="36" fill="white"/>
</clipPath>
</defs>
</svg>
