<svg width="28" height="22" viewBox="0 0 28 22" fill="none" xmlns="http://www.w3.org/2000/svg">
<path d="M23.5593 0.262695H4.81699C2.60004 0.262695 0.800781 2.02067 0.800781 4.18675V17.2669C0.800781 19.433 2.60004 21.191 4.81699 21.191H23.5593C25.7763 21.191 27.5755 19.433 27.5755 17.2669V4.18675C27.5755 2.02067 25.7763 0.262695 23.5593 0.262695ZM23.0104 2.87873L15.1387 10.5699C14.6192 11.0826 13.7705 11.0852 13.2457 10.5777C13.243 10.5751 13.2403 10.5725 13.2377 10.5699L5.36588 2.87873H23.0104ZM24.8981 17.2669C24.8981 17.989 24.2983 18.5749 23.5593 18.5749H4.81699C4.07801 18.5749 3.47826 17.989 3.47826 17.2669V4.72304L11.35 12.4142C12.919 13.9446 15.4573 13.9446 17.0263 12.4142L24.8981 4.72304V17.2669Z" fill="#2F69FF"/>
</svg>
