<svg width="406" height="530" viewBox="0 0 406 530" fill="none" xmlns="http://www.w3.org/2000/svg">
<g filter="url(#filter0_d_344_16)">
<circle cx="200.032" cy="325.968" r="194.032" stroke="#2F69FF" stroke-width="4"/>
<circle cx="256.769" cy="139.887" r="13.8866" fill="#2F69FF"/>
<circle cx="339.296" cy="190.672" r="13.8866" fill="#2F69FF"/>
<circle cx="387.7" cy="372.389" r="13.8866" fill="#2F69FF"/>
<circle cx="386.113" cy="275.579" r="13.8866" fill="#2F69FF"/>
<circle cx="342.47" cy="458.089" r="13.8866" fill="#2F69FF"/>
<path d="M258.737 132.555H256.397C255.997 134.595 254.637 135.355 252.677 135.355H252.317V137.455H255.717V146.555H258.737V132.555Z" fill="white"/>
<path d="M343.904 194.086H337.284C338.084 192.886 339.724 191.946 340.924 191.126C342.584 189.986 343.824 188.986 343.824 186.726C343.824 184.186 341.884 182.446 339.064 182.446C335.944 182.446 333.964 184.466 333.964 187.646V187.946H336.684C336.764 185.886 337.484 184.906 338.964 184.906C340.164 184.906 340.964 185.706 340.964 186.926C340.964 188.646 339.184 189.546 337.944 190.386C335.424 192.086 333.704 193.306 333.644 196.546H343.904V194.086Z" fill="white"/>
<path d="M381.595 272.827H384.295C384.335 271.267 385.095 270.427 386.415 270.427C387.575 270.427 388.355 271.127 388.355 272.187C388.355 273.367 387.555 273.947 385.915 273.947C385.735 273.947 385.655 273.947 385.435 273.927V275.927C385.715 275.907 385.835 275.907 386.135 275.907C387.475 275.907 388.675 276.427 388.675 277.987C388.675 279.247 387.755 280.107 386.355 280.107C384.835 280.107 383.995 279.147 383.975 277.427H381.235V277.627C381.235 280.627 383.235 282.507 386.415 282.507C389.475 282.507 391.615 280.627 391.615 277.967C391.615 276.327 390.695 275.127 389.135 274.747C390.335 274.427 391.095 273.347 391.095 271.987C391.095 269.707 389.195 268.147 386.435 268.147C383.475 268.147 381.695 269.947 381.595 272.827Z" fill="white"/>
<path d="M392.529 373.477H390.649V365.017H388.089L382.009 373.217V375.837H388.009V379.057H390.649V375.837H392.529V373.477ZM388.009 373.477H384.289L388.009 368.277V373.477Z" fill="white"/>
<path d="M346.359 450.877H338.539L337.179 458.577H339.719C340.259 457.757 340.879 457.417 341.819 457.417C343.299 457.417 344.259 458.417 344.259 459.997C344.259 461.577 343.259 462.677 341.839 462.677C340.579 462.677 339.659 461.837 339.539 460.617H336.739C336.899 463.477 338.999 464.977 341.839 464.977C344.919 464.977 347.119 462.877 347.119 459.937C347.119 457.177 345.339 455.357 342.659 455.357C341.539 455.357 340.759 455.657 340.079 456.337L340.619 453.297H346.359V450.877Z" fill="white"/>
</g>
<g filter="url(#filter1_d_344_16)">
<path d="M194 131.5V0" stroke="#2F69FF" stroke-width="4"/>
</g>
<defs>
<filter id="filter0_d_344_16" x="0" y="126" width="405.587" height="404" filterUnits="userSpaceOnUse" color-interpolation-filters="sRGB">
<feFlood flood-opacity="0" result="BackgroundImageFix"/>
<feColorMatrix in="SourceAlpha" type="matrix" values="0 0 0 0 0 0 0 0 0 0 0 0 0 0 0 0 0 0 127 0" result="hardAlpha"/>
<feOffset dy="4"/>
<feGaussianBlur stdDeviation="2"/>
<feComposite in2="hardAlpha" operator="out"/>
<feColorMatrix type="matrix" values="0 0 0 0 0 0 0 0 0 0 0 0 0 0 0 0 0 0 0.25 0"/>
<feBlend mode="normal" in2="BackgroundImageFix" result="effect1_dropShadow_344_16"/>
<feBlend mode="normal" in="SourceGraphic" in2="effect1_dropShadow_344_16" result="shape"/>
</filter>
<filter id="filter1_d_344_16" x="188" y="0" width="12" height="139.5" filterUnits="userSpaceOnUse" color-interpolation-filters="sRGB">
<feFlood flood-opacity="0" result="BackgroundImageFix"/>
<feColorMatrix in="SourceAlpha" type="matrix" values="0 0 0 0 0 0 0 0 0 0 0 0 0 0 0 0 0 0 127 0" result="hardAlpha"/>
<feOffset dy="4"/>
<feGaussianBlur stdDeviation="2"/>
<feComposite in2="hardAlpha" operator="out"/>
<feColorMatrix type="matrix" values="0 0 0 0 0 0 0 0 0 0 0 0 0 0 0 0 0 0 0.25 0"/>
<feBlend mode="normal" in2="BackgroundImageFix" result="effect1_dropShadow_344_16"/>
<feBlend mode="normal" in="SourceGraphic" in2="effect1_dropShadow_344_16" result="shape"/>
</filter>
</defs>
</svg>
