<svg width="20" height="20" viewBox="0 0 20 20" fill="none" xmlns="http://www.w3.org/2000/svg">
<path d="M19.3902 17.5803L17.4852 19.4852C17.4852 19.4852 12.5355 21.6065 5.46437 14.5355C-1.6067 7.46444 0.514619 2.51469 0.514619 2.51469L2.41955 0.609759C3.28017 -0.250861 4.70351 -0.149711 5.43377 0.823969L7.25204 3.24834C7.84922 4.04458 7.77004 5.15877 7.06625 5.86255L5.46437 7.46444C5.46437 7.46444 5.46437 8.87863 8.29276 11.707C11.1213 14.5355 12.5355 14.5355 12.5355 14.5355L14.1374 12.9336C14.8411 12.2298 15.9553 12.1506 16.7516 12.7478L19.1759 14.5661C20.1496 15.2963 20.2508 16.7197 19.3902 17.5803Z" fill="#222222"/>
</svg>
