<svg width="35" height="32" viewBox="0 0 35 32" fill="none" xmlns="http://www.w3.org/2000/svg">
<path d="M15.05 6.65108L15.9091 5.73671V11.3004C15.9091 11.7114 16.0767 12.1056 16.3751 12.3963C16.6734 12.6869 17.0781 12.8502 17.5 12.8502C17.9219 12.8502 18.3266 12.6869 18.6249 12.3963C18.9233 12.1056 19.0909 11.7114 19.0909 11.3004V5.73671L19.95 6.58909C20.0944 6.74798 20.2708 6.87628 20.4682 6.96605C20.6656 7.05581 20.8798 7.10513 21.0976 7.11094C21.3153 7.11675 21.532 7.07894 21.7341 6.99983C21.9363 6.92073 22.1196 6.80203 22.2727 6.65108C22.4218 6.50701 22.5402 6.3356 22.621 6.14675C22.7017 5.95789 22.7433 5.75533 22.7433 5.55074C22.7433 5.34615 22.7017 5.14359 22.621 4.95474C22.5402 4.76588 22.4218 4.59447 22.2727 4.4504L18.6295 0.901423C18.4782 0.760331 18.2998 0.649731 18.1045 0.575971C17.7172 0.420965 17.2828 0.420965 16.8955 0.575971C16.7002 0.649731 16.5218 0.760331 16.3705 0.901423L12.7273 4.38841C12.4193 4.68846 12.2462 5.09541 12.2462 5.51975C12.2462 5.94408 12.4193 6.35103 12.7273 6.65108C13.0353 6.95113 13.453 7.1197 13.8886 7.1197C14.3242 7.1197 14.742 6.95113 15.05 6.65108ZM17.5 15.9497C16.556 15.9497 15.6333 16.2224 14.8484 16.7333C14.0635 17.2441 13.4518 17.9703 13.0906 18.8198C12.7293 19.6694 12.6348 20.6042 12.819 21.5061C13.0031 22.408 13.4577 23.2364 14.1252 23.8866C14.7927 24.5368 15.6431 24.9796 16.5689 25.159C17.4947 25.3384 18.4543 25.2463 19.3264 24.8944C20.1985 24.5426 20.9439 23.9466 21.4684 23.1821C21.9928 22.4175 22.2727 21.5186 22.2727 20.599C22.2727 19.366 21.7699 18.1834 20.8748 17.3115C19.9798 16.4396 18.7658 15.9497 17.5 15.9497ZM17.5 22.1488C17.1853 22.1488 16.8778 22.0579 16.6161 21.8876C16.3545 21.7173 16.1506 21.4753 16.0302 21.1921C15.9098 20.9089 15.8783 20.5973 15.9397 20.2967C16.001 19.9961 16.1526 19.7199 16.3751 19.5032C16.5976 19.2864 16.881 19.1388 17.1896 19.079C17.4982 19.0192 17.8181 19.0499 18.1088 19.1672C18.3995 19.2845 18.648 19.4832 18.8228 19.738C18.9976 19.9929 19.0909 20.2925 19.0909 20.599C19.0909 21.0101 18.9233 21.4043 18.6249 21.6949C18.3266 21.9855 17.9219 22.1488 17.5 22.1488ZM6.36364 20.599C6.36364 20.9056 6.45694 21.2052 6.63175 21.46C6.80656 21.7149 7.05503 21.9135 7.34573 22.0308C7.63643 22.1481 7.95631 22.1788 8.26492 22.119C8.57352 22.0592 8.857 21.9116 9.07949 21.6949C9.30198 21.4782 9.4535 21.202 9.51489 20.9014C9.57627 20.6008 9.54477 20.2892 9.42435 20.006C9.30394 19.7228 9.10003 19.4807 8.83841 19.3104C8.57678 19.1402 8.2692 19.0493 7.95455 19.0493C7.53261 19.0493 7.12796 19.2125 6.8296 19.5032C6.53125 19.7938 6.36364 20.188 6.36364 20.599ZM28.6364 20.599C28.6364 20.2925 28.5431 19.9929 28.3682 19.738C28.1934 19.4832 27.945 19.2845 27.6543 19.1672C27.3636 19.0499 27.0437 19.0192 26.7351 19.079C26.4265 19.1388 26.143 19.2864 25.9205 19.5032C25.698 19.7199 25.5465 19.9961 25.4851 20.2967C25.4237 20.5973 25.4552 20.9089 25.5756 21.1921C25.6961 21.4753 25.9 21.7173 26.1616 21.8876C26.4232 22.0579 26.7308 22.1488 27.0455 22.1488C27.4674 22.1488 27.872 21.9855 28.1704 21.6949C28.4688 21.4043 28.6364 21.0101 28.6364 20.599ZM30.2273 9.75063H23.8636C23.4417 9.75063 23.037 9.91391 22.7387 10.2045C22.4403 10.4952 22.2727 10.8894 22.2727 11.3004C22.2727 11.7114 22.4403 12.1056 22.7387 12.3963C23.037 12.6869 23.4417 12.8502 23.8636 12.8502H30.2273C30.6492 12.8502 31.0539 13.0135 31.3522 13.3041C31.6506 13.5947 31.8182 13.9889 31.8182 14.3999V26.7981C31.8182 27.2092 31.6506 27.6033 31.3522 27.894C31.0539 28.1846 30.6492 28.3479 30.2273 28.3479H4.77273C4.35079 28.3479 3.94614 28.1846 3.64778 27.894C3.34943 27.6033 3.18182 27.2092 3.18182 26.7981V14.3999C3.18182 13.9889 3.34943 13.5947 3.64778 13.3041C3.94614 13.0135 4.35079 12.8502 4.77273 12.8502H11.1364C11.5583 12.8502 11.963 12.6869 12.2613 12.3963C12.5597 12.1056 12.7273 11.7114 12.7273 11.3004C12.7273 10.8894 12.5597 10.4952 12.2613 10.2045C11.963 9.91391 11.5583 9.75063 11.1364 9.75063H4.77273C3.50692 9.75063 2.29296 10.2405 1.3979 11.1124C0.502839 11.9843 0 13.1669 0 14.3999V26.7981C0 28.0312 0.502839 29.2138 1.3979 30.0857C2.29296 30.9576 3.50692 31.4475 4.77273 31.4475H30.2273C31.4931 31.4475 32.707 30.9576 33.6021 30.0857C34.4972 29.2138 35 28.0312 35 26.7981V14.3999C35 13.1669 34.4972 11.9843 33.6021 11.1124C32.707 10.2405 31.4931 9.75063 30.2273 9.75063Z" fill="white"/>
</svg>
