<svg width="138" height="41" viewBox="0 0 138 41" fill="none" xmlns="http://www.w3.org/2000/svg">
<g clip-path="url(#clip0_22_4268)">
<path d="M14.6254 24.8278C14.6254 25.7411 14.4335 26.5897 14.0498 27.3744C13.6661 28.148 13.1225 28.8139 12.4402 29.3515C11.7474 29.8994 10.9267 30.3184 9.9777 30.6191C9.02912 30.9199 7.98462 31.0703 6.8546 31.0703C5.50062 31.0703 4.28576 30.8876 3.22022 30.5117C2.15434 30.1463 1.07783 29.5231 0.000976562 28.6633L1.7814 25.7511C2.63406 26.471 3.40121 26.9971 4.0946 27.3308C4.77679 27.6639 5.48025 27.825 6.20532 27.825C7.08999 27.825 7.79345 27.5993 8.33753 27.1374C8.88116 26.6753 9.13692 26.063 9.13692 25.2787C9.13692 24.9457 9.08362 24.6341 8.98772 24.344C8.89178 24.0538 8.71059 23.7531 8.45483 23.4415C8.19897 23.1407 7.83666 22.7969 7.37832 22.4423C6.93061 22.0877 6.34445 21.6364 5.61939 21.1098C5.07576 20.7231 4.53224 20.3148 4.00976 19.906C3.48751 19.487 3.01854 19.0465 2.58112 18.5735C2.15479 18.1008 1.81375 17.5744 1.54726 16.9836C1.29139 16.4035 1.15294 15.7263 1.15294 14.9849C1.15294 14.1254 1.33415 13.3301 1.68582 12.6205C2.03749 11.911 2.52785 11.3097 3.14613 10.8052C3.7643 10.3002 4.50012 9.9134 5.37336 9.63437C6.23665 9.355 7.17415 9.21538 8.19784 9.21538C9.27435 9.21538 10.3086 9.355 11.3096 9.64519C12.3115 9.93527 13.2394 10.3543 14.1024 10.9128L12.4928 13.5345C11.395 12.7608 10.2328 12.3637 9.01792 12.3637C8.28245 12.3637 7.66393 12.5571 7.18433 12.9439C6.70472 13.3306 6.45949 13.8142 6.45949 14.4051C6.45949 14.9638 6.67271 15.4688 7.09904 15.9095C7.52537 16.3608 8.26073 16.9733 9.30591 17.7898C10.3612 18.5635 11.2356 19.251 11.9177 19.8307C12.6106 20.4109 13.1541 20.9696 13.559 21.4855C13.9641 22.0013 14.2306 22.517 14.3904 23.0538C14.5502 23.6017 14.6249 24.1819 14.6249 24.827L14.6254 24.8278ZM32.9047 19.9181C32.9047 20.7238 32.8194 21.5945 32.6489 22.5284C32.489 23.4632 32.2012 24.3233 31.7963 25.1182C31.3912 25.9133 30.869 26.5692 30.2183 27.0737C29.5682 27.5894 28.7365 27.8473 27.7456 27.8473C26.0829 27.8473 24.7719 27.1811 23.8126 25.8383C22.8533 24.5058 22.3738 22.6687 22.3738 20.3374C22.3738 17.9412 22.8534 16.0506 23.8341 14.643C24.8041 13.2353 26.1258 12.5372 27.7886 12.5372C29.3666 12.5372 30.6131 13.2033 31.5293 14.5143C32.446 15.8354 32.9048 17.6405 32.9048 19.9183L32.9047 19.9181ZM38.6815 19.7139C38.6815 18.1559 38.4576 16.738 38.0207 15.4704C37.5729 14.1914 36.9548 13.0958 36.1339 12.1722C35.3133 11.2482 34.3535 10.539 33.2348 10.0231C32.1161 9.50716 30.8797 9.24954 29.5257 9.24954C28.0338 9.24954 26.7228 9.53962 25.5927 10.0984C24.4629 10.6678 23.4074 11.5596 22.4481 12.7839L22.4162 9.74302H17.0976V40.9941H22.4061V27.7944C22.9283 28.4068 23.4292 28.9225 23.9195 29.341C24.3992 29.76 24.8895 30.1038 25.39 30.3617C25.8909 30.6195 26.4132 30.8129 26.9669 30.9204C27.5211 31.0278 28.1184 31.0816 28.7473 31.0816C30.1544 31.0816 31.4756 30.7914 32.6905 30.2328C33.9053 29.6633 34.9607 28.8684 35.8452 27.8365C36.7298 26.8047 37.4232 25.602 37.9243 24.2377C38.4359 22.8619 38.681 21.3472 38.681 19.714L38.6815 19.7139ZM41.0478 30.5766H46.5045V-0.00256348H41.0478V30.5766ZM69.779 30.5873V9.72286H64.3223V20.95C64.3223 21.9493 64.2797 22.7233 64.1944 23.2711C64.1091 23.819 63.9705 24.3025 63.7787 24.7539C63.0113 26.4725 61.5933 27.3438 59.5369 27.3438C57.9273 27.3438 56.8086 26.7636 56.1683 25.5921C55.9126 25.1516 55.742 24.6466 55.6461 24.0877C55.5502 23.529 55.4969 22.7233 55.4969 21.6596V9.724H50.0402V21.5798C50.0402 22.3856 50.0509 23.0729 50.0616 23.6207C50.0722 24.1686 50.1149 24.6736 50.1682 25.1036C50.2214 25.5334 50.2853 25.9201 50.36 26.2538C50.4239 26.5868 50.5306 26.9092 50.6691 27.21C51.17 28.489 51.97 29.4559 53.0887 30.1108C54.2078 30.7661 55.5828 31.0885 57.2027 31.0885C58.663 31.0885 59.9525 30.8306 61.061 30.3149C62.1695 29.7992 63.2464 28.9607 64.2904 27.79L64.3011 30.5837L69.7792 30.5944L69.779 30.5873ZM93.2955 30.5766V18.7435C93.2955 17.9377 93.2849 17.2505 93.2742 16.681C93.2635 16.1116 93.2316 15.6174 93.1676 15.1982C93.1143 14.7791 93.0398 14.4138 92.9651 14.1022C92.8798 13.7799 92.7839 13.4683 92.6774 13.1674C92.1764 11.9215 91.3765 10.9546 90.2578 10.2769C89.1391 9.59929 87.7637 9.25626 86.1325 9.25626C84.6722 9.25626 83.3827 9.51411 82.2742 10.0298C81.1657 10.5455 80.0888 11.3942 79.0448 12.5547L79.0341 9.76102H73.5447V30.5799H79.0443V19.3413C79.0443 18.3743 79.0763 17.6114 79.1509 17.0738C79.2148 16.5366 79.3535 16.0316 79.5453 15.5477C79.897 14.7096 80.4512 14.0865 81.1866 13.6572C81.922 13.2278 82.7962 13.0125 83.8188 13.0125C85.4284 13.0125 86.5471 13.5927 87.1873 14.7642C87.4326 15.2047 87.603 15.7097 87.699 16.2572C87.7949 16.8053 87.8482 17.6216 87.8482 18.6751V30.5537L93.2946 30.5645L93.2955 30.5766ZM115.873 29.2008L107.56 18.7891L114.584 11.2041L110.448 9.41035L103.137 17.952H102.561V0.00313097H97.0613V30.5823H102.561V19.5055L110.789 30.9969L115.872 29.202L115.873 29.2008ZM137.128 21.7229V18.3165L120.59 9.95702V13.7062L133.406 19.9918L120.59 26.3627V30.0265L137.128 21.7217V21.7229ZM122.196 4.54844C121.184 4.54844 120.363 5.38643 120.363 6.41849C120.363 7.47139 121.184 8.2988 122.196 8.2988C123.22 8.2988 124.03 7.47151 124.03 6.41849C124.03 5.37629 123.22 4.54844 122.196 4.54844ZM122.208 4.83851C123.028 4.83851 123.688 5.54758 123.688 6.4284C123.688 7.30944 123.028 8.01829 122.208 8.00804C121.376 8.00804 120.715 7.30967 120.715 6.41815C120.715 5.54781 121.376 4.83851 122.208 4.83851ZM121.856 6.61176H122.079C122.346 6.61176 122.473 6.70846 122.527 6.97712C122.57 7.25649 122.623 7.43916 122.666 7.50362H123.018C122.985 7.43916 122.932 7.31024 122.89 6.98794C122.847 6.67634 122.729 6.51518 122.538 6.48295V6.46145C122.762 6.39699 122.943 6.22513 122.943 5.95647C122.943 5.76308 122.878 5.61264 122.751 5.52665C122.623 5.42996 122.42 5.3655 122.112 5.3655C121.866 5.3655 121.695 5.38699 121.526 5.41922V7.50339H121.856V6.61164V6.61176ZM121.856 5.64473C121.909 5.63399 121.984 5.62325 122.09 5.62325C122.463 5.62325 122.591 5.80593 122.591 5.98861C122.591 6.24645 122.356 6.34314 122.09 6.34314H121.856V5.64478V5.64473Z" fill="white"/>
</g>
<defs>
<clipPath id="clip0_22_4268">
<rect width="138" height="41" fill="white"/>
</clipPath>
</defs>
</svg>
