<svg width="22" height="22" viewBox="0 0 22 22" fill="none" xmlns="http://www.w3.org/2000/svg">
<path d="M0.550415 7.61172L10.45 13.2229C10.6172 13.3176 10.8069 13.3674 11 13.3674C11.1931 13.3674 11.3828 13.3176 11.55 13.2229L21.4496 7.61172C21.6158 7.51757 21.7541 7.38237 21.8505 7.21957C21.947 7.05677 21.9984 6.87204 21.9996 6.68372C22.0003 6.49358 21.9499 6.30661 21.8533 6.14176C21.7567 5.9769 21.6174 5.84 21.4496 5.74493L11.55 0.144568C11.3828 0.0498598 11.1931 0 11 0C10.8069 0 10.6172 0.0498598 10.45 0.144568L0.550415 5.74493C0.382556 5.84 0.243286 5.9769 0.146707 6.14176C0.0501268 6.30661 -0.000333129 6.49358 0.000436365 6.68372C0.00159503 6.87204 0.0529691 7.05677 0.149453 7.21957C0.245936 7.38237 0.384169 7.51757 0.550415 7.61172ZM11 2.36745L18.6997 6.68372L11 11L3.30031 6.68372L11 2.36745ZM20.3496 10.1044L11 15.3163L1.65037 10.0612C1.52483 9.98986 1.38614 9.94359 1.24229 9.92504C1.09844 9.9065 0.952269 9.91606 0.8122 9.95317C0.672132 9.99028 0.540931 10.0542 0.426153 10.1413C0.311376 10.2283 0.215291 10.3368 0.143431 10.4605C2.67659e-05 10.7082 -0.0376646 11.0016 0.0385809 11.2765C0.114826 11.5515 0.29882 11.7856 0.550415 11.928L10.45 17.5392C10.6172 17.6339 10.8069 17.6837 11 17.6837C11.1931 17.6837 11.3828 17.6339 11.55 17.5392L21.4496 11.928C21.7012 11.7856 21.8852 11.5515 21.9614 11.2765C22.0377 11.0016 22 10.7082 21.8566 10.4605C21.7847 10.3368 21.6886 10.2283 21.5738 10.1413C21.4591 10.0542 21.3279 9.99028 21.1878 9.95317C21.0477 9.91606 20.9016 9.9065 20.7577 9.92504C20.6139 9.94359 20.4752 9.98986 20.3496 10.0612V10.1044ZM20.3496 14.4206L11 19.6325L1.65037 14.3775C1.52483 14.3061 1.38614 14.2599 1.24229 14.2413C1.09844 14.2228 0.952269 14.2323 0.8122 14.2694C0.672132 14.3066 0.540931 14.3705 0.426153 14.4575C0.311376 14.5446 0.215291 14.6531 0.143431 14.7767C2.67659e-05 15.0245 -0.0376646 15.3179 0.0385809 15.5928C0.114826 15.8677 0.29882 16.1019 0.550415 16.2443L10.45 21.8554C10.6172 21.9501 10.8069 22 11 22C11.1931 22 11.3828 21.9501 11.55 21.8554L21.4496 16.2443C21.7012 16.1019 21.8852 15.8677 21.9614 15.5928C22.0377 15.3179 22 15.0245 21.8566 14.7767C21.7847 14.6531 21.6886 14.5446 21.5738 14.4575C21.4591 14.3705 21.3279 14.3066 21.1878 14.2694C21.0477 14.2323 20.9016 14.2228 20.7577 14.2413C20.6139 14.2599 20.4752 14.3061 20.3496 14.3775V14.4206Z" fill="white"/>
</svg>
