<svg width="34" height="34" viewBox="0 0 34 34" fill="none" xmlns="http://www.w3.org/2000/svg">
<path d="M0.850641 11.7636L16.15 20.4354C16.4085 20.5817 16.7016 20.6588 17 20.6588C17.2984 20.6588 17.5915 20.5817 17.85 20.4354L33.1494 11.7636C33.4063 11.6181 33.6199 11.4091 33.769 11.1575C33.9181 10.9059 33.9975 10.6204 33.9993 10.3294C34.0005 10.0355 33.9225 9.74659 33.7733 9.49181C33.624 9.23703 33.4088 9.02546 33.1494 8.87854L17.85 0.223423C17.5915 0.0770561 17.2984 0 17 0C16.7016 0 16.4085 0.0770561 16.15 0.223423L0.850641 8.87854C0.591224 9.02546 0.375988 9.23703 0.226728 9.49181C0.0774687 9.74659 -0.000514835 10.0355 0.000674382 10.3294C0.00246504 10.6204 0.0818613 10.9059 0.230972 11.1575C0.380083 11.4091 0.593716 11.6181 0.850641 11.7636ZM17 3.65879L28.8995 10.3294L17 17L5.10047 10.3294L17 3.65879ZM31.4494 15.6158L17 23.6706L2.55057 15.5491C2.35655 15.4389 2.14221 15.3674 1.9199 15.3387C1.69758 15.31 1.47169 15.3248 1.25522 15.3822C1.03875 15.4395 0.835984 15.5383 0.658601 15.6729C0.481218 15.8074 0.332722 15.9751 0.221666 16.1662C4.13655e-05 16.5491 -0.058209 17.0025 0.059625 17.4274C0.177459 17.8523 0.461812 18.2142 0.850641 18.4342L16.15 27.106C16.4085 27.2523 16.7016 27.3294 17 27.3294C17.2984 27.3294 17.5915 27.2523 17.85 27.106L33.1494 18.4342C33.5382 18.2142 33.8225 17.8523 33.9404 17.4274C34.0582 17.0025 34 16.5491 33.7783 16.1662C33.6673 15.9751 33.5188 15.8074 33.3414 15.6729C33.164 15.5383 32.9613 15.4395 32.7448 15.3822C32.5283 15.3248 32.3024 15.31 32.0801 15.3387C31.8578 15.3674 31.6434 15.4389 31.4494 15.5491V15.6158ZM31.4494 22.2865L17 30.3412L2.55057 22.2197C2.35655 22.1095 2.14221 22.038 1.9199 22.0093C1.69758 21.9807 1.47169 21.9954 1.25522 22.0528C1.03875 22.1101 0.835984 22.2089 0.658601 22.3435C0.481218 22.478 0.332722 22.6457 0.221666 22.8368C4.13655e-05 23.2197 -0.058209 23.6731 0.059625 24.098C0.177459 24.5229 0.461812 24.8848 0.850641 25.1048L16.15 33.7766C16.4085 33.9229 16.7016 34 17 34C17.2984 34 17.5915 33.9229 17.85 33.7766L33.1494 25.1048C33.5382 24.8848 33.8225 24.5229 33.9404 24.098C34.0582 23.6731 34 23.2197 33.7783 22.8368C33.6673 22.6457 33.5188 22.478 33.3414 22.3435C33.164 22.2089 32.9613 22.1101 32.7448 22.0528C32.5283 21.9954 32.3024 21.9807 32.0801 22.0093C31.8578 22.038 31.6434 22.1095 31.4494 22.2197V22.2865Z" fill="#2F69FF"/>
</svg>
