<svg width="22" height="22" viewBox="0 0 22 22" fill="none" xmlns="http://www.w3.org/2000/svg">
<path d="M11.0155 13.1994C10.7982 13.1994 10.5859 13.2639 10.4052 13.3848C10.2246 13.5057 10.0838 13.6774 10.0006 13.8784C9.9175 14.0794 9.89575 14.3006 9.93814 14.514C9.98052 14.7273 10.0851 14.9233 10.2388 15.0771C10.3924 15.231 10.5881 15.3357 10.8012 15.3782C11.0143 15.4206 11.2351 15.3988 11.4358 15.3156C11.6366 15.2323 11.8081 15.0914 11.9288 14.9105C12.0495 14.7296 12.1139 14.5169 12.1139 14.2994C12.1139 14.0076 11.9982 13.7279 11.7922 13.5216C11.5862 13.3153 11.3068 13.1994 11.0155 13.1994ZM11.0155 0C9.57297 0 8.14459 0.284511 6.81189 0.837288C5.47918 1.39007 4.26826 2.20028 3.24825 3.22168C1.18826 5.28449 0.0309614 8.08226 0.0309614 10.9995C0.0213585 13.5394 0.899609 16.0027 2.51346 17.9622L0.316559 20.1621C0.16414 20.3168 0.0608899 20.5132 0.0198362 20.7266C-0.0212174 20.94 0.0017651 21.1607 0.0858839 21.3611C0.177119 21.559 0.325021 21.7253 0.510817 21.8389C0.696612 21.9524 0.911921 22.0082 1.12941 21.999H11.0155C13.9288 21.999 16.7227 20.8402 18.7827 18.7773C20.8427 16.7145 22 13.9168 22 10.9995C22 8.08226 20.8427 5.28449 18.7827 3.22168C16.7227 1.15887 13.9288 0 11.0155 0ZM11.0155 19.7991H3.77668L4.79824 18.7762C4.90203 18.6743 4.9846 18.5528 5.04117 18.4188C5.09774 18.2847 5.12717 18.1407 5.12778 17.9952C5.12365 17.7051 5.00521 17.4283 4.79824 17.2252C3.35991 15.7865 2.46422 13.893 2.26377 11.8671C2.06333 9.84132 2.57052 7.80856 3.69894 6.1152C4.82736 4.42185 6.5072 3.17265 8.45226 2.58046C10.3973 1.98826 12.4873 2.08969 14.366 2.86748C16.2447 3.64526 17.7961 5.05128 18.7557 6.84598C19.7152 8.64068 20.0237 10.713 19.6286 12.7099C19.2334 14.7069 18.159 16.5048 16.5885 17.7975C15.018 19.0901 13.0485 19.7975 11.0155 19.7991ZM11.0155 6.59971C10.7242 6.59971 10.4448 6.7156 10.2388 6.92188C10.0328 7.12816 9.91703 7.40793 9.91703 7.69966V10.9995C9.91703 11.2912 10.0328 11.571 10.2388 11.7773C10.4448 11.9836 10.7242 12.0995 11.0155 12.0995C11.3068 12.0995 11.5862 11.9836 11.7922 11.7773C11.9982 11.571 12.1139 11.2912 12.1139 10.9995V7.69966C12.1139 7.40793 11.9982 7.12816 11.7922 6.92188C11.5862 6.7156 11.3068 6.59971 11.0155 6.59971Z" fill="white"/>
</svg>
