<svg width="22" height="22" viewBox="0 0 22 22" fill="none" xmlns="http://www.w3.org/2000/svg">
<path d="M19.2565 0.00749897C18.7925 0.00749897 18.3475 0.200588 18.0194 0.544287C17.6914 0.887987 17.5071 1.35414 17.5071 1.84021V15.7505L3.0045 0.538984C2.67508 0.193879 2.22829 -3.63628e-09 1.76242 0C1.29655 3.63628e-09 0.849764 0.193879 0.520344 0.538984C0.190925 0.88409 0.00585938 1.35215 0.00585938 1.84021C0.00585937 2.32826 0.190925 2.79632 0.520344 3.14143L15.0404 18.3346H1.76242C1.29845 18.3346 0.853483 18.5277 0.525406 18.8714C0.197329 19.2151 0.0130175 19.6812 0.0130175 20.1673C0.0130175 20.6534 0.197329 21.1195 0.525406 21.4632C0.853483 21.8069 1.29845 22 1.76242 22H19.2565C19.4851 21.9971 19.7109 21.9473 19.9212 21.8534C20.3487 21.6674 20.6884 21.3115 20.8659 20.8637C20.9555 20.6434 21.0031 20.4068 21.0059 20.1673V1.84021C21.0059 1.35414 20.8216 0.887987 20.4935 0.544287C20.1654 0.200588 19.7204 0.00749897 19.2565 0.00749897Z" fill="white"/>
</svg>
