<svg width="24" height="23" viewBox="0 0 24 23" fill="none" xmlns="http://www.w3.org/2000/svg">
<path d="M20.7383 12.9755C20.4874 12.9755 20.2247 12.8968 19.9737 12.841C19.4651 12.7312 18.9648 12.5853 18.4779 12.4049C17.3803 12.0131 16.1589 12.4967 15.6452 13.5248L15.3943 14.0281C14.2816 13.4215 13.2593 12.6689 12.3558 11.7901C11.459 10.9047 10.691 9.90292 10.0719 8.8126L10.5521 8.49944C11.6012 7.99609 12.0931 6.7992 11.6949 5.72363C11.5142 5.24488 11.3653 4.75464 11.2499 4.25785C11.193 4.01191 11.1478 3.7545 11.1127 3.49709C10.8249 1.86734 9.37089 0.686848 7.68434 0.709802H4.25938C2.36704 0.693406 0.819365 2.18214 0.80096 4.03651C0.799287 4.20047 0.809326 4.36442 0.83275 4.52674C2.08427 14.1707 9.85276 21.7554 19.6993 22.9458H20.1327C20.9743 22.9474 21.7874 22.6441 22.4165 22.0948C23.1477 21.4538 23.5626 20.5372 23.5593 19.5764V16.2202C23.5309 14.6184 22.3479 13.2575 20.7383 12.9755ZM21.3089 19.6896C21.3089 20.0109 21.1667 20.3175 20.9207 20.529C20.6631 20.7487 20.3234 20.8504 19.9838 20.8094C11.1863 19.7043 4.2711 12.8952 3.18521 4.26933C3.1484 3.93813 3.25214 3.60694 3.47132 3.35116C3.68716 3.11015 4.00004 2.97078 4.32798 2.97078H7.75462C8.30174 2.9593 8.78194 3.32985 8.89739 3.85451C8.94256 4.16112 8.99945 4.4628 9.06805 4.7612C9.20023 5.35145 9.37591 5.93022 9.59342 6.49588L7.99388 7.22385C7.41998 7.48126 7.16901 8.14529 7.4317 8.70767C7.4317 8.70931 7.43337 8.71095 7.43337 8.71259C9.07641 12.1623 11.9074 14.9348 15.4277 16.5465C15.7055 16.658 16.0184 16.658 16.2961 16.5465C16.5839 16.4448 16.8181 16.2366 16.947 15.9644L17.6547 14.397C18.2453 14.6036 18.8477 14.7758 19.4584 14.9118C19.7629 14.9791 20.0708 15.0348 20.3836 15.0791C20.919 15.1922 21.2972 15.6611 21.2855 16.1989L21.3089 19.6896Z" fill="#2F69FF"/>
</svg>
