<svg width="21" height="23" viewBox="0 0 21 23" fill="none" xmlns="http://www.w3.org/2000/svg">
<path d="M21 7.981C20.9878 7.87535 20.9644 7.77128 20.93 7.6705V7.567C20.8739 7.44876 20.7991 7.34006 20.7083 7.245L13.7083 0.345C13.6119 0.255549 13.5016 0.181793 13.3817 0.1265C13.3468 0.121624 13.3115 0.121624 13.2767 0.1265C13.1582 0.0595024 13.0273 0.0164958 12.8917 0H8.16667C7.23841 0 6.34817 0.363481 5.69179 1.01048C5.03542 1.65748 4.66667 2.535 4.66667 3.45V4.6H3.5C2.57174 4.6 1.6815 4.96348 1.02513 5.61048C0.368749 6.25748 0 7.135 0 8.05V19.55C0 20.465 0.368749 21.3425 1.02513 21.9895C1.6815 22.6365 2.57174 23 3.5 23H12.8333C13.7616 23 14.6518 22.6365 15.3082 21.9895C15.9646 21.3425 16.3333 20.465 16.3333 19.55V18.4H17.5C18.4283 18.4 19.3185 18.0365 19.9749 17.3895C20.6313 16.7425 21 15.865 21 14.95V8.05C21 8.05 21 8.05 21 7.981ZM14 3.9215L17.0217 6.9H15.1667C14.8572 6.9 14.5605 6.77884 14.3417 6.56317C14.1229 6.34751 14 6.055 14 5.75V3.9215ZM14 19.55C14 19.855 13.8771 20.1475 13.6583 20.3632C13.4395 20.5788 13.1428 20.7 12.8333 20.7H3.5C3.19058 20.7 2.89383 20.5788 2.67504 20.3632C2.45625 20.1475 2.33333 19.855 2.33333 19.55V8.05C2.33333 7.745 2.45625 7.45249 2.67504 7.23683C2.89383 7.02116 3.19058 6.9 3.5 6.9H4.66667V14.95C4.66667 15.865 5.03542 16.7425 5.69179 17.3895C6.34817 18.0365 7.23841 18.4 8.16667 18.4H14V19.55ZM18.6667 14.95C18.6667 15.255 18.5438 15.5475 18.325 15.7632C18.1062 15.9788 17.8094 16.1 17.5 16.1H8.16667C7.85725 16.1 7.5605 15.9788 7.34171 15.7632C7.12292 15.5475 7 15.255 7 14.95V3.45C7 3.145 7.12292 2.85249 7.34171 2.63683C7.5605 2.42116 7.85725 2.3 8.16667 2.3H11.6667V5.75C11.6667 6.665 12.0354 7.54252 12.6918 8.18952C13.3482 8.83652 14.2384 9.2 15.1667 9.2H18.6667V14.95Z" fill="white"/>
</svg>
