<svg width="31" height="34" viewBox="0 0 31 34" fill="none" xmlns="http://www.w3.org/2000/svg">
<path d="M31 11.798C30.9821 11.6418 30.9474 11.488 30.8967 11.339V11.186C30.8139 11.0112 30.7034 10.8505 30.5694 10.71L20.2361 0.51C20.0937 0.377767 19.931 0.268738 19.7539 0.187C19.7025 0.179792 19.6503 0.179792 19.5989 0.187C19.4239 0.0879601 19.2307 0.0243851 19.0306 0H12.0556C10.6853 0 9.37111 0.53732 8.40217 1.49376C7.43323 2.45019 6.88889 3.7474 6.88889 5.1V6.8H5.16667C3.79638 6.8 2.48222 7.33732 1.51328 8.29376C0.544344 9.25019 0 10.5474 0 11.9V28.9C0 30.2526 0.544344 31.5498 1.51328 32.5062C2.48222 33.4627 3.79638 34 5.16667 34H18.9444C20.3147 34 21.6289 33.4627 22.5978 32.5062C23.5668 31.5498 24.1111 30.2526 24.1111 28.9V27.2H25.8333C27.2036 27.2 28.5178 26.6627 29.4867 25.7062C30.4557 24.7498 31 23.4526 31 22.1V11.9C31 11.9 31 11.9 31 11.798ZM20.6667 5.797L25.1272 10.2H22.3889C21.9321 10.2 21.4941 10.0209 21.1711 9.70208C20.8481 9.38327 20.6667 8.95087 20.6667 8.5V5.797ZM20.6667 28.9C20.6667 29.3509 20.4852 29.7833 20.1622 30.1021C19.8393 30.4209 19.4012 30.6 18.9444 30.6H5.16667C4.7099 30.6 4.27185 30.4209 3.94887 30.1021C3.62589 29.7833 3.44444 29.3509 3.44444 28.9V11.9C3.44444 11.4491 3.62589 11.0167 3.94887 10.6979C4.27185 10.3791 4.7099 10.2 5.16667 10.2H6.88889V22.1C6.88889 23.4526 7.43323 24.7498 8.40217 25.7062C9.37111 26.6627 10.6853 27.2 12.0556 27.2H20.6667V28.9ZM27.5556 22.1C27.5556 22.5509 27.3741 22.9833 27.0511 23.3021C26.7281 23.6209 26.2901 23.8 25.8333 23.8H12.0556C11.5988 23.8 11.1607 23.6209 10.8378 23.3021C10.5148 22.9833 10.3333 22.5509 10.3333 22.1V5.1C10.3333 4.64913 10.5148 4.21673 10.8378 3.89792C11.1607 3.57911 11.5988 3.4 12.0556 3.4H17.2222V8.5C17.2222 9.8526 17.7666 11.1498 18.7355 12.1062C19.7044 13.0627 21.0186 13.6 22.3889 13.6H27.5556V22.1Z" fill="#2F69FF"/>
</svg>
