<svg width="35" height="32" viewBox="0 0 35 32" fill="none" xmlns="http://www.w3.org/2000/svg">
<path d="M15.05 6.58101L15.9091 5.66665V11.2303C15.9091 11.6414 16.0767 12.0355 16.3751 12.3262C16.6734 12.6168 17.0781 12.7801 17.5 12.7801C17.9219 12.7801 18.3266 12.6168 18.6249 12.3262C18.9233 12.0355 19.0909 11.6414 19.0909 11.2303V5.66665L19.95 6.51902C20.0944 6.67791 20.2708 6.80621 20.4682 6.89598C20.6656 6.98574 20.8798 7.03506 21.0976 7.04087C21.3153 7.04668 21.532 7.00887 21.7341 6.92976C21.9363 6.85066 22.1196 6.73196 22.2727 6.58101C22.4218 6.43694 22.5402 6.26553 22.621 6.07668C22.7017 5.88783 22.7433 5.68526 22.7433 5.48067C22.7433 5.27609 22.7017 5.07352 22.621 4.88467C22.5402 4.69581 22.4218 4.52441 22.2727 4.38033L18.6295 0.831355C18.4782 0.690262 18.2998 0.579663 18.1045 0.505902C17.7172 0.350897 17.2828 0.350897 16.8955 0.505902C16.7002 0.579663 16.5218 0.690262 16.3705 0.831355L12.7273 4.31834C12.4193 4.61839 12.2462 5.02535 12.2462 5.44968C12.2462 5.87401 12.4193 6.28096 12.7273 6.58101C13.0353 6.88106 13.453 7.04963 13.8886 7.04963C14.3242 7.04963 14.742 6.88106 15.05 6.58101ZM17.5 15.8797C16.556 15.8797 15.6333 16.1523 14.8484 16.6632C14.0635 17.1741 13.4518 17.9002 13.0906 18.7498C12.7293 19.5993 12.6348 20.5341 12.819 21.436C13.0031 22.3379 13.4577 23.1663 14.1252 23.8165C14.7926 24.4668 15.6431 24.9096 16.5689 25.089C17.4947 25.2684 18.4543 25.1763 19.3264 24.8244C20.1985 24.4725 20.9439 23.8766 21.4684 23.112C21.9928 22.3474 22.2727 21.4485 22.2727 20.529C22.2727 19.2959 21.7699 18.1133 20.8748 17.2414C19.9798 16.3695 18.7658 15.8797 17.5 15.8797ZM17.5 22.0787C17.1853 22.0787 16.8778 21.9879 16.6161 21.8176C16.3545 21.6473 16.1506 21.4052 16.0302 21.122C15.9098 20.8389 15.8783 20.5273 15.9397 20.2266C16.001 19.926 16.1526 19.6499 16.3751 19.4331C16.5975 19.2164 16.881 19.0688 17.1896 19.009C17.4982 18.9492 17.8181 18.9799 18.1088 19.0972C18.3995 19.2145 18.648 19.4131 18.8228 19.668C18.9976 19.9228 19.0909 20.2225 19.0909 20.529C19.0909 20.94 18.9233 21.3342 18.6249 21.6248C18.3266 21.9155 17.9219 22.0787 17.5 22.0787ZM6.36364 20.529C6.36364 20.8355 6.45694 21.1351 6.63175 21.39C6.80656 21.6448 7.05503 21.8435 7.34573 21.9608C7.63643 22.0781 7.95631 22.1088 8.26492 22.049C8.57352 21.9892 8.857 21.8416 9.07949 21.6248C9.30198 21.4081 9.4535 21.1319 9.51489 20.8313C9.57627 20.5307 9.54477 20.2191 9.42435 19.9359C9.30394 19.6527 9.10003 19.4107 8.83841 19.2404C8.57678 19.0701 8.2692 18.9792 7.95455 18.9792C7.53261 18.9792 7.12796 19.1425 6.8296 19.4331C6.53125 19.7238 6.36364 20.1179 6.36364 20.529ZM28.6364 20.529C28.6364 20.2225 28.5431 19.9228 28.3682 19.668C28.1934 19.4131 27.945 19.2145 27.6543 19.0972C27.3636 18.9799 27.0437 18.9492 26.7351 19.009C26.4265 19.0688 26.143 19.2164 25.9205 19.4331C25.698 19.6499 25.5465 19.926 25.4851 20.2266C25.4237 20.5273 25.4552 20.8389 25.5756 21.122C25.6961 21.4052 25.9 21.6473 26.1616 21.8176C26.4232 21.9879 26.7308 22.0787 27.0455 22.0787C27.4674 22.0787 27.872 21.9155 28.1704 21.6248C28.4688 21.3342 28.6364 20.94 28.6364 20.529ZM30.2273 9.68056H23.8636C23.4417 9.68056 23.037 9.84384 22.7387 10.1345C22.4403 10.4251 22.2727 10.8193 22.2727 11.2303C22.2727 11.6414 22.4403 12.0355 22.7387 12.3262C23.037 12.6168 23.4417 12.7801 23.8636 12.7801H30.2273C30.6492 12.7801 31.0539 12.9434 31.3522 13.234C31.6506 13.5247 31.8182 13.9189 31.8182 14.3299V26.7281C31.8182 27.1391 31.6506 27.5333 31.3522 27.8239C31.0539 28.1146 30.6492 28.2778 30.2273 28.2778H4.77273C4.35079 28.2778 3.94614 28.1146 3.64778 27.8239C3.34943 27.5333 3.18182 27.1391 3.18182 26.7281V14.3299C3.18182 13.9189 3.34943 13.5247 3.64778 13.234C3.94614 12.9434 4.35079 12.7801 4.77273 12.7801H11.1364C11.5583 12.7801 11.963 12.6168 12.2613 12.3262C12.5597 12.0355 12.7273 11.6414 12.7273 11.2303C12.7273 10.8193 12.5597 10.4251 12.2613 10.1345C11.963 9.84384 11.5583 9.68056 11.1364 9.68056H4.77273C3.50692 9.68056 2.29296 10.1704 1.3979 11.0423C0.502839 11.9142 0 13.0968 0 14.3299V26.7281C0 27.9611 0.502839 29.1437 1.3979 30.0156C2.29296 30.8875 3.50692 31.3774 4.77273 31.3774H30.2273C31.4931 31.3774 32.707 30.8875 33.6021 30.0156C34.4972 29.1437 35 27.9611 35 26.7281V14.3299C35 13.0968 34.4972 11.9142 33.6021 11.0423C32.707 10.1704 31.4931 9.68056 30.2273 9.68056Z" fill="#2F69FF"/>
</svg>
